<svg xmlns="http://www.w3.org/2000/svg" width="1280" height="760" viewBox="0 0 1280 760">
<rect x="0" y="0" width="100%" height="100%" fill="#f7fafc"/>
<text x="28" y="46" font-family="Helvetica,Arial,sans-serif" font-size="30" font-weight="bold" fill="#102033">Compounding Pressure vs Matrix Size</text>
<rect x="100" y="90" width="1080" height="520" fill="#ffffff" stroke="#d1d9e6" stroke-width="2"/>
<line x1="100" y1="90.00" x2="1180" y2="90.00" stroke="#e6ecf2" stroke-width="1"/>
<text x="20" y="94.0" font-family="Helvetica,Arial,sans-serif" font-size="12" font-weight="normal" fill="#4a5d73">16.0</text>
<line x1="100" y1="194.00" x2="1180" y2="194.00" stroke="#e6ecf2" stroke-width="1"/>
<text x="20" y="198.0" font-family="Helvetica,Arial,sans-serif" font-size="12" font-weight="normal" fill="#4a5d73">12.8</text>
<line x1="100" y1="298.00" x2="1180" y2="298.00" stroke="#e6ecf2" stroke-width="1"/>
<text x="20" y="302.0" font-family="Helvetica,Arial,sans-serif" font-size="12" font-weight="normal" fill="#4a5d73">9.6</text>
<line x1="100" y1="402.00" x2="1180" y2="402.00" stroke="#e6ecf2" stroke-width="1"/>
<text x="20" y="406.0" font-family="Helvetica,Arial,sans-serif" font-size="12" font-weight="normal" fill="#4a5d73">6.4</text>
<line x1="100" y1="506.00" x2="1180" y2="506.00" stroke="#e6ecf2" stroke-width="1"/>
<text x="20" y="510.0" font-family="Helvetica,Arial,sans-serif" font-size="12" font-weight="normal" fill="#4a5d73">3.2</text>
<line x1="100" y1="610.00" x2="1180" y2="610.00" stroke="#e6ecf2" stroke-width="1"/>
<text x="20" y="614.0" font-family="Helvetica,Arial,sans-serif" font-size="12" font-weight="normal" fill="#4a5d73">0.0</text>
<line x1="100.00" y1="90" x2="100.00" y2="610" stroke="#eef2f7" stroke-width="1"/>
<text x="90.0" y="634" font-family="Helvetica,Arial,sans-serif" font-size="12" font-weight="normal" fill="#4a5d73">2</text>
<line x1="254.29" y1="90" x2="254.29" y2="610" stroke="#eef2f7" stroke-width="1"/>
<text x="244.28571428571428" y="634" font-family="Helvetica,Arial,sans-serif" font-size="12" font-weight="normal" fill="#4a5d73">4</text>
<line x1="562.86" y1="90" x2="562.86" y2="610" stroke="#eef2f7" stroke-width="1"/>
<text x="552.8571428571429" y="634" font-family="Helvetica,Arial,sans-serif" font-size="12" font-weight="normal" fill="#4a5d73">8</text>
<line x1="871.43" y1="90" x2="871.43" y2="610" stroke="#eef2f7" stroke-width="1"/>
<text x="861.4285714285714" y="634" font-family="Helvetica,Arial,sans-serif" font-size="12" font-weight="normal" fill="#4a5d73">12</text>
<line x1="1180.00" y1="90" x2="1180.00" y2="610" stroke="#eef2f7" stroke-width="1"/>
<text x="1170.0" y="634" font-family="Helvetica,Arial,sans-serif" font-size="12" font-weight="normal" fill="#4a5d73">16</text>
<text x="1194" y="634" font-family="Helvetica,Arial,sans-serif" font-size="12" font-weight="bold" fill="#2c3e50">N</text>
<polyline points="100.00,577.50 254.29,545.00 562.86,512.50 871.43,480.00 1180.00,480.00" fill="none" stroke="#1f77b4" stroke-width="2.8"/>
<polyline points="100.00,545.00 254.29,512.50 562.86,480.00 871.43,480.00 1180.00,447.50" fill="none" stroke="#17becf" stroke-width="2.8"/>
<polyline points="100.00,545.00 254.29,480.00 562.86,350.00 871.43,220.00 1180.00,90.00" fill="none" stroke="#d62728" stroke-width="3.0"/>
<polyline points="100.00,610.00 254.29,609.46 562.86,606.75 871.43,606.21 1180.00,601.33" fill="none" stroke="#2ca02c" stroke-width="2.2"/>
<polyline points="100.00,610.00 254.29,610.00 562.86,601.88 871.43,594.29 1180.00,584.54" fill="none" stroke="#ff7f0e" stroke-width="2.2"/>
<polyline points="100.00,610.00 254.29,608.38 562.86,601.88 871.43,584.54 1180.00,580.21" fill="none" stroke="#9467bd" stroke-width="2.2"/>
<polyline points="100.00,610.00 254.29,608.38 562.86,594.29 871.43,581.29 1180.00,576.42" fill="none" stroke="#8c564b" stroke-width="2.2"/>
<polyline points="100.00,610.00 254.29,606.75 562.86,592.12 871.43,575.88 1180.00,571.54" fill="none" stroke="#e377c2" stroke-width="2.2"/>
<polyline points="100.00,609.46 254.29,603.50 562.86,582.38 871.43,577.50 1180.00,566.67" fill="none" stroke="#2ca02c" stroke-width="2.2"/>
<polyline points="100.00,610.00 254.29,599.71 562.86,576.42 871.43,563.96 1180.00,556.92" fill="none" stroke="#ff7f0e" stroke-width="2.2"/>
<polyline points="100.00,608.38 254.29,596.46 562.86,573.71 871.43,560.17 1180.00,547.17" fill="none" stroke="#9467bd" stroke-width="2.2"/>
<line x1="120" y1="668" x2="154" y2="668" stroke="#1f77b4" stroke-width="3"/>
<text x="164" y="673" font-family="Helvetica,Arial,sans-serif" font-size="14" font-weight="normal" fill="#102033">digital adder depth (stages)</text>
<line x1="120" y1="694" x2="154" y2="694" stroke="#17becf" stroke-width="3"/>
<text x="164" y="699" font-family="Helvetica,Arial,sans-serif" font-size="14" font-weight="normal" fill="#102033">digital output bitwidth</text>
<line x1="120" y1="720" x2="154" y2="720" stroke="#d62728" stroke-width="3"/>
<text x="164" y="725" font-family="Helvetica,Arial,sans-serif" font-size="14" font-weight="normal" fill="#102033">neuro membrane fan-in (inputs/output)</text>
<line x1="120" y1="754" x2="154" y2="754" stroke="#2ca02c" stroke-width="3"/>
<text x="164" y="759" font-family="Helvetica,Arial,sans-serif" font-size="14" font-weight="normal" fill="#102033">neuro output peak mean (density=0.01)</text>
<line x1="120" y1="778" x2="154" y2="778" stroke="#ff7f0e" stroke-width="3"/>
<text x="164" y="783" font-family="Helvetica,Arial,sans-serif" font-size="14" font-weight="normal" fill="#102033">neuro output peak mean (density=0.02)</text>
<line x1="120" y1="802" x2="154" y2="802" stroke="#9467bd" stroke-width="3"/>
<text x="164" y="807" font-family="Helvetica,Arial,sans-serif" font-size="14" font-weight="normal" fill="#102033">neuro output peak mean (density=0.03)</text>
<line x1="120" y1="826" x2="154" y2="826" stroke="#8c564b" stroke-width="3"/>
<text x="164" y="831" font-family="Helvetica,Arial,sans-serif" font-size="14" font-weight="normal" fill="#102033">neuro output peak mean (density=0.04)</text>
<line x1="120" y1="850" x2="154" y2="850" stroke="#e377c2" stroke-width="3"/>
<text x="164" y="855" font-family="Helvetica,Arial,sans-serif" font-size="14" font-weight="normal" fill="#102033">neuro output peak mean (density=0.05)</text>
<line x1="120" y1="874" x2="154" y2="874" stroke="#2ca02c" stroke-width="3"/>
<text x="164" y="879" font-family="Helvetica,Arial,sans-serif" font-size="14" font-weight="normal" fill="#102033">neuro output peak mean (density=0.06)</text>
<line x1="120" y1="898" x2="154" y2="898" stroke="#ff7f0e" stroke-width="3"/>
<text x="164" y="903" font-family="Helvetica,Arial,sans-serif" font-size="14" font-weight="normal" fill="#102033">neuro output peak mean (density=0.08)</text>
<line x1="120" y1="922" x2="154" y2="922" stroke="#9467bd" stroke-width="3"/>
<text x="164" y="927" font-family="Helvetica,Arial,sans-serif" font-size="14" font-weight="normal" fill="#102033">neuro output peak mean (density=0.10)</text>
</svg>
