<svg xmlns="http://www.w3.org/2000/svg" width="1280" height="760" viewBox="0 0 1280 760">
<rect x="0" y="0" width="100%" height="100%" fill="#f7fafc"/>
<text x="28" y="46" font-family="Helvetica,Arial,sans-serif" font-size="30" font-weight="bold" fill="#102033">Binary Matmul Scaling: Energy Estimate vs Matrix Size</text>
<rect x="100" y="90" width="1080" height="520" fill="#ffffff" stroke="#d1d9e6" stroke-width="2"/>
<line x1="100" y1="90.00" x2="1180" y2="90.00" stroke="#e6ecf2" stroke-width="1"/>
<text x="20" y="94.0" font-family="Helvetica,Arial,sans-serif" font-size="12" font-weight="normal" fill="#4a5d73">100.4</text>
<line x1="100" y1="194.00" x2="1180" y2="194.00" stroke="#e6ecf2" stroke-width="1"/>
<text x="20" y="198.0" font-family="Helvetica,Arial,sans-serif" font-size="12" font-weight="normal" fill="#4a5d73">80.4</text>
<line x1="100" y1="298.00" x2="1180" y2="298.00" stroke="#e6ecf2" stroke-width="1"/>
<text x="20" y="302.0" font-family="Helvetica,Arial,sans-serif" font-size="12" font-weight="normal" fill="#4a5d73">60.3</text>
<line x1="100" y1="402.00" x2="1180" y2="402.00" stroke="#e6ecf2" stroke-width="1"/>
<text x="20" y="406.0" font-family="Helvetica,Arial,sans-serif" font-size="12" font-weight="normal" fill="#4a5d73">40.2</text>
<line x1="100" y1="506.00" x2="1180" y2="506.00" stroke="#e6ecf2" stroke-width="1"/>
<text x="20" y="510.0" font-family="Helvetica,Arial,sans-serif" font-size="12" font-weight="normal" fill="#4a5d73">20.1</text>
<line x1="100" y1="610.00" x2="1180" y2="610.00" stroke="#e6ecf2" stroke-width="1"/>
<text x="20" y="614.0" font-family="Helvetica,Arial,sans-serif" font-size="12" font-weight="normal" fill="#4a5d73">0.0</text>
<text x="20" y="80" font-family="Helvetica,Arial,sans-serif" font-size="12" font-weight="bold" fill="#2c3e50">pJ</text>
<line x1="100.00" y1="90" x2="100.00" y2="610" stroke="#eef2f7" stroke-width="1"/>
<text x="90.0" y="634" font-family="Helvetica,Arial,sans-serif" font-size="12" font-weight="normal" fill="#4a5d73">2</text>
<line x1="254.29" y1="90" x2="254.29" y2="610" stroke="#eef2f7" stroke-width="1"/>
<text x="244.28571428571428" y="634" font-family="Helvetica,Arial,sans-serif" font-size="12" font-weight="normal" fill="#4a5d73">4</text>
<line x1="562.86" y1="90" x2="562.86" y2="610" stroke="#eef2f7" stroke-width="1"/>
<text x="552.8571428571429" y="634" font-family="Helvetica,Arial,sans-serif" font-size="12" font-weight="normal" fill="#4a5d73">8</text>
<line x1="871.43" y1="90" x2="871.43" y2="610" stroke="#eef2f7" stroke-width="1"/>
<text x="861.4285714285714" y="634" font-family="Helvetica,Arial,sans-serif" font-size="12" font-weight="normal" fill="#4a5d73">12</text>
<line x1="1180.00" y1="90" x2="1180.00" y2="610" stroke="#eef2f7" stroke-width="1"/>
<text x="1170.0" y="634" font-family="Helvetica,Arial,sans-serif" font-size="12" font-weight="normal" fill="#4a5d73">16</text>
<text x="1194" y="634" font-family="Helvetica,Arial,sans-serif" font-size="12" font-weight="bold" fill="#2c3e50">N</text>
<polyline points="100.00,609.69 254.29,607.12 562.86,585.31 871.43,524.82 1180.00,405.91" fill="none" stroke="#1f77b4" stroke-width="3.0"/>
<polyline points="100.00,610.00 254.29,609.81 562.86,608.84 871.43,608.26 1180.00,606.52" fill="none" stroke="#d62728" stroke-width="2.2"/>
<polyline points="100.00,610.00 254.29,610.00 562.86,606.13 871.43,601.69 1180.00,586.80" fill="none" stroke="#2ca02c" stroke-width="2.2"/>
<polyline points="100.00,610.00 254.29,609.42 562.86,606.52 871.43,586.61 1180.00,572.30" fill="none" stroke="#ff7f0e" stroke-width="2.2"/>
<polyline points="100.00,610.00 254.29,609.42 562.86,600.72 871.43,577.52 1180.00,539.44" fill="none" stroke="#9467bd" stroke-width="2.2"/>
<polyline points="100.00,610.00 254.29,608.84 562.86,596.27 871.43,559.16 1180.00,497.29" fill="none" stroke="#17becf" stroke-width="2.2"/>
<polyline points="100.00,609.81 254.29,607.29 562.86,582.94 871.43,540.41 1180.00,439.49" fill="none" stroke="#d62728" stroke-width="2.2"/>
<polyline points="100.00,610.00 254.29,604.78 562.86,568.82 871.43,469.65 1180.00,317.70" fill="none" stroke="#2ca02c" stroke-width="2.2"/>
<polyline points="100.00,609.42 254.29,603.23 562.86,551.81 871.43,410.88 1180.00,157.83" fill="none" stroke="#ff7f0e" stroke-width="2.2"/>
<line x1="120" y1="668" x2="154" y2="668" stroke="#1f77b4" stroke-width="3"/>
<text x="164" y="673" font-family="Helvetica,Arial,sans-serif" font-size="15" font-weight="normal" fill="#102033">digital model</text>
<line x1="120" y1="696" x2="154" y2="696" stroke="#d62728" stroke-width="3"/>
<text x="164" y="701" font-family="Helvetica,Arial,sans-serif" font-size="15" font-weight="normal" fill="#102033">neuro model (density=0.01)</text>
<line x1="120" y1="724" x2="154" y2="724" stroke="#2ca02c" stroke-width="3"/>
<text x="164" y="729" font-family="Helvetica,Arial,sans-serif" font-size="15" font-weight="normal" fill="#102033">neuro model (density=0.02)</text>
<line x1="120" y1="752" x2="154" y2="752" stroke="#ff7f0e" stroke-width="3"/>
<text x="164" y="757" font-family="Helvetica,Arial,sans-serif" font-size="15" font-weight="normal" fill="#102033">neuro model (density=0.03)</text>
<line x1="120" y1="780" x2="154" y2="780" stroke="#9467bd" stroke-width="3"/>
<text x="164" y="785" font-family="Helvetica,Arial,sans-serif" font-size="15" font-weight="normal" fill="#102033">neuro model (density=0.04)</text>
<line x1="120" y1="808" x2="154" y2="808" stroke="#17becf" stroke-width="3"/>
<text x="164" y="813" font-family="Helvetica,Arial,sans-serif" font-size="15" font-weight="normal" fill="#102033">neuro model (density=0.05)</text>
<line x1="120" y1="836" x2="154" y2="836" stroke="#d62728" stroke-width="3"/>
<text x="164" y="841" font-family="Helvetica,Arial,sans-serif" font-size="15" font-weight="normal" fill="#102033">neuro model (density=0.06)</text>
<line x1="120" y1="864" x2="154" y2="864" stroke="#2ca02c" stroke-width="3"/>
<text x="164" y="869" font-family="Helvetica,Arial,sans-serif" font-size="15" font-weight="normal" fill="#102033">neuro model (density=0.08)</text>
<line x1="120" y1="892" x2="154" y2="892" stroke="#ff7f0e" stroke-width="3"/>
<text x="164" y="897" font-family="Helvetica,Arial,sans-serif" font-size="15" font-weight="normal" fill="#102033">neuro model (density=0.10)</text>
</svg>
