<svg xmlns="http://www.w3.org/2000/svg" width="1400" height="820" viewBox="0 0 1400 820">
<rect x="0" y="0" width="100%" height="100%" fill="#f8fbff"/>
<text x="30" y="44" font-family="Helvetica,Arial,sans-serif" font-size="30" font-weight="bold" fill="#1f2937">Neuro Tile4 Coupled Spike Channels</text>
<rect x="110" y="90" width="1180" height="560" fill="#ffffff" stroke="#cbd5e1" stroke-width="2"/>
<line x1="110" y1="90.00" x2="1290" y2="90.00" stroke="#e2e8f0" stroke-width="1"/>
<text x="30" y="95.0" font-family="Helvetica,Arial,sans-serif" font-size="13" font-weight="normal" fill="#64748b">1.80V</text>
<line x1="110" y1="146.00" x2="1290" y2="146.00" stroke="#e2e8f0" stroke-width="1"/>
<text x="30" y="151.0" font-family="Helvetica,Arial,sans-serif" font-size="13" font-weight="normal" fill="#64748b">1.62V</text>
<line x1="110" y1="202.00" x2="1290" y2="202.00" stroke="#e2e8f0" stroke-width="1"/>
<text x="30" y="207.0" font-family="Helvetica,Arial,sans-serif" font-size="13" font-weight="normal" fill="#64748b">1.44V</text>
<line x1="110" y1="258.00" x2="1290" y2="258.00" stroke="#e2e8f0" stroke-width="1"/>
<text x="30" y="263.0" font-family="Helvetica,Arial,sans-serif" font-size="13" font-weight="normal" fill="#64748b">1.26V</text>
<line x1="110" y1="314.00" x2="1290" y2="314.00" stroke="#e2e8f0" stroke-width="1"/>
<text x="30" y="319.0" font-family="Helvetica,Arial,sans-serif" font-size="13" font-weight="normal" fill="#64748b">1.08V</text>
<line x1="110" y1="370.00" x2="1290" y2="370.00" stroke="#e2e8f0" stroke-width="1"/>
<text x="30" y="375.0" font-family="Helvetica,Arial,sans-serif" font-size="13" font-weight="normal" fill="#64748b">0.90V</text>
<line x1="110" y1="426.00" x2="1290" y2="426.00" stroke="#e2e8f0" stroke-width="1"/>
<text x="30" y="431.0" font-family="Helvetica,Arial,sans-serif" font-size="13" font-weight="normal" fill="#64748b">0.72V</text>
<line x1="110" y1="482.00" x2="1290" y2="482.00" stroke="#e2e8f0" stroke-width="1"/>
<text x="30" y="487.0" font-family="Helvetica,Arial,sans-serif" font-size="13" font-weight="normal" fill="#64748b">0.54V</text>
<line x1="110" y1="538.00" x2="1290" y2="538.00" stroke="#e2e8f0" stroke-width="1"/>
<text x="30" y="543.0" font-family="Helvetica,Arial,sans-serif" font-size="13" font-weight="normal" fill="#64748b">0.36V</text>
<line x1="110" y1="594.00" x2="1290" y2="594.00" stroke="#e2e8f0" stroke-width="1"/>
<text x="30" y="599.0" font-family="Helvetica,Arial,sans-serif" font-size="13" font-weight="normal" fill="#64748b">0.18V</text>
<line x1="110" y1="650.00" x2="1290" y2="650.00" stroke="#e2e8f0" stroke-width="1"/>
<text x="30" y="655.0" font-family="Helvetica,Arial,sans-serif" font-size="13" font-weight="normal" fill="#64748b">0.00V</text>
<line x1="110.00" y1="90" x2="110.00" y2="650" stroke="#e2e8f0" stroke-width="1"/>
<text x="92.0" y="676" font-family="Helvetica,Arial,sans-serif" font-size="13" font-weight="normal" fill="#64748b">0ns</text>
<line x1="228.00" y1="90" x2="228.00" y2="650" stroke="#e2e8f0" stroke-width="1"/>
<text x="210.0" y="676" font-family="Helvetica,Arial,sans-serif" font-size="13" font-weight="normal" fill="#64748b">12ns</text>
<line x1="346.00" y1="90" x2="346.00" y2="650" stroke="#e2e8f0" stroke-width="1"/>
<text x="328.0" y="676" font-family="Helvetica,Arial,sans-serif" font-size="13" font-weight="normal" fill="#64748b">24ns</text>
<line x1="464.00" y1="90" x2="464.00" y2="650" stroke="#e2e8f0" stroke-width="1"/>
<text x="446.0" y="676" font-family="Helvetica,Arial,sans-serif" font-size="13" font-weight="normal" fill="#64748b">36ns</text>
<line x1="582.00" y1="90" x2="582.00" y2="650" stroke="#e2e8f0" stroke-width="1"/>
<text x="564.0" y="676" font-family="Helvetica,Arial,sans-serif" font-size="13" font-weight="normal" fill="#64748b">48ns</text>
<line x1="700.00" y1="90" x2="700.00" y2="650" stroke="#e2e8f0" stroke-width="1"/>
<text x="682.0" y="676" font-family="Helvetica,Arial,sans-serif" font-size="13" font-weight="normal" fill="#64748b">60ns</text>
<line x1="818.00" y1="90" x2="818.00" y2="650" stroke="#e2e8f0" stroke-width="1"/>
<text x="800.0" y="676" font-family="Helvetica,Arial,sans-serif" font-size="13" font-weight="normal" fill="#64748b">72ns</text>
<line x1="936.00" y1="90" x2="936.00" y2="650" stroke="#e2e8f0" stroke-width="1"/>
<text x="918.0" y="676" font-family="Helvetica,Arial,sans-serif" font-size="13" font-weight="normal" fill="#64748b">84ns</text>
<line x1="1054.00" y1="90" x2="1054.00" y2="650" stroke="#e2e8f0" stroke-width="1"/>
<text x="1036.0" y="676" font-family="Helvetica,Arial,sans-serif" font-size="13" font-weight="normal" fill="#64748b">96ns</text>
<line x1="1172.00" y1="90" x2="1172.00" y2="650" stroke="#e2e8f0" stroke-width="1"/>
<text x="1154.0" y="676" font-family="Helvetica,Arial,sans-serif" font-size="13" font-weight="normal" fill="#64748b">108ns</text>
<line x1="1290.00" y1="90" x2="1290.00" y2="650" stroke="#e2e8f0" stroke-width="1"/>
<text x="1272.0" y="676" font-family="Helvetica,Arial,sans-serif" font-size="13" font-weight="normal" fill="#64748b">120ns</text>
<polyline points="110.00,624.31 114.92,624.31 119.83,624.31 124.75,624.31 129.67,624.31 134.58,624.31 139.50,624.31 144.42,624.31 149.33,624.31 154.25,624.31 159.17,624.31 164.08,621.79 169.00,605.93 173.92,559.30 178.83,522.03 183.75,487.12 188.67,455.77 193.58,428.20 198.50,404.44 203.42,384.46 208.33,368.42 213.25,355.18 218.17,345.06 223.08,338.08 228.00,333.58 232.92,331.04 237.83,332.61 242.75,336.77 247.67,340.93 252.58,359.94 257.50,386.52 262.42,414.42 267.33,441.91 272.25,467.57 277.17,489.83 282.08,510.74 287.00,528.86 291.92,543.64 296.83,557.41 301.75,568.48 306.67,577.48 311.58,584.71 316.50,590.47 321.42,595.08 326.33,598.86 331.25,601.89 336.17,604.44 341.08,606.44 346.00,608.20 350.92,609.54 355.83,610.88 360.75,607.61 365.67,578.72 370.58,536.28 375.50,501.26 380.42,469.27 385.33,440.76 390.25,416.05 395.17,394.72 400.08,376.60 405.00,361.97 409.92,350.46 414.83,341.06 419.75,334.46 424.67,330.23 429.58,328.25 434.50,327.05 439.42,329.09 444.33,334.84 449.25,350.85 454.17,376.75 459.08,404.76 464.00,432.68 468.92,459.15 473.83,483.03 478.75,504.31 483.67,522.47 488.58,539.40 493.50,552.73 498.42,565.11 503.33,574.79 508.25,582.55 513.17,588.75 518.08,593.77 523.00,597.79 527.92,601.11 532.83,603.64 537.75,605.97 542.67,607.75 547.58,609.31 552.50,610.60 557.42,607.40 562.33,578.98 567.25,536.28 572.17,501.27 577.08,469.29 582.00,440.99 586.92,416.29 591.83,394.97 596.75,376.95 601.67,361.77 606.58,350.37 611.50,341.34 616.42,334.03 621.33,330.46 626.25,327.64 631.17,327.75 636.08,329.69 641.00,334.51 645.92,350.48 650.83,376.65 655.75,404.55 660.67,432.55 665.58,458.50 670.50,482.64 675.42,503.55 680.33,522.13 685.25,538.84 690.17,552.91 695.08,564.98 700.00,574.70 704.92,582.48 709.83,588.74 714.75,593.71 719.67,597.82 724.58,601.12 729.50,603.65 734.42,606.03 739.33,607.77 744.25,609.31 749.17,610.62 754.08,607.42 759.00,579.13 763.92,536.32 768.83,501.32 773.75,469.35 778.67,440.89 783.58,416.20 788.50,394.86 793.42,376.75 798.33,362.05 803.25,350.54 808.17,341.15 813.08,334.46 818.00,330.26 822.92,328.17 827.83,327.03 832.75,328.97 837.67,334.71 842.58,350.67 847.50,376.59 852.42,404.56 857.33,432.54 862.25,458.94 867.17,483.08 872.08,504.44 877.00,522.69 881.92,538.89 886.83,553.24 891.75,564.99 896.67,574.68 901.58,582.45 906.50,588.73 911.42,593.74 916.33,597.75 921.25,601.11 926.17,603.72 931.08,605.86 936.00,607.83 940.92,609.22 945.83,610.59 950.75,607.40 955.67,579.17 960.58,536.31 965.50,501.31 970.42,469.34 975.33,440.94 980.25,416.25 985.17,394.92 990.08,376.85 995.00,361.93 999.92,350.49 1004.83,341.25 1009.75,334.32 1014.67,330.37 1019.58,328.00 1024.50,327.22 1029.42,329.03 1034.33,334.73 1039.25,350.69 1044.17,376.57 1049.08,404.56 1054.00,432.24 1058.92,458.66 1063.83,482.17 1068.75,503.99 1073.67,522.48 1078.58,539.00 1083.50,553.26 1088.42,564.95 1093.33,574.64 1098.25,582.40 1103.17,588.73 1108.08,593.77 1113.00,597.74 1117.92,601.10 1122.83,603.73 1127.75,605.89 1132.67,607.79 1137.58,609.26 1142.50,610.61 1147.42,607.51 1152.33,578.37 1157.25,536.13 1162.17,501.15 1167.08,469.20 1172.00,440.84 1176.92,416.16 1181.83,394.86 1186.75,376.80 1191.67,361.89 1196.58,350.46 1201.50,341.24 1206.42,334.31 1211.33,330.38 1216.25,328.00 1221.17,327.25 1226.08,329.05 1231.00,334.78 1235.92,350.81 1240.83,376.70 1245.75,404.69 1250.67,432.35 1255.58,458.75 1260.50,482.29 1265.42,503.98 1270.33,522.53 1275.25,539.16 1280.17,553.29 1285.08,564.99 1290.00,574.67" fill="none" stroke="#1565c0" stroke-width="2.4"/>
<polyline points="110.00,623.61 114.92,623.61 119.83,623.61 124.75,623.61 129.67,623.61 134.58,623.61 139.50,623.61 144.42,623.61 149.33,623.61 154.25,623.61 159.17,623.61 164.08,623.54 169.00,622.74 173.92,616.94 178.83,581.53 183.75,539.96 188.67,502.79 193.58,468.37 198.50,436.94 203.42,408.57 208.33,383.57 213.25,361.01 218.17,341.20 223.08,324.16 228.00,309.19 232.92,295.86 237.83,284.86 242.75,275.34 247.67,265.82 252.58,258.58 257.50,252.71 262.42,247.98 267.33,244.30 272.25,241.63 277.17,240.39 282.08,239.76 287.00,240.37 291.92,243.38 296.83,247.46 301.75,259.87 306.67,291.32 311.58,326.85 316.50,363.08 321.42,397.76 326.33,429.78 331.25,458.25 336.17,483.91 341.08,505.37 346.00,524.82 350.92,540.14 355.83,555.45 360.75,566.84 365.67,573.73 370.58,561.22 375.50,516.73 380.42,485.20 385.33,456.37 390.25,430.18 395.17,406.33 400.08,384.70 405.00,365.52 409.92,348.54 414.83,333.03 419.75,319.45 424.67,307.38 429.58,296.76 434.50,286.55 439.42,278.07 444.33,270.72 449.25,264.24 454.17,258.70 459.08,254.11 464.00,250.43 468.92,247.55 473.83,245.75 478.75,244.90 483.67,245.54 488.58,246.81 493.50,251.44 498.42,258.11 503.33,285.04 508.25,319.65 513.17,355.77 518.08,390.95 523.00,423.53 527.92,453.05 532.83,478.06 537.75,501.75 542.67,520.87 547.58,538.07 552.50,552.74 557.42,564.59 562.33,571.74 567.25,559.72 572.17,515.52 577.08,484.25 582.00,455.81 586.92,429.85 591.83,406.21 596.75,384.84 601.67,365.43 606.58,348.65 611.50,333.51 616.42,319.53 621.33,307.98 626.25,296.91 631.17,287.38 636.08,278.81 641.00,271.17 645.92,264.70 650.83,259.18 655.75,254.59 660.67,250.80 665.58,248.13 670.50,246.17 675.42,245.53 680.33,245.90 685.25,247.55 690.17,251.00 695.08,258.14 700.00,284.79 704.92,319.45 709.83,355.56 714.75,390.56 719.67,423.50 724.58,452.94 729.50,477.90 734.42,502.03 739.33,520.81 744.25,537.82 749.17,552.72 754.08,564.54 759.00,571.70 763.92,559.73 768.83,515.48 773.75,484.22 778.67,455.68 783.58,429.75 788.50,406.10 793.42,384.68 798.33,365.61 803.25,348.76 808.17,333.37 813.08,319.82 818.00,307.85 822.92,297.22 827.83,287.09 832.75,278.59 837.67,271.24 842.58,264.76 847.50,259.20 852.42,254.59 857.33,250.86 862.25,248.01 867.17,246.08 872.08,245.18 877.00,245.65 881.92,247.46 886.83,250.62 891.75,258.03 896.67,284.91 901.58,319.49 906.50,355.54 911.42,390.72 916.33,423.30 921.25,453.02 926.17,478.85 931.08,500.85 936.00,521.54 940.92,537.23 945.83,552.77 950.75,564.59 955.67,571.77 960.58,559.75 965.50,515.47 970.42,484.20 975.33,455.71 980.25,429.77 985.17,406.13 990.08,384.73 995.00,365.51 999.92,348.71 1004.83,333.42 1009.75,319.70 1014.67,307.90 1019.58,297.10 1024.50,287.16 1029.42,278.58 1034.33,271.22 1039.25,264.73 1044.17,259.18 1049.08,254.58 1054.00,250.96 1058.92,248.06 1063.83,246.35 1068.75,245.29 1073.67,245.69 1078.58,247.25 1083.50,250.50 1088.42,257.93 1093.33,284.73 1098.25,319.30 1103.17,355.34 1108.08,390.59 1113.00,423.06 1117.92,452.73 1122.83,478.55 1127.75,500.89 1132.67,521.00 1137.58,537.38 1142.50,552.68 1147.42,564.54 1152.33,571.77 1157.25,559.29 1162.17,515.14 1167.08,483.92 1172.00,455.47 1176.92,429.56 1181.83,405.96 1186.75,384.59 1191.67,365.39 1196.58,348.61 1201.50,333.35 1206.42,319.64 1211.33,307.86 1216.25,297.06 1221.17,287.14 1226.08,278.57 1231.00,271.21 1235.92,264.73 1240.83,259.18 1245.75,254.59 1250.67,250.98 1255.58,248.07 1260.50,246.35 1265.42,245.35 1270.33,245.74 1275.25,247.19 1280.17,250.55 1285.08,257.98 1290.00,284.85" fill="none" stroke="#2e7d32" stroke-width="2.4"/>
<polyline points="110.00,622.90 114.92,622.90 119.83,622.90 124.75,622.90 129.67,622.90 134.58,622.90 139.50,622.90 144.42,622.90 149.33,622.90 154.25,622.90 159.17,622.90 164.08,622.90 169.00,622.87 173.92,622.62 178.83,620.60 183.75,606.17 188.67,558.25 193.58,522.77 198.50,496.98 203.42,474.73 208.33,455.88 213.25,439.31 218.17,425.19 223.08,413.38 228.00,403.20 232.92,394.32 237.83,387.11 242.75,380.96 247.67,374.82 252.58,370.20 257.50,366.37 262.42,363.13 267.33,360.36 272.25,358.00 277.17,356.11 282.08,354.36 287.00,352.90 291.92,351.77 296.83,350.72 301.75,349.92 306.67,349.38 311.58,349.14 316.50,349.26 321.42,349.80 326.33,350.79 331.25,352.36 336.17,354.43 341.08,357.55 346.00,361.44 350.92,367.51 355.83,373.59 360.75,384.65 365.67,414.96 370.58,441.48 375.50,426.62 380.42,417.41 385.33,409.18 390.25,401.62 395.17,394.69 400.08,388.39 405.00,382.84 409.92,377.97 414.83,373.55 419.75,369.75 424.67,366.43 429.58,363.55 434.50,360.80 439.42,358.58 444.33,356.69 449.25,355.05 454.17,353.62 459.08,352.40 464.00,351.35 468.92,350.44 473.83,349.67 478.75,349.00 483.67,348.46 488.58,347.96 493.50,347.60 498.42,347.27 503.33,347.11 508.25,347.17 513.17,347.53 518.08,348.22 523.00,349.33 527.92,350.89 532.83,353.29 537.75,355.94 542.67,359.95 547.58,364.89 552.50,371.31 557.42,381.20 562.33,406.30 567.25,432.66 572.17,419.43 577.08,411.46 582.00,404.19 586.92,397.41 591.83,391.15 596.75,385.44 601.67,380.25 606.58,375.79 611.50,371.80 616.42,368.15 621.33,365.19 626.25,362.38 631.17,360.00 636.08,357.90 641.00,356.05 645.92,354.51 650.83,353.18 655.75,352.04 660.67,351.03 665.58,350.20 670.50,349.45 675.42,348.84 680.33,348.31 685.25,347.85 690.17,347.48 695.08,347.18 700.00,347.03 704.92,347.10 709.83,347.46 714.75,348.19 719.67,349.25 724.58,350.83 729.50,353.24 734.42,355.80 739.33,359.87 744.25,364.95 749.17,371.26 754.08,381.13 759.00,405.98 763.92,432.43 768.83,419.10 773.75,411.19 778.67,403.94 783.58,397.20 788.50,390.96 793.42,385.25 798.33,380.18 803.25,375.72 808.17,371.67 813.08,368.16 818.00,365.09 822.92,362.41 827.83,359.87 832.75,357.80 837.67,356.04 842.58,354.50 847.50,353.16 852.42,352.02 857.33,351.02 862.25,350.17 867.17,349.43 872.08,348.80 877.00,348.29 881.92,347.84 886.83,347.46 891.75,347.18 896.67,347.03 901.58,347.11 906.50,347.46 911.42,348.17 916.33,349.29 921.25,350.84 926.17,353.03 931.08,356.15 936.00,359.59 940.92,365.44 945.83,371.36 950.75,381.26 955.67,406.40 960.58,432.73 965.50,419.32 970.42,411.37 975.33,404.11 980.25,397.34 985.17,391.08 990.08,385.37 995.00,380.23 999.92,375.77 1004.83,371.75 1009.75,368.18 1014.67,365.15 1019.58,362.42 1024.50,359.93 1029.42,357.83 1034.33,356.06 1039.25,354.51 1044.17,353.18 1049.08,352.03 1054.00,351.05 1058.92,350.18 1063.83,349.46 1068.75,348.82 1073.67,348.29 1078.58,347.84 1083.50,347.46 1088.42,347.18 1093.33,347.03 1098.25,347.11 1103.17,347.45 1108.08,348.15 1113.00,349.29 1117.92,350.84 1122.83,353.05 1127.75,356.10 1132.67,359.72 1137.58,365.22 1142.50,371.28 1147.42,381.09 1152.33,406.29 1157.25,432.14 1162.17,418.71 1167.08,410.87 1172.00,403.68 1176.92,396.97 1181.83,390.77 1186.75,385.10 1191.67,380.01 1196.58,375.58 1201.50,371.59 1206.42,368.04 1211.33,365.03 1216.25,362.32 1221.17,359.85 1226.08,357.76 1231.00,356.00 1235.92,354.46 1240.83,353.13 1245.75,351.99 1250.67,351.02 1255.58,350.16 1260.50,349.44 1265.42,348.80 1270.33,348.28 1275.25,347.82 1280.17,347.45 1285.08,347.17 1290.00,347.02" fill="none" stroke="#ef6c00" stroke-width="2.4"/>
<polyline points="110.00,633.93 114.92,633.93 119.83,633.93 124.75,633.93 129.67,633.93 134.58,633.93 139.50,633.93 144.42,633.93 149.33,633.93 154.25,633.93 159.17,633.93 164.08,633.93 169.00,633.93 173.92,633.89 178.83,633.55 183.75,630.50 188.67,600.30 193.58,179.82 198.50,121.44 203.42,112.11 208.33,107.91 213.25,105.14 218.17,103.50 223.08,102.35 228.00,101.51 232.92,100.91 237.83,100.46 242.75,100.09 247.67,99.73 252.58,99.53 257.50,99.34 262.42,99.19 267.33,99.09 272.25,98.96 277.17,98.90 282.08,98.84 287.00,98.75 291.92,98.73 296.83,98.68 301.75,98.67 306.67,98.64 311.58,98.63 316.50,98.61 321.42,98.61 326.33,98.63 331.25,98.67 336.17,98.70 341.08,98.79 346.00,98.91 350.92,99.06 355.83,99.22 360.75,99.54 365.67,100.26 370.58,101.76 375.50,102.47 380.42,102.11 385.33,101.64 390.25,101.18 395.17,100.77 400.08,100.41 405.00,100.11 409.92,99.87 414.83,99.65 419.75,99.47 424.67,99.32 429.58,99.20 434.50,99.08 439.42,98.99 444.33,98.91 449.25,98.85 454.17,98.79 459.08,98.75 464.00,98.71 468.92,98.67 473.83,98.64 478.75,98.62 483.67,98.60 488.58,98.58 493.50,98.57 498.42,98.55 503.33,98.55 508.25,98.54 513.17,98.55 518.08,98.56 523.00,98.58 527.92,98.62 532.83,98.68 537.75,98.74 542.67,98.85 547.58,98.98 552.50,99.16 557.42,99.44 562.33,100.01 567.25,101.28 572.17,101.90 577.08,101.64 582.00,101.27 586.92,100.89 591.83,100.55 596.75,100.24 601.67,99.97 606.58,99.75 611.50,99.56 616.42,99.40 621.33,99.27 626.25,99.15 631.17,99.05 636.08,98.96 641.00,98.89 645.92,98.83 650.83,98.78 655.75,98.73 660.67,98.70 665.58,98.66 670.50,98.64 675.42,98.61 680.33,98.59 685.25,98.58 690.17,98.56 695.08,98.55 700.00,98.54 704.92,98.54 709.83,98.54 714.75,98.56 719.67,98.58 724.58,98.61 729.50,98.67 734.42,98.74 739.33,98.84 744.25,98.98 749.17,99.16 754.08,99.43 759.00,100.00 763.92,101.27 768.83,101.87 773.75,101.62 778.67,101.25 783.58,100.88 788.50,100.53 793.42,100.23 798.33,99.97 803.25,99.75 808.17,99.56 813.08,99.40 818.00,99.26 822.92,99.15 827.83,99.04 832.75,98.96 837.67,98.89 842.58,98.83 847.50,98.78 852.42,98.73 857.33,98.69 862.25,98.66 867.17,98.64 872.08,98.61 877.00,98.59 881.92,98.58 886.83,98.56 891.75,98.55 896.67,98.54 901.58,98.54 906.50,98.54 911.42,98.56 916.33,98.58 921.25,98.61 926.17,98.67 931.08,98.75 936.00,98.84 940.92,99.00 945.83,99.16 950.75,99.44 955.67,100.01 960.58,101.29 965.50,101.89 970.42,101.64 975.33,101.26 980.25,100.89 985.17,100.54 990.08,100.23 995.00,99.97 999.92,99.75 1004.83,99.56 1009.75,99.40 1014.67,99.27 1019.58,99.15 1024.50,99.04 1029.42,98.96 1034.33,98.89 1039.25,98.83 1044.17,98.78 1049.08,98.73 1054.00,98.70 1058.92,98.66 1063.83,98.64 1068.75,98.61 1073.67,98.59 1078.58,98.58 1083.50,98.56 1088.42,98.55 1093.33,98.54 1098.25,98.54 1103.17,98.54 1108.08,98.56 1113.00,98.58 1117.92,98.61 1122.83,98.67 1127.75,98.75 1132.67,98.84 1137.58,98.99 1142.50,99.16 1147.42,99.43 1152.33,100.00 1157.25,101.26 1162.17,101.85 1167.08,101.60 1172.00,101.24 1176.92,100.86 1181.83,100.52 1186.75,100.22 1191.67,99.96 1196.58,99.74 1201.50,99.55 1206.42,99.39 1211.33,99.26 1216.25,99.14 1221.17,99.04 1226.08,98.96 1231.00,98.89 1235.92,98.83 1240.83,98.77 1245.75,98.73 1250.67,98.69 1255.58,98.66 1260.50,98.64 1265.42,98.61 1270.33,98.59 1275.25,98.58 1280.17,98.56 1285.08,98.55 1290.00,98.54" fill="none" stroke="#6a1b9a" stroke-width="2.4"/>
<line x1="130" y1="705" x2="160" y2="705" stroke="#1565c0" stroke-width="4"/>
<text x="170" y="710" font-family="Helvetica,Arial,sans-serif" font-size="18" font-weight="normal" fill="#1f2937">spike0</text>
<line x1="130" y1="733" x2="160" y2="733" stroke="#2e7d32" stroke-width="4"/>
<text x="170" y="738" font-family="Helvetica,Arial,sans-serif" font-size="18" font-weight="normal" fill="#1f2937">spike1</text>
<line x1="130" y1="761" x2="160" y2="761" stroke="#ef6c00" stroke-width="4"/>
<text x="170" y="766" font-family="Helvetica,Arial,sans-serif" font-size="18" font-weight="normal" fill="#1f2937">spike2</text>
<line x1="130" y1="789" x2="160" y2="789" stroke="#6a1b9a" stroke-width="4"/>
<text x="170" y="794" font-family="Helvetica,Arial,sans-serif" font-size="18" font-weight="normal" fill="#1f2937">spike3</text>
</svg>
