<svg xmlns="http://www.w3.org/2000/svg" width="1400" height="820" viewBox="0 0 1400 820">
<rect x="0" y="0" width="100%" height="100%" fill="#f8fbff"/>
<text x="30" y="44" font-family="Helvetica,Arial,sans-serif" font-size="30" font-weight="bold" fill="#1f2937">Neuro Tile4 Spike Channels</text>
<rect x="110" y="90" width="1180" height="560" fill="#ffffff" stroke="#cbd5e1" stroke-width="2"/>
<line x1="110" y1="90.00" x2="1290" y2="90.00" stroke="#e2e8f0" stroke-width="1"/>
<text x="30" y="95.0" font-family="Helvetica,Arial,sans-serif" font-size="13" font-weight="normal" fill="#64748b">1.80V</text>
<line x1="110" y1="146.00" x2="1290" y2="146.00" stroke="#e2e8f0" stroke-width="1"/>
<text x="30" y="151.0" font-family="Helvetica,Arial,sans-serif" font-size="13" font-weight="normal" fill="#64748b">1.62V</text>
<line x1="110" y1="202.00" x2="1290" y2="202.00" stroke="#e2e8f0" stroke-width="1"/>
<text x="30" y="207.0" font-family="Helvetica,Arial,sans-serif" font-size="13" font-weight="normal" fill="#64748b">1.44V</text>
<line x1="110" y1="258.00" x2="1290" y2="258.00" stroke="#e2e8f0" stroke-width="1"/>
<text x="30" y="263.0" font-family="Helvetica,Arial,sans-serif" font-size="13" font-weight="normal" fill="#64748b">1.26V</text>
<line x1="110" y1="314.00" x2="1290" y2="314.00" stroke="#e2e8f0" stroke-width="1"/>
<text x="30" y="319.0" font-family="Helvetica,Arial,sans-serif" font-size="13" font-weight="normal" fill="#64748b">1.08V</text>
<line x1="110" y1="370.00" x2="1290" y2="370.00" stroke="#e2e8f0" stroke-width="1"/>
<text x="30" y="375.0" font-family="Helvetica,Arial,sans-serif" font-size="13" font-weight="normal" fill="#64748b">0.90V</text>
<line x1="110" y1="426.00" x2="1290" y2="426.00" stroke="#e2e8f0" stroke-width="1"/>
<text x="30" y="431.0" font-family="Helvetica,Arial,sans-serif" font-size="13" font-weight="normal" fill="#64748b">0.72V</text>
<line x1="110" y1="482.00" x2="1290" y2="482.00" stroke="#e2e8f0" stroke-width="1"/>
<text x="30" y="487.0" font-family="Helvetica,Arial,sans-serif" font-size="13" font-weight="normal" fill="#64748b">0.54V</text>
<line x1="110" y1="538.00" x2="1290" y2="538.00" stroke="#e2e8f0" stroke-width="1"/>
<text x="30" y="543.0" font-family="Helvetica,Arial,sans-serif" font-size="13" font-weight="normal" fill="#64748b">0.36V</text>
<line x1="110" y1="594.00" x2="1290" y2="594.00" stroke="#e2e8f0" stroke-width="1"/>
<text x="30" y="599.0" font-family="Helvetica,Arial,sans-serif" font-size="13" font-weight="normal" fill="#64748b">0.18V</text>
<line x1="110" y1="650.00" x2="1290" y2="650.00" stroke="#e2e8f0" stroke-width="1"/>
<text x="30" y="655.0" font-family="Helvetica,Arial,sans-serif" font-size="13" font-weight="normal" fill="#64748b">0.00V</text>
<line x1="110.00" y1="90" x2="110.00" y2="650" stroke="#e2e8f0" stroke-width="1"/>
<text x="92.0" y="676" font-family="Helvetica,Arial,sans-serif" font-size="13" font-weight="normal" fill="#64748b">0ns</text>
<line x1="228.00" y1="90" x2="228.00" y2="650" stroke="#e2e8f0" stroke-width="1"/>
<text x="210.0" y="676" font-family="Helvetica,Arial,sans-serif" font-size="13" font-weight="normal" fill="#64748b">12ns</text>
<line x1="346.00" y1="90" x2="346.00" y2="650" stroke="#e2e8f0" stroke-width="1"/>
<text x="328.0" y="676" font-family="Helvetica,Arial,sans-serif" font-size="13" font-weight="normal" fill="#64748b">24ns</text>
<line x1="464.00" y1="90" x2="464.00" y2="650" stroke="#e2e8f0" stroke-width="1"/>
<text x="446.0" y="676" font-family="Helvetica,Arial,sans-serif" font-size="13" font-weight="normal" fill="#64748b">36ns</text>
<line x1="582.00" y1="90" x2="582.00" y2="650" stroke="#e2e8f0" stroke-width="1"/>
<text x="564.0" y="676" font-family="Helvetica,Arial,sans-serif" font-size="13" font-weight="normal" fill="#64748b">48ns</text>
<line x1="700.00" y1="90" x2="700.00" y2="650" stroke="#e2e8f0" stroke-width="1"/>
<text x="682.0" y="676" font-family="Helvetica,Arial,sans-serif" font-size="13" font-weight="normal" fill="#64748b">60ns</text>
<line x1="818.00" y1="90" x2="818.00" y2="650" stroke="#e2e8f0" stroke-width="1"/>
<text x="800.0" y="676" font-family="Helvetica,Arial,sans-serif" font-size="13" font-weight="normal" fill="#64748b">72ns</text>
<line x1="936.00" y1="90" x2="936.00" y2="650" stroke="#e2e8f0" stroke-width="1"/>
<text x="918.0" y="676" font-family="Helvetica,Arial,sans-serif" font-size="13" font-weight="normal" fill="#64748b">84ns</text>
<line x1="1054.00" y1="90" x2="1054.00" y2="650" stroke="#e2e8f0" stroke-width="1"/>
<text x="1036.0" y="676" font-family="Helvetica,Arial,sans-serif" font-size="13" font-weight="normal" fill="#64748b">96ns</text>
<line x1="1172.00" y1="90" x2="1172.00" y2="650" stroke="#e2e8f0" stroke-width="1"/>
<text x="1154.0" y="676" font-family="Helvetica,Arial,sans-serif" font-size="13" font-weight="normal" fill="#64748b">108ns</text>
<line x1="1290.00" y1="90" x2="1290.00" y2="650" stroke="#e2e8f0" stroke-width="1"/>
<text x="1272.0" y="676" font-family="Helvetica,Arial,sans-serif" font-size="13" font-weight="normal" fill="#64748b">120ns</text>
<polyline points="110.00,646.73 114.92,646.73 119.83,646.73 124.75,646.73 129.67,646.73 134.58,646.73 139.50,646.73 144.42,646.73 149.33,646.73 154.25,646.73 159.17,646.73 164.08,646.25 169.00,644.84 173.92,642.24 178.83,637.97 183.75,631.55 188.67,625.26 193.58,620.30 198.50,617.20 203.42,615.89 208.33,615.86 213.25,616.62 218.17,617.80 223.08,619.19 228.00,620.62 232.92,622.02 237.83,623.36 242.75,624.62 247.67,625.79 252.58,626.88 257.50,627.90 262.42,628.84 267.33,629.72 272.25,630.54 277.17,631.30 282.08,632.00 287.00,632.68 291.92,633.29 296.83,633.89 301.75,634.44 306.67,634.95 311.58,635.45 316.50,635.92 321.42,636.33 326.33,636.74 331.25,637.16 336.17,637.56 341.08,637.89 346.00,638.22 350.92,638.55 355.83,638.89 360.75,636.87 365.67,630.26 370.58,617.23 375.50,588.76 380.42,514.75 385.33,456.84 390.25,466.40 395.17,493.50 400.08,518.79 405.00,540.42 409.92,556.76 414.83,569.09 419.75,578.60 424.67,586.20 429.58,592.42 434.50,597.62 439.42,602.00 444.33,605.74 449.25,608.98 454.17,611.80 459.08,614.23 464.00,616.45 468.92,618.44 473.83,620.16 478.75,621.75 483.67,623.21 488.58,624.54 493.50,625.77 498.42,626.83 503.33,627.85 508.25,628.87 513.17,629.71 518.08,630.53 523.00,631.32 527.92,632.00 532.83,632.67 537.75,633.34 542.67,633.89 547.58,634.45 552.50,635.00 557.42,632.32 562.33,622.74 567.25,601.53 572.17,547.80 577.08,421.96 582.00,410.22 586.92,449.01 591.83,485.85 596.75,513.75 601.67,536.65 606.58,554.28 611.50,567.17 616.42,577.10 621.33,585.00 626.25,591.47 631.17,596.78 636.08,601.32 641.00,605.15 645.92,608.45 650.83,611.32 655.75,613.83 660.67,616.09 665.58,618.08 670.50,619.86 675.42,621.51 680.33,623.00 685.25,624.31 690.17,625.58 695.08,626.67 700.00,627.74 704.92,628.64 709.83,629.50 714.75,630.36 719.67,631.20 724.58,631.88 729.50,632.55 734.42,633.23 739.33,633.80 744.25,634.36 749.17,634.91 754.08,632.22 759.00,622.58 763.92,601.20 768.83,546.62 773.75,420.30 778.67,409.67 783.58,448.80 788.50,485.76 793.42,513.68 798.33,536.60 803.25,554.25 808.17,567.14 813.08,577.08 818.00,584.98 822.92,591.45 827.83,596.77 832.75,601.31 837.67,605.14 842.58,608.45 847.50,611.32 852.42,613.83 857.33,616.08 862.25,618.06 867.17,619.86 872.08,621.50 877.00,623.01 881.92,624.31 886.83,625.58 891.75,626.67 896.67,627.75 901.58,628.63 906.50,629.50 911.42,630.38 916.33,631.19 921.25,631.87 926.17,632.56 931.08,633.23 936.00,633.79 940.92,634.35 945.83,634.91 950.75,632.22 955.67,622.57 960.58,601.15 965.50,546.61 970.42,420.32 975.33,409.66 980.25,448.80 985.17,485.76 990.08,513.68 995.00,536.60 999.92,554.25 1004.83,567.14 1009.75,577.08 1014.67,584.98 1019.58,591.45 1024.50,596.77 1029.42,601.31 1034.33,605.14 1039.25,608.45 1044.17,611.32 1049.08,613.83 1054.00,616.08 1058.92,618.06 1063.83,619.86 1068.75,621.50 1073.67,623.01 1078.58,624.31 1083.50,625.58 1088.42,626.67 1093.33,627.75 1098.25,628.63 1103.17,629.50 1108.08,630.38 1113.00,631.19 1117.92,631.87 1122.83,632.56 1127.75,633.23 1132.67,633.79 1137.58,634.35 1142.50,634.91 1147.42,632.22 1152.33,622.57 1157.25,601.15 1162.17,546.61 1167.08,420.32 1172.00,409.66 1176.92,448.80 1181.83,485.76 1186.75,513.68 1191.67,536.60 1196.58,554.25 1201.50,567.14 1206.42,577.08 1211.33,584.98 1216.25,591.45 1221.17,596.77 1226.08,601.31 1231.00,605.14 1235.92,608.45 1240.83,611.32 1245.75,613.83 1250.67,616.08 1255.58,618.06 1260.50,619.86 1265.42,621.50 1270.33,623.01 1275.25,624.31 1280.17,625.58 1285.08,626.67 1290.00,627.75" fill="none" stroke="#1565c0" stroke-width="2.4"/>
<polyline points="110.00,646.73 114.92,646.73 119.83,646.73 124.75,646.73 129.67,646.73 134.58,646.73 139.50,646.73 144.42,646.73 149.33,646.73 154.25,646.73 159.17,646.73 164.08,646.73 169.00,646.73 173.92,646.73 178.83,646.73 183.75,646.26 188.67,644.84 193.58,642.30 198.50,637.99 203.42,631.57 208.33,625.28 213.25,620.32 218.17,617.24 223.08,615.93 228.00,615.90 232.92,616.65 237.83,617.84 242.75,619.22 247.67,620.64 252.58,622.04 257.50,623.37 262.42,624.63 267.33,625.80 272.25,626.90 277.17,627.91 282.08,628.84 287.00,629.73 291.92,630.53 296.83,631.30 301.75,632.01 306.67,632.65 311.58,633.30 316.50,633.89 321.42,634.41 326.33,634.92 331.25,635.44 336.17,635.94 341.08,636.35 346.00,636.75 350.92,637.16 355.83,637.57 360.75,637.92 365.67,638.26 370.58,638.58 375.50,638.89 380.42,636.91 385.33,630.26 390.25,616.95 395.17,588.96 400.08,515.41 405.00,457.67 409.92,466.70 414.83,493.63 419.75,518.86 424.67,540.48 429.58,556.80 434.50,569.05 439.42,578.58 444.33,586.21 449.25,592.47 454.17,597.65 459.08,601.93 464.00,605.71 468.92,608.98 473.83,611.72 478.75,614.19 483.67,616.40 488.58,618.39 493.50,620.19 498.42,621.70 503.33,623.14 508.25,624.57 513.17,625.72 518.08,626.84 523.00,627.91 527.92,628.81 532.83,629.70 537.75,630.57 542.67,631.29 547.58,632.01 552.50,632.72 557.42,633.35 562.33,633.93 567.25,634.48 572.17,635.00 577.08,632.31 582.00,622.80 586.92,602.11 591.83,547.89 596.75,421.76 601.67,410.64 606.58,449.14 611.50,485.92 616.42,513.82 621.33,536.71 626.25,554.33 631.17,567.08 636.08,577.12 641.00,585.03 645.92,591.47 650.83,596.78 655.75,601.22 660.67,605.10 665.58,608.38 670.50,611.22 675.42,613.82 680.33,616.09 685.25,618.05 690.17,619.92 695.08,621.48 700.00,623.00 704.92,624.25 709.83,625.43 714.75,626.61 719.67,627.76 724.58,628.65 729.50,629.54 734.42,630.44 739.33,631.18 744.25,631.89 749.17,632.61 754.08,633.24 759.00,633.84 763.92,634.39 768.83,634.92 773.75,632.21 778.67,622.64 783.58,601.75 788.50,546.73 793.42,420.13 798.33,410.10 803.25,448.94 808.17,485.82 813.08,513.75 818.00,536.66 822.92,554.30 827.83,567.06 832.75,577.10 837.67,585.01 842.58,591.45 847.50,596.77 852.42,601.22 857.33,605.09 862.25,608.35 867.17,611.24 872.08,613.80 877.00,616.11 881.92,618.04 886.83,619.92 891.75,621.47 896.67,623.02 901.58,624.23 906.50,625.43 911.42,626.63 916.33,627.73 921.25,628.64 926.17,629.56 931.08,630.43 936.00,631.16 940.92,631.88 945.83,632.61 950.75,633.24 955.67,633.83 960.58,634.39 965.50,634.92 970.42,632.21 975.33,622.64 980.25,601.73 985.17,546.71 990.08,420.11 995.00,410.09 999.92,448.94 1004.83,485.82 1009.75,513.75 1014.67,536.66 1019.58,554.30 1024.50,567.06 1029.42,577.10 1034.33,585.01 1039.25,591.45 1044.17,596.77 1049.08,601.22 1054.00,605.09 1058.92,608.35 1063.83,611.24 1068.75,613.80 1073.67,616.11 1078.58,618.04 1083.50,619.92 1088.42,621.47 1093.33,623.02 1098.25,624.23 1103.17,625.43 1108.08,626.63 1113.00,627.73 1117.92,628.64 1122.83,629.56 1127.75,630.43 1132.67,631.16 1137.58,631.88 1142.50,632.61 1147.42,633.24 1152.33,633.83 1157.25,634.39 1162.17,634.92 1167.08,632.21 1172.00,622.64 1176.92,601.73 1181.83,546.71 1186.75,420.11 1191.67,410.09 1196.58,448.94 1201.50,485.82 1206.42,513.75 1211.33,536.66 1216.25,554.30 1221.17,567.06 1226.08,577.10 1231.00,585.01 1235.92,591.45 1240.83,596.77 1245.75,601.22 1250.67,605.09 1255.58,608.35 1260.50,611.24 1265.42,613.80 1270.33,616.11 1275.25,618.04 1280.17,619.92 1285.08,621.47 1290.00,623.02" fill="none" stroke="#2e7d32" stroke-width="2.4"/>
<polyline points="110.00,646.73 114.92,646.73 119.83,646.73 124.75,646.73 129.67,646.73 134.58,646.73 139.50,646.73 144.42,646.73 149.33,646.73 154.25,646.73 159.17,646.73 164.08,646.73 169.00,646.73 173.92,646.73 178.83,646.73 183.75,646.73 188.67,646.73 193.58,646.73 198.50,646.73 203.42,646.26 208.33,644.84 213.25,642.31 218.17,637.99 223.08,631.57 228.00,625.28 232.92,620.33 237.83,617.30 242.75,615.93 247.67,615.95 252.58,616.67 257.50,617.84 262.42,619.21 267.33,620.62 272.25,622.02 277.17,623.36 282.08,624.60 287.00,625.80 291.92,626.86 296.83,627.89 301.75,628.83 306.67,629.67 311.58,630.52 316.50,631.29 321.42,631.95 326.33,632.61 331.25,633.27 336.17,633.91 341.08,634.42 346.00,634.93 350.92,635.44 355.83,635.95 360.75,636.39 365.67,636.80 370.58,637.20 375.50,637.57 380.42,637.93 385.33,638.26 390.25,638.59 395.17,638.89 400.08,636.92 405.00,630.24 409.92,616.89 414.83,588.94 419.75,515.32 424.67,457.54 429.58,466.65 434.50,493.42 439.42,518.77 444.33,540.45 449.25,556.91 454.17,569.11 459.08,578.34 464.00,586.11 468.92,592.46 473.83,597.45 478.75,601.82 483.67,605.60 488.58,608.89 493.50,611.77 498.42,614.10 503.33,616.28 508.25,618.46 513.17,620.11 518.08,621.71 523.00,623.25 527.92,624.48 532.83,625.71 537.75,626.92 542.67,627.87 547.58,628.82 552.50,629.77 557.42,630.59 562.33,631.35 567.25,632.06 572.17,632.73 577.08,633.35 582.00,633.94 586.92,634.49 591.83,635.01 596.75,632.32 601.67,622.76 606.58,602.64 611.50,548.02 616.42,421.93 621.33,410.68 626.25,449.15 631.17,485.57 636.08,513.83 641.00,536.77 645.92,554.27 650.83,567.05 655.75,576.80 660.67,584.87 665.58,591.26 670.50,596.53 675.42,601.19 680.33,605.10 685.25,608.32 690.17,611.36 695.08,613.76 700.00,616.11 704.92,617.94 709.83,619.66 714.75,621.37 719.67,623.04 724.58,624.27 729.50,625.50 734.42,626.72 739.33,627.72 744.25,628.68 749.17,629.64 754.08,630.46 759.00,631.23 763.92,631.95 768.83,632.62 773.75,633.25 778.67,633.84 783.58,634.40 788.50,634.93 793.42,632.22 798.33,622.59 803.25,602.29 808.17,546.88 813.08,420.33 818.00,410.15 822.92,448.95 827.83,485.48 832.75,513.77 837.67,536.71 842.58,554.25 847.50,567.02 852.42,576.81 857.33,584.84 862.25,591.20 867.17,596.56 872.08,601.16 877.00,605.15 881.92,608.31 886.83,611.36 891.75,613.76 896.67,616.14 901.58,617.90 906.50,619.66 911.42,621.42 916.33,622.99 921.25,624.25 926.17,625.52 931.08,626.72 936.00,627.69 940.92,628.66 945.83,629.64 950.75,630.46 955.67,631.23 960.58,631.95 965.50,632.62 970.42,633.25 975.33,633.84 980.25,634.40 985.17,634.93 990.08,632.22 995.00,622.59 999.92,602.29 1004.83,546.87 1009.75,420.30 1014.67,410.14 1019.58,448.95 1024.50,485.48 1029.42,513.76 1034.33,536.71 1039.25,554.25 1044.17,567.02 1049.08,576.81 1054.00,584.84 1058.92,591.20 1063.83,596.56 1068.75,601.16 1073.67,605.15 1078.58,608.31 1083.50,611.36 1088.42,613.76 1093.33,616.14 1098.25,617.90 1103.17,619.66 1108.08,621.42 1113.00,622.99 1117.92,624.25 1122.83,625.52 1127.75,626.72 1132.67,627.69 1137.58,628.66 1142.50,629.64 1147.42,630.46 1152.33,631.23 1157.25,631.95 1162.17,632.62 1167.08,633.25 1172.00,633.84 1176.92,634.40 1181.83,634.93 1186.75,632.22 1191.67,622.59 1196.58,602.29 1201.50,546.87 1206.42,420.30 1211.33,410.14 1216.25,448.95 1221.17,485.48 1226.08,513.76 1231.00,536.71 1235.92,554.25 1240.83,567.02 1245.75,576.81 1250.67,584.84 1255.58,591.20 1260.50,596.56 1265.42,601.16 1270.33,605.15 1275.25,608.31 1280.17,611.36 1285.08,613.76 1290.00,616.14" fill="none" stroke="#ef6c00" stroke-width="2.4"/>
<polyline points="110.00,646.73 114.92,646.73 119.83,646.73 124.75,646.73 129.67,646.73 134.58,646.73 139.50,646.73 144.42,646.73 149.33,646.73 154.25,646.73 159.17,646.73 164.08,646.73 169.00,646.73 173.92,646.73 178.83,646.73 183.75,646.73 188.67,646.73 193.58,646.73 198.50,646.73 203.42,646.73 208.33,646.73 213.25,646.73 218.17,646.73 223.08,646.26 228.00,644.84 232.92,642.31 237.83,637.89 242.75,631.58 247.67,625.37 252.58,620.44 257.50,617.38 262.42,616.07 267.33,616.00 272.25,616.68 277.17,617.88 282.08,619.23 287.00,620.66 291.92,622.03 296.83,623.37 301.75,624.62 306.67,625.75 311.58,626.88 316.50,627.91 321.42,628.77 326.33,629.64 331.25,630.51 336.17,631.34 341.08,631.99 346.00,632.64 350.92,633.29 355.83,633.94 360.75,634.49 365.67,635.01 370.58,635.50 375.50,635.97 380.42,636.40 385.33,636.82 390.25,637.21 395.17,637.59 400.08,637.94 405.00,638.28 409.92,638.60 414.83,638.90 419.75,636.93 424.67,630.26 429.58,616.94 434.50,588.00 439.42,516.51 444.33,457.92 449.25,466.10 454.17,493.42 459.08,518.39 464.00,539.97 468.92,557.09 473.83,568.53 478.75,578.12 483.67,585.98 488.58,592.36 493.50,597.51 498.42,601.62 503.33,605.44 508.25,609.26 513.17,611.73 518.08,614.08 523.00,616.35 527.92,618.29 532.83,620.22 537.75,622.08 542.67,623.27 547.58,624.46 552.50,625.64 557.42,626.96 562.33,627.98 567.25,628.93 572.17,629.81 577.08,630.62 582.00,631.38 586.92,632.09 591.83,632.75 596.75,633.38 601.67,633.96 606.58,634.51 611.50,635.03 616.42,632.34 621.33,622.79 626.25,602.73 631.17,542.49 636.08,423.77 641.00,410.68 645.92,449.39 650.83,485.64 655.75,513.19 660.67,536.20 665.58,553.61 670.50,566.38 675.42,576.99 680.33,584.92 685.25,591.23 690.17,597.11 695.08,601.20 700.00,605.10 704.92,608.10 709.83,610.89 714.75,613.68 719.67,616.35 724.58,618.07 729.50,619.80 734.42,621.52 739.33,622.97 744.25,624.39 749.17,625.80 754.08,626.80 759.00,627.83 763.92,628.79 768.83,629.68 773.75,630.50 778.67,631.27 783.58,631.98 788.50,632.65 793.42,633.28 798.33,633.87 803.25,634.43 808.17,634.95 813.08,632.25 818.00,622.64 822.92,602.42 827.83,541.43 832.75,422.25 837.67,410.32 842.58,449.23 847.50,485.55 852.42,513.21 857.33,536.13 862.25,553.39 867.17,566.52 872.08,576.88 877.00,585.02 881.92,591.23 886.83,597.14 891.75,601.16 896.67,605.15 901.58,608.03 906.50,610.91 911.42,613.79 916.33,616.26 921.25,618.03 926.17,619.81 931.08,621.51 936.00,622.94 940.92,624.37 945.83,625.81 950.75,626.80 955.67,627.83 960.58,628.79 965.50,629.67 970.42,630.50 975.33,631.26 980.25,631.98 985.17,632.65 990.08,633.28 995.00,633.87 999.92,634.43 1004.83,634.95 1009.75,632.25 1014.67,622.64 1019.58,602.42 1024.50,541.42 1029.42,422.22 1034.33,410.32 1039.25,449.22 1044.17,485.55 1049.08,513.21 1054.00,536.13 1058.92,553.39 1063.83,566.52 1068.75,576.88 1073.67,585.02 1078.58,591.23 1083.50,597.14 1088.42,601.16 1093.33,605.15 1098.25,608.03 1103.17,610.91 1108.08,613.79 1113.00,616.26 1117.92,618.03 1122.83,619.81 1127.75,621.51 1132.67,622.94 1137.58,624.37 1142.50,625.81 1147.42,626.80 1152.33,627.83 1157.25,628.79 1162.17,629.67 1167.08,630.50 1172.00,631.26 1176.92,631.98 1181.83,632.65 1186.75,633.28 1191.67,633.87 1196.58,634.43 1201.50,634.95 1206.42,632.25 1211.33,622.64 1216.25,602.42 1221.17,541.42 1226.08,422.22 1231.00,410.32 1235.92,449.22 1240.83,485.55 1245.75,513.21 1250.67,536.13 1255.58,553.39 1260.50,566.52 1265.42,576.88 1270.33,585.02 1275.25,591.23 1280.17,597.14 1285.08,601.16 1290.00,605.15" fill="none" stroke="#6a1b9a" stroke-width="2.4"/>
<line x1="130" y1="705" x2="160" y2="705" stroke="#1565c0" stroke-width="4"/>
<text x="170" y="710" font-family="Helvetica,Arial,sans-serif" font-size="18" font-weight="normal" fill="#1f2937">spike0</text>
<line x1="130" y1="733" x2="160" y2="733" stroke="#2e7d32" stroke-width="4"/>
<text x="170" y="738" font-family="Helvetica,Arial,sans-serif" font-size="18" font-weight="normal" fill="#1f2937">spike1</text>
<line x1="130" y1="761" x2="160" y2="761" stroke="#ef6c00" stroke-width="4"/>
<text x="170" y="766" font-family="Helvetica,Arial,sans-serif" font-size="18" font-weight="normal" fill="#1f2937">spike2</text>
<line x1="130" y1="789" x2="160" y2="789" stroke="#6a1b9a" stroke-width="4"/>
<text x="170" y="794" font-family="Helvetica,Arial,sans-serif" font-size="18" font-weight="normal" fill="#1f2937">spike3</text>
</svg>
