<svg xmlns="http://www.w3.org/2000/svg" width="1400" height="820" viewBox="0 0 1400 820">
<rect x="0" y="0" width="100%" height="100%" fill="#f8fbff"/>
<text x="30" y="44" font-family="Helvetica,Arial,sans-serif" font-size="30" font-weight="bold" fill="#1f2937">Neuron Tile Waveforms (syn_post/mem/spike)</text>
<rect x="110" y="90" width="1180" height="560" fill="#ffffff" stroke="#cbd5e1" stroke-width="2"/>
<line x1="110" y1="90.00" x2="1290" y2="90.00" stroke="#e2e8f0" stroke-width="1"/>
<text x="30" y="95.0" font-family="Helvetica,Arial,sans-serif" font-size="13" font-weight="normal" fill="#64748b">1.80V</text>
<line x1="110" y1="146.00" x2="1290" y2="146.00" stroke="#e2e8f0" stroke-width="1"/>
<text x="30" y="151.0" font-family="Helvetica,Arial,sans-serif" font-size="13" font-weight="normal" fill="#64748b">1.62V</text>
<line x1="110" y1="202.00" x2="1290" y2="202.00" stroke="#e2e8f0" stroke-width="1"/>
<text x="30" y="207.0" font-family="Helvetica,Arial,sans-serif" font-size="13" font-weight="normal" fill="#64748b">1.44V</text>
<line x1="110" y1="258.00" x2="1290" y2="258.00" stroke="#e2e8f0" stroke-width="1"/>
<text x="30" y="263.0" font-family="Helvetica,Arial,sans-serif" font-size="13" font-weight="normal" fill="#64748b">1.26V</text>
<line x1="110" y1="314.00" x2="1290" y2="314.00" stroke="#e2e8f0" stroke-width="1"/>
<text x="30" y="319.0" font-family="Helvetica,Arial,sans-serif" font-size="13" font-weight="normal" fill="#64748b">1.08V</text>
<line x1="110" y1="370.00" x2="1290" y2="370.00" stroke="#e2e8f0" stroke-width="1"/>
<text x="30" y="375.0" font-family="Helvetica,Arial,sans-serif" font-size="13" font-weight="normal" fill="#64748b">0.90V</text>
<line x1="110" y1="426.00" x2="1290" y2="426.00" stroke="#e2e8f0" stroke-width="1"/>
<text x="30" y="431.0" font-family="Helvetica,Arial,sans-serif" font-size="13" font-weight="normal" fill="#64748b">0.72V</text>
<line x1="110" y1="482.00" x2="1290" y2="482.00" stroke="#e2e8f0" stroke-width="1"/>
<text x="30" y="487.0" font-family="Helvetica,Arial,sans-serif" font-size="13" font-weight="normal" fill="#64748b">0.54V</text>
<line x1="110" y1="538.00" x2="1290" y2="538.00" stroke="#e2e8f0" stroke-width="1"/>
<text x="30" y="543.0" font-family="Helvetica,Arial,sans-serif" font-size="13" font-weight="normal" fill="#64748b">0.36V</text>
<line x1="110" y1="594.00" x2="1290" y2="594.00" stroke="#e2e8f0" stroke-width="1"/>
<text x="30" y="599.0" font-family="Helvetica,Arial,sans-serif" font-size="13" font-weight="normal" fill="#64748b">0.18V</text>
<line x1="110" y1="650.00" x2="1290" y2="650.00" stroke="#e2e8f0" stroke-width="1"/>
<text x="30" y="655.0" font-family="Helvetica,Arial,sans-serif" font-size="13" font-weight="normal" fill="#64748b">0.00V</text>
<line x1="110.00" y1="90" x2="110.00" y2="650" stroke="#e2e8f0" stroke-width="1"/>
<text x="92.0" y="676" font-family="Helvetica,Arial,sans-serif" font-size="13" font-weight="normal" fill="#64748b">0ns</text>
<line x1="228.00" y1="90" x2="228.00" y2="650" stroke="#e2e8f0" stroke-width="1"/>
<text x="210.0" y="676" font-family="Helvetica,Arial,sans-serif" font-size="13" font-weight="normal" fill="#64748b">25ns</text>
<line x1="346.00" y1="90" x2="346.00" y2="650" stroke="#e2e8f0" stroke-width="1"/>
<text x="328.0" y="676" font-family="Helvetica,Arial,sans-serif" font-size="13" font-weight="normal" fill="#64748b">50ns</text>
<line x1="464.00" y1="90" x2="464.00" y2="650" stroke="#e2e8f0" stroke-width="1"/>
<text x="446.0" y="676" font-family="Helvetica,Arial,sans-serif" font-size="13" font-weight="normal" fill="#64748b">75ns</text>
<line x1="582.00" y1="90" x2="582.00" y2="650" stroke="#e2e8f0" stroke-width="1"/>
<text x="564.0" y="676" font-family="Helvetica,Arial,sans-serif" font-size="13" font-weight="normal" fill="#64748b">100ns</text>
<line x1="700.00" y1="90" x2="700.00" y2="650" stroke="#e2e8f0" stroke-width="1"/>
<text x="682.0" y="676" font-family="Helvetica,Arial,sans-serif" font-size="13" font-weight="normal" fill="#64748b">125ns</text>
<line x1="818.00" y1="90" x2="818.00" y2="650" stroke="#e2e8f0" stroke-width="1"/>
<text x="800.0" y="676" font-family="Helvetica,Arial,sans-serif" font-size="13" font-weight="normal" fill="#64748b">150ns</text>
<line x1="936.00" y1="90" x2="936.00" y2="650" stroke="#e2e8f0" stroke-width="1"/>
<text x="918.0" y="676" font-family="Helvetica,Arial,sans-serif" font-size="13" font-weight="normal" fill="#64748b">175ns</text>
<line x1="1054.00" y1="90" x2="1054.00" y2="650" stroke="#e2e8f0" stroke-width="1"/>
<text x="1036.0" y="676" font-family="Helvetica,Arial,sans-serif" font-size="13" font-weight="normal" fill="#64748b">200ns</text>
<line x1="1172.00" y1="90" x2="1172.00" y2="650" stroke="#e2e8f0" stroke-width="1"/>
<text x="1154.0" y="676" font-family="Helvetica,Arial,sans-serif" font-size="13" font-weight="normal" fill="#64748b">225ns</text>
<line x1="1290.00" y1="90" x2="1290.00" y2="650" stroke="#e2e8f0" stroke-width="1"/>
<text x="1272.0" y="676" font-family="Helvetica,Arial,sans-serif" font-size="13" font-weight="normal" fill="#64748b">250ns</text>
<polyline points="110.00,617.12 112.36,617.12 114.73,617.12 117.09,617.12 119.46,617.12 121.82,617.12 124.19,617.12 126.55,617.12 128.92,617.12 131.28,617.12 133.65,617.12 136.01,357.99 138.38,292.64 140.74,271.09 143.11,259.49 145.47,314.99 147.84,364.01 150.20,397.19 152.57,419.05 154.93,433.74 157.29,444.01 159.66,451.66 162.02,456.88 164.39,461.31 166.75,464.97 169.12,468.13 171.48,470.93 173.85,473.67 176.21,476.04 178.58,478.42 180.94,480.79 183.31,482.93 185.67,485.07 188.04,487.21 190.40,489.36 192.77,491.39 195.13,493.35 197.49,495.31 199.86,497.27 202.22,499.23 204.59,501.19 206.95,503.15 209.32,504.93 211.68,506.70 214.05,508.47 216.41,510.25 218.78,512.02 221.14,513.79 223.51,515.57 225.87,517.34 228.24,519.11 230.60,324.09 232.97,268.31 235.33,248.72 237.70,238.52 240.06,283.93 242.42,326.69 244.79,356.58 247.15,378.22 249.52,394.14 251.88,406.43 254.25,415.90 256.61,423.15 258.98,429.43 261.34,434.75 263.71,439.04 266.07,443.14 268.44,446.62 270.80,450.11 273.17,453.12 275.53,456.06 277.90,459.00 280.26,461.67 282.63,464.25 284.99,466.83 287.35,469.40 289.72,471.72 292.08,474.04 294.45,476.36 296.81,478.68 299.18,480.99 301.54,483.11 303.91,485.22 306.27,487.34 308.64,489.46 311.00,491.57 313.37,493.53 315.73,495.50 318.10,497.46 320.46,499.42 322.83,501.38 325.19,318.95 327.56,263.67 329.92,244.49 332.28,234.85 334.65,279.37 337.01,322.13 339.38,352.72 341.74,375.36 344.11,392.00 346.47,404.49 348.84,414.55 351.20,422.25 353.57,428.31 355.93,433.90 358.30,438.41 360.66,442.38 363.03,446.07 365.39,449.49 367.76,452.57 370.12,455.64 372.48,458.48 374.85,461.15 377.21,463.83 379.58,466.47 381.94,468.86 384.31,471.26 386.67,473.65 389.04,476.05 391.40,478.33 393.77,480.49 396.13,482.66 398.50,484.82 400.86,486.99 403.23,489.15 405.59,491.16 407.96,493.14 410.32,495.12 412.69,497.10 415.05,499.08 417.41,501.06 419.78,318.76 422.14,263.43 424.51,244.31 426.87,234.80 429.24,279.28 431.60,322.04 433.97,352.67 436.33,375.23 438.70,391.97 441.06,404.48 443.43,414.48 445.79,422.16 448.16,428.50 450.52,433.66 452.89,438.39 455.25,442.42 457.62,446.00 459.98,449.41 462.34,452.62 464.71,455.57 467.07,458.48 469.44,461.13 471.80,463.78 474.17,466.42 476.53,468.86 478.90,471.27 481.26,473.68 483.63,476.02 485.99,478.23 488.36,480.45 490.72,482.67 493.09,484.88 495.45,487.00 497.82,489.07 500.18,491.13 502.55,493.19 504.91,495.16 507.27,497.11 509.64,499.06 512.00,501.01 514.37,318.37 516.73,263.86 519.10,244.65 521.46,234.80 523.83,279.28 526.19,321.95 528.56,352.69 530.92,375.06 533.29,391.76 535.65,404.60 538.02,414.10 540.38,422.19 542.75,428.54 545.11,433.75 547.47,438.38 549.84,442.52 552.20,445.99 554.57,449.46 556.93,452.65 559.30,455.62 561.66,458.50 564.03,461.15 566.39,463.79 568.76,466.43 571.12,468.91 573.49,471.30 575.85,473.69 578.22,476.08 580.58,478.28 582.95,480.47 585.31,482.66 587.68,484.86 590.04,487.05 592.40,489.12 594.77,491.16 597.13,493.20 599.50,495.20 601.86,497.15 604.23,499.09 606.59,501.04 608.96,318.30 611.32,263.85 613.69,244.65 616.05,234.81 618.42,279.06 620.78,321.83 623.15,352.56 625.51,375.21 627.88,391.90 630.24,404.35 632.61,414.47 634.97,422.15 637.33,428.34 639.70,433.79 642.06,438.38 644.43,442.32 646.79,446.17 649.16,449.44 651.52,452.68 653.89,455.54 656.25,458.39 658.62,461.25 660.98,463.83 663.35,466.37 665.71,468.92 668.08,471.31 670.44,473.62 672.81,475.94 675.17,478.26 677.54,480.57 679.90,482.72 682.26,484.83 684.63,486.95 686.99,489.06 689.36,491.17 691.72,493.19 694.09,495.15 696.45,497.11 698.82,499.07 701.18,501.04 703.55,318.83 705.91,263.64 708.28,244.46 710.64,234.83 713.01,279.28 715.37,322.04 717.74,352.70 720.10,375.21 722.46,391.94 724.83,404.57 727.19,414.43 729.56,422.23 731.92,428.52 734.29,433.70 736.65,438.33 739.02,442.42 741.38,446.00 743.75,449.49 746.11,452.58 748.48,455.62 750.84,458.40 753.21,461.17 755.57,463.83 757.94,466.35 760.30,468.88 762.67,471.30 765.03,473.63 767.39,475.97 769.76,478.30 772.12,480.50 774.49,482.67 776.85,484.83 779.22,486.99 781.58,489.08 783.95,491.12 786.31,493.16 788.68,495.17 791.04,497.11 793.41,499.05 795.77,501.00 798.14,318.18 800.50,263.76 802.87,244.61 805.23,234.79 807.60,279.05 809.96,321.84 812.32,352.62 814.69,375.11 817.05,391.93 819.42,404.27 821.78,414.35 824.15,421.96 826.51,428.60 828.88,433.83 831.24,438.25 833.61,442.49 835.97,446.04 838.34,449.53 840.70,452.55 843.07,455.55 845.43,458.52 847.80,461.16 850.16,463.80 852.53,466.44 854.89,468.86 857.25,471.24 859.62,473.63 861.98,476.02 864.35,478.31 866.71,480.48 869.08,482.65 871.44,484.82 873.81,486.99 876.17,489.13 878.54,491.11 880.90,493.10 883.27,495.08 885.63,497.07 888.00,499.05 890.36,501.04 892.73,318.71 895.09,263.35 897.45,244.31 899.82,234.80 902.18,279.27 904.55,322.03 906.91,352.69 909.28,375.20 911.64,391.94 914.01,404.56 916.37,414.43 918.74,422.23 921.10,428.52 923.47,433.70 925.83,438.33 928.20,442.43 930.56,446.00 932.93,449.49 935.29,452.58 937.66,455.62 940.02,458.40 942.38,461.17 944.75,463.83 947.11,466.35 949.48,468.88 951.84,471.30 954.21,473.63 956.57,475.97 958.94,478.30 961.30,480.50 963.67,482.67 966.03,484.83 968.40,486.99 970.76,489.08 973.13,491.12 975.49,493.16 977.86,495.17 980.22,497.11 982.59,499.05 984.95,501.00 987.31,318.19 989.68,263.75 992.04,244.60 994.41,234.79 996.77,279.05 999.14,321.84 1001.50,352.62 1003.87,375.11 1006.23,391.93 1008.60,404.27 1010.96,414.35 1013.33,421.96 1015.69,428.60 1018.06,433.83 1020.42,438.25 1022.79,442.50 1025.15,446.04 1027.52,449.53 1029.88,452.55 1032.24,455.55 1034.61,458.52 1036.97,461.16 1039.34,463.80 1041.70,466.44 1044.07,468.86 1046.43,471.24 1048.80,473.63 1051.16,476.02 1053.53,478.31 1055.89,480.48 1058.26,482.65 1060.62,484.82 1062.99,486.99 1065.35,489.12 1067.72,491.11 1070.08,493.09 1072.44,495.08 1074.81,497.07 1077.17,499.05 1079.54,501.04 1081.90,318.71 1084.27,263.35 1086.63,244.31 1089.00,234.80 1091.36,279.27 1093.73,322.03 1096.09,352.69 1098.46,375.20 1100.82,391.93 1103.19,404.57 1105.55,414.43 1107.92,422.23 1110.28,428.52 1112.65,433.70 1115.01,438.33 1117.37,442.42 1119.74,446.00 1122.10,449.49 1124.47,452.58 1126.83,455.62 1129.20,458.40 1131.56,461.17 1133.93,463.83 1136.29,466.35 1138.66,468.88 1141.02,471.30 1143.39,473.63 1145.75,475.97 1148.12,478.30 1150.48,480.50 1152.85,482.67 1155.21,484.83 1157.58,486.99 1159.94,489.08 1162.30,491.12 1164.67,493.16 1167.03,495.17 1169.40,497.11 1171.76,499.05 1174.13,501.00 1176.49,318.18 1178.86,263.76 1181.22,244.60 1183.59,234.79 1185.95,279.05 1188.32,321.84 1190.68,352.62 1193.05,375.11 1195.41,391.93 1197.78,404.27 1200.14,414.35 1202.51,421.96 1204.87,428.60 1207.23,433.83 1209.60,438.25 1211.96,442.50 1214.33,446.04 1216.69,449.53 1219.06,452.55 1221.42,455.55 1223.79,458.52 1226.15,461.16 1228.52,463.80 1230.88,466.44 1233.25,468.86 1235.61,471.24 1237.98,473.63 1240.34,476.02 1242.71,478.31 1245.07,480.48 1247.43,482.65 1249.80,484.82 1252.16,486.99 1254.53,489.13 1256.89,491.11 1259.26,493.10 1261.62,495.08 1263.99,497.07 1266.35,499.05 1268.72,501.04 1271.08,318.71 1273.45,263.35 1275.81,244.31 1278.18,234.80 1280.54,279.27 1282.91,322.03 1285.27,352.69 1287.64,375.20 1290.00,391.93" fill="none" stroke="#1565c0" stroke-width="2.4"/>
<polyline points="110.00,620.62 112.36,620.62 114.73,620.62 117.09,620.62 119.46,620.62 121.82,620.62 124.19,620.62 126.55,620.62 128.92,620.62 131.28,620.62 133.65,620.62 136.01,603.19 138.38,570.32 140.74,537.00 143.11,505.74 145.47,480.27 147.84,465.54 150.20,456.83 152.57,452.40 154.93,450.66 157.29,450.57 159.66,451.42 162.02,453.09 164.39,455.01 166.75,457.15 169.12,459.40 171.48,461.72 173.85,464.05 176.21,466.37 178.58,468.69 180.94,471.01 183.31,473.24 185.67,475.46 188.04,477.69 190.40,479.91 192.77,482.04 195.13,484.11 197.49,486.18 199.86,488.25 202.22,490.32 204.59,492.39 206.95,494.45 209.32,496.34 211.68,498.22 214.05,500.10 216.41,501.99 218.78,503.87 221.14,505.75 223.51,507.63 225.87,509.51 228.24,511.39 230.60,500.40 232.97,476.59 235.33,451.96 237.70,429.04 240.06,412.33 242.42,407.01 244.79,407.85 247.15,410.27 249.52,413.10 251.88,416.06 254.25,419.08 256.61,422.16 258.98,425.26 261.34,428.36 263.71,431.42 266.07,434.45 268.44,437.40 270.80,440.35 273.17,443.15 275.53,445.94 277.90,448.72 280.26,451.36 282.63,453.96 284.99,456.55 287.35,459.14 289.72,461.54 292.08,463.94 294.45,466.35 296.81,468.75 299.18,471.14 301.54,473.36 303.91,475.58 306.27,477.80 308.64,480.02 311.00,482.23 313.37,484.30 315.73,486.37 318.10,488.44 320.46,490.51 322.83,492.59 325.19,482.65 327.56,460.52 329.92,437.50 332.28,416.84 334.65,404.59 337.01,404.15 339.38,406.71 341.74,409.55 344.11,412.50 346.47,415.50 348.84,418.54 351.20,421.62 353.57,424.72 355.93,427.82 358.30,430.90 360.66,433.92 363.03,436.90 365.39,439.83 367.76,442.66 370.12,445.50 372.48,448.22 374.85,450.88 377.21,453.53 379.58,456.16 381.94,458.62 384.31,461.08 386.67,463.54 389.04,466.00 391.40,468.37 393.77,470.63 396.13,472.90 398.50,475.16 400.86,477.42 403.23,479.69 405.59,481.80 407.96,483.89 410.32,485.98 412.69,488.07 415.05,490.15 417.41,492.24 419.78,482.33 422.14,460.22 424.51,437.21 426.87,416.66 429.24,404.50 431.60,404.12 433.97,406.69 436.33,409.55 438.70,412.49 441.06,415.49 443.43,418.52 445.79,421.60 448.16,424.70 450.52,427.79 452.89,430.87 455.25,433.91 457.62,436.86 459.98,439.79 462.34,442.66 464.71,445.45 467.07,448.22 469.44,450.85 471.80,453.49 474.17,456.13 476.53,458.62 478.90,461.09 481.26,463.56 483.63,465.97 485.99,468.28 488.36,470.59 490.72,472.90 493.09,475.21 495.45,477.43 497.82,479.60 500.18,481.77 502.55,483.93 504.91,486.01 507.27,488.07 509.64,490.13 512.00,492.19 514.37,482.38 516.73,460.25 519.10,437.33 521.46,416.58 523.83,404.51 526.19,404.14 528.56,406.69 530.92,409.55 533.29,412.49 535.65,415.50 538.02,418.54 540.38,421.61 542.75,424.71 545.11,427.82 547.47,430.89 549.84,433.94 552.20,436.88 554.57,439.82 556.93,442.69 559.30,445.48 561.66,448.24 564.03,450.87 566.39,453.51 568.76,456.14 571.12,458.66 573.49,461.12 575.85,463.58 578.22,466.04 580.58,468.32 582.95,470.61 585.31,472.90 587.68,475.19 590.04,477.48 592.40,479.66 594.77,481.80 597.13,483.95 599.50,486.06 601.86,488.11 604.23,490.17 606.59,492.22 608.96,482.42 611.32,460.28 613.69,437.36 616.05,416.59 618.42,404.50 620.78,404.12 623.15,406.68 625.51,409.53 627.88,412.48 630.24,415.49 632.61,418.52 634.97,421.60 637.33,424.70 639.70,427.80 642.06,430.88 644.43,433.90 646.79,436.90 649.16,439.81 651.52,442.69 653.89,445.44 656.25,448.18 658.62,450.93 660.98,453.52 663.35,456.09 665.71,458.67 668.08,461.12 670.44,463.52 672.81,465.91 675.17,468.31 677.54,470.70 679.90,472.95 682.26,475.17 684.63,477.38 686.99,479.60 689.36,481.81 691.72,483.93 694.09,486.01 696.45,488.08 698.82,490.15 701.18,492.22 703.55,482.31 705.91,460.20 708.28,437.23 710.64,416.65 713.01,404.50 715.37,404.12 717.74,406.69 720.10,409.55 722.46,412.49 724.83,415.49 727.19,418.52 729.56,421.59 731.92,424.70 734.29,427.80 736.65,430.87 739.02,433.90 741.38,436.87 743.75,439.81 746.11,442.65 748.48,445.47 750.84,448.18 753.21,450.88 755.57,453.52 757.94,456.08 760.30,458.63 762.67,461.11 765.03,463.52 767.39,465.93 769.76,468.34 772.12,470.64 774.49,472.90 776.85,475.16 779.22,477.43 781.58,479.62 783.95,481.76 786.31,483.90 788.68,486.02 791.04,488.07 793.41,490.12 795.77,492.18 798.14,482.39 800.50,460.24 802.87,437.32 805.23,416.54 807.60,404.48 809.96,404.11 812.32,406.68 814.69,409.53 817.05,412.48 819.42,415.49 821.78,418.52 824.15,421.60 826.51,424.70 828.88,427.80 831.24,430.87 833.61,433.92 835.97,436.88 838.34,439.83 840.70,442.64 843.07,445.44 845.43,448.24 847.80,450.87 850.16,453.50 852.53,456.14 854.89,458.62 857.25,461.07 859.62,463.52 861.98,465.98 864.35,468.35 866.71,470.62 869.08,472.88 871.44,475.15 873.81,477.42 876.17,479.66 878.54,481.75 880.90,483.85 883.27,485.94 885.63,488.03 888.00,490.12 890.36,492.22 892.73,482.30 895.09,460.20 897.45,437.20 899.82,416.65 902.18,404.50 904.55,404.12 906.91,406.69 909.28,409.55 911.64,412.49 914.01,415.49 916.37,418.52 918.74,421.59 921.10,424.70 923.47,427.79 925.83,430.87 928.20,433.90 930.56,436.87 932.93,439.81 935.29,442.65 937.66,445.47 940.02,448.18 942.38,450.88 944.75,453.52 947.11,456.08 949.48,458.63 951.84,461.11 954.21,463.52 956.57,465.93 958.94,468.34 961.30,470.64 963.67,472.90 966.03,475.16 968.40,477.42 970.76,479.62 973.13,481.76 975.49,483.90 977.86,486.02 980.22,488.07 982.59,490.12 984.95,492.18 987.31,482.39 989.68,460.24 992.04,437.32 994.41,416.54 996.77,404.48 999.14,404.11 1001.50,406.68 1003.87,409.53 1006.23,412.48 1008.60,415.49 1010.96,418.52 1013.33,421.60 1015.69,424.70 1018.06,427.80 1020.42,430.87 1022.79,433.92 1025.15,436.88 1027.52,439.83 1029.88,442.64 1032.24,445.44 1034.61,448.24 1036.97,450.87 1039.34,453.51 1041.70,456.14 1044.07,458.61 1046.43,461.07 1048.80,463.52 1051.16,465.98 1053.53,468.35 1055.89,470.62 1058.26,472.88 1060.62,475.15 1062.99,477.42 1065.35,479.66 1067.72,481.75 1070.08,483.84 1072.44,485.94 1074.81,488.03 1077.17,490.12 1079.54,492.22 1081.90,482.30 1084.27,460.20 1086.63,437.20 1089.00,416.65 1091.36,404.50 1093.73,404.12 1096.09,406.69 1098.46,409.55 1100.82,412.49 1103.19,415.49 1105.55,418.52 1107.92,421.59 1110.28,424.70 1112.65,427.79 1115.01,430.87 1117.37,433.90 1119.74,436.87 1122.10,439.81 1124.47,442.65 1126.83,445.47 1129.20,448.18 1131.56,450.88 1133.93,453.52 1136.29,456.08 1138.66,458.63 1141.02,461.11 1143.39,463.52 1145.75,465.93 1148.12,468.34 1150.48,470.64 1152.85,472.90 1155.21,475.16 1157.58,477.42 1159.94,479.62 1162.30,481.76 1164.67,483.90 1167.03,486.02 1169.40,488.07 1171.76,490.12 1174.13,492.18 1176.49,482.39 1178.86,460.24 1181.22,437.32 1183.59,416.54 1185.95,404.48 1188.32,404.11 1190.68,406.68 1193.05,409.53 1195.41,412.48 1197.78,415.49 1200.14,418.52 1202.51,421.60 1204.87,424.70 1207.23,427.80 1209.60,430.87 1211.96,433.92 1214.33,436.88 1216.69,439.83 1219.06,442.64 1221.42,445.44 1223.79,448.24 1226.15,450.87 1228.52,453.50 1230.88,456.14 1233.25,458.62 1235.61,461.07 1237.98,463.52 1240.34,465.98 1242.71,468.35 1245.07,470.62 1247.43,472.88 1249.80,475.15 1252.16,477.42 1254.53,479.66 1256.89,481.75 1259.26,483.84 1261.62,485.94 1263.99,488.03 1266.35,490.12 1268.72,492.22 1271.08,482.30 1273.45,460.20 1275.81,437.20 1278.18,416.65 1280.54,404.50 1282.91,404.12 1285.27,406.69 1287.64,409.55 1290.00,412.49" fill="none" stroke="#2e7d32" stroke-width="2.4"/>
<polyline points="110.00,646.73 112.36,646.73 114.73,646.73 117.09,646.73 119.46,646.73 121.82,646.73 124.19,646.73 126.55,646.73 128.92,646.73 131.28,646.73 133.65,646.73 136.01,646.25 138.38,644.84 140.74,642.24 143.11,637.91 145.47,631.57 147.84,625.36 150.20,620.45 152.57,617.38 154.93,616.04 157.29,615.95 159.66,616.61 162.02,617.86 164.39,619.20 166.75,620.63 169.12,622.01 171.48,623.34 173.85,624.63 176.21,625.74 178.58,626.84 180.94,627.94 183.31,628.78 185.67,629.62 188.04,630.46 190.40,631.30 192.77,631.98 195.13,632.57 197.49,633.16 199.86,633.74 202.22,634.33 204.59,634.91 206.95,635.50 209.32,635.88 211.68,636.26 214.05,636.64 216.41,637.02 218.78,637.40 221.14,637.78 223.51,638.16 225.87,638.54 228.24,638.92 230.60,636.91 232.97,630.21 235.33,616.71 237.70,587.82 240.06,516.18 242.42,457.30 244.79,466.28 247.15,493.65 249.52,518.68 251.88,540.34 254.25,556.87 256.61,568.52 258.98,578.33 261.34,586.29 263.71,592.18 266.07,597.64 268.44,601.71 270.80,605.78 273.17,608.74 275.53,611.51 277.90,614.28 280.26,616.37 282.63,618.22 284.99,620.07 287.35,621.89 289.72,623.12 292.08,624.34 294.45,625.56 296.81,626.78 299.18,627.97 301.54,628.81 303.91,629.64 306.27,630.47 308.64,631.30 311.00,632.12 313.37,632.70 315.73,633.28 318.10,633.86 320.46,634.44 322.83,635.02 325.19,632.33 327.56,622.89 329.92,602.62 332.28,544.30 334.65,424.49 337.01,409.54 339.38,449.29 341.74,486.14 344.11,513.86 346.47,536.28 348.84,554.43 351.20,567.17 353.57,576.55 355.93,585.00 358.30,591.38 360.66,596.58 363.03,601.11 365.39,605.04 367.76,608.17 370.12,611.29 372.48,613.79 374.85,615.88 377.21,617.97 379.58,619.96 381.94,621.36 384.31,622.77 386.67,624.17 389.04,625.58 391.40,626.73 393.77,627.63 396.13,628.53 398.50,629.42 400.86,630.32 403.23,631.22 405.59,631.88 407.96,632.50 410.32,633.12 412.69,633.75 415.05,634.37 417.41,634.99 419.78,632.23 422.14,622.76 424.51,602.51 426.87,542.43 429.24,423.01 431.60,409.04 433.97,449.08 436.33,485.92 438.70,513.80 441.06,536.41 443.43,554.39 445.79,567.01 448.16,577.08 450.52,584.66 452.89,591.38 455.25,596.79 457.62,601.07 459.98,604.93 462.34,608.35 464.71,611.22 467.07,613.94 469.44,615.93 471.80,617.91 474.17,619.89 476.53,621.42 478.90,622.88 481.26,624.34 483.63,625.62 485.99,626.60 488.36,627.58 490.72,628.56 493.09,629.54 495.45,630.39 497.82,631.15 500.18,631.91 502.55,632.68 504.91,633.26 507.27,633.80 509.64,634.34 512.00,634.88 514.37,632.25 516.73,622.62 519.10,601.31 521.46,543.77 523.83,422.98 526.19,409.34 528.56,449.03 530.92,485.64 533.29,513.56 535.65,536.59 538.02,553.42 540.38,567.04 542.75,576.98 545.11,584.77 547.47,591.34 549.84,596.88 552.20,600.94 554.57,605.01 556.93,608.40 559.30,611.23 561.66,613.87 564.03,615.88 566.39,617.89 568.76,619.91 571.12,621.49 573.49,622.88 575.85,624.27 578.22,625.65 580.58,626.61 582.95,627.57 585.31,628.53 587.68,629.49 590.04,630.45 592.40,631.21 594.77,631.91 597.13,632.61 599.50,633.26 601.86,633.82 604.23,634.38 606.59,634.94 608.96,632.27 611.32,622.64 613.69,601.34 616.05,544.03 618.42,422.96 620.78,409.01 623.15,448.87 625.51,485.88 627.88,513.67 630.24,535.99 632.61,554.28 634.97,567.01 637.33,576.63 639.70,584.85 642.06,591.38 644.43,596.45 646.79,601.34 649.16,604.98 651.52,608.53 653.89,611.07 656.25,613.60 658.62,616.14 660.98,618.00 663.35,619.78 665.71,621.56 668.08,622.95 670.44,624.15 672.81,625.35 675.17,626.55 677.54,627.75 679.90,628.64 682.26,629.47 684.63,630.31 686.99,631.14 689.36,631.97 691.72,632.63 694.09,633.20 696.45,633.77 698.82,634.34 701.18,634.91 703.55,632.22 705.91,622.69 708.28,602.11 710.64,541.98 713.01,422.97 715.37,409.03 717.74,449.09 720.10,485.89 722.46,513.76 724.83,536.61 727.19,554.29 729.56,567.15 731.92,577.13 734.29,584.74 736.65,591.31 739.02,596.81 741.38,601.06 743.75,605.11 746.11,608.34 748.48,611.39 750.84,613.70 753.21,616.00 755.57,618.05 757.94,619.80 760.30,621.55 762.67,623.00 765.03,624.23 767.39,625.45 769.76,626.68 772.12,627.67 774.49,628.60 776.85,629.54 779.22,630.47 781.58,631.24 783.95,631.90 786.31,632.56 788.68,633.20 791.04,633.80 793.41,634.39 795.77,634.99 798.14,632.26 800.50,622.64 802.87,601.34 805.23,544.30 807.60,422.69 809.96,408.89 812.32,448.88 814.69,485.72 817.05,513.72 819.42,535.91 821.78,554.01 824.15,566.62 826.51,577.12 828.88,584.99 831.24,591.11 833.61,596.82 835.97,601.09 838.34,605.25 840.70,608.21 843.07,611.08 845.43,613.90 847.80,615.94 850.16,617.97 852.53,620.00 854.89,621.44 857.25,622.79 859.62,624.14 861.98,625.48 864.35,626.65 866.71,627.60 869.08,628.54 871.44,629.48 873.81,630.42 876.17,631.30 878.54,631.90 880.90,632.50 883.27,633.09 885.63,633.69 888.00,634.29 890.36,634.89 892.73,632.22 895.09,622.76 897.45,602.38 899.82,542.08 902.18,422.95 904.55,409.02 906.91,449.08 909.28,485.88 911.64,513.76 914.01,536.59 916.37,554.31 918.74,567.16 921.10,577.15 923.47,584.73 925.83,591.30 928.20,596.82 930.56,601.06 932.93,605.12 935.29,608.33 937.66,611.40 940.02,613.70 942.38,616.00 944.75,618.05 947.11,619.80 949.48,621.54 951.84,623.01 954.21,624.23 956.57,625.45 958.94,626.67 961.30,627.67 963.67,628.60 966.03,629.53 968.40,630.46 970.76,631.24 973.13,631.90 975.49,632.56 977.86,633.20 980.22,633.80 982.59,634.39 984.95,634.99 987.31,632.26 989.68,622.64 992.04,601.34 994.41,544.30 996.77,422.69 999.14,408.89 1001.50,448.88 1003.87,485.72 1006.23,513.72 1008.60,535.91 1010.96,554.00 1013.33,566.62 1015.69,577.11 1018.06,585.00 1020.42,591.11 1022.79,596.83 1025.15,601.09 1027.52,605.25 1029.88,608.20 1032.24,611.08 1034.61,613.90 1036.97,615.94 1039.34,617.97 1041.70,620.00 1044.07,621.44 1046.43,622.79 1048.80,624.14 1051.16,625.49 1053.53,626.65 1055.89,627.59 1058.26,628.54 1060.62,629.48 1062.99,630.42 1065.35,631.30 1067.72,631.89 1070.08,632.49 1072.44,633.09 1074.81,633.69 1077.17,634.29 1079.54,634.89 1081.90,632.22 1084.27,622.76 1086.63,602.37 1089.00,542.06 1091.36,422.95 1093.73,409.02 1096.09,449.08 1098.46,485.88 1100.82,513.76 1103.19,536.60 1105.55,554.30 1107.92,567.15 1110.28,577.14 1112.65,584.73 1115.01,591.30 1117.37,596.81 1119.74,601.06 1122.10,605.11 1124.47,608.33 1126.83,611.40 1129.20,613.70 1131.56,616.00 1133.93,618.05 1136.29,619.80 1138.66,621.55 1141.02,623.01 1143.39,624.23 1145.75,625.45 1148.12,626.68 1150.48,627.67 1152.85,628.60 1155.21,629.54 1157.58,630.47 1159.94,631.24 1162.30,631.90 1164.67,632.56 1167.03,633.20 1169.40,633.80 1171.76,634.39 1174.13,634.99 1176.49,632.26 1178.86,622.64 1181.22,601.34 1183.59,544.30 1185.95,422.69 1188.32,408.89 1190.68,448.88 1193.05,485.72 1195.41,513.72 1197.78,535.91 1200.14,554.00 1202.51,566.62 1204.87,577.11 1207.23,585.00 1209.60,591.11 1211.96,596.83 1214.33,601.09 1216.69,605.25 1219.06,608.20 1221.42,611.08 1223.79,613.90 1226.15,615.94 1228.52,617.97 1230.88,620.00 1233.25,621.44 1235.61,622.79 1237.98,624.14 1240.34,625.48 1242.71,626.65 1245.07,627.59 1247.43,628.54 1249.80,629.48 1252.16,630.42 1254.53,631.30 1256.89,631.90 1259.26,632.49 1261.62,633.09 1263.99,633.69 1266.35,634.29 1268.72,634.89 1271.08,632.22 1273.45,622.76 1275.81,602.37 1278.18,542.07 1280.54,422.95 1282.91,409.02 1285.27,449.08 1287.64,485.88 1290.00,513.76" fill="none" stroke="#ef6c00" stroke-width="2.4"/>
<line x1="130" y1="705" x2="160" y2="705" stroke="#1565c0" stroke-width="4"/>
<text x="170" y="710" font-family="Helvetica,Arial,sans-serif" font-size="18" font-weight="normal" fill="#1f2937">syn_post</text>
<line x1="130" y1="733" x2="160" y2="733" stroke="#2e7d32" stroke-width="4"/>
<text x="170" y="738" font-family="Helvetica,Arial,sans-serif" font-size="18" font-weight="normal" fill="#1f2937">mem</text>
<line x1="130" y1="761" x2="160" y2="761" stroke="#ef6c00" stroke-width="4"/>
<text x="170" y="766" font-family="Helvetica,Arial,sans-serif" font-size="18" font-weight="normal" fill="#1f2937">spike</text>
</svg>
