<svg xmlns="http://www.w3.org/2000/svg" width="1400" height="820" viewBox="0 0 1400 820">
<rect x="0" y="0" width="100%" height="100%" fill="#f8fbff"/>
<text x="30" y="44" font-family="Helvetica,Arial,sans-serif" font-size="30" font-weight="bold" fill="#1f2937">Neuro Tile4 Coupled Membrane Channels</text>
<rect x="110" y="90" width="1180" height="560" fill="#ffffff" stroke="#cbd5e1" stroke-width="2"/>
<line x1="110" y1="90.00" x2="1290" y2="90.00" stroke="#e2e8f0" stroke-width="1"/>
<text x="30" y="95.0" font-family="Helvetica,Arial,sans-serif" font-size="13" font-weight="normal" fill="#64748b">1.80V</text>
<line x1="110" y1="146.00" x2="1290" y2="146.00" stroke="#e2e8f0" stroke-width="1"/>
<text x="30" y="151.0" font-family="Helvetica,Arial,sans-serif" font-size="13" font-weight="normal" fill="#64748b">1.62V</text>
<line x1="110" y1="202.00" x2="1290" y2="202.00" stroke="#e2e8f0" stroke-width="1"/>
<text x="30" y="207.0" font-family="Helvetica,Arial,sans-serif" font-size="13" font-weight="normal" fill="#64748b">1.44V</text>
<line x1="110" y1="258.00" x2="1290" y2="258.00" stroke="#e2e8f0" stroke-width="1"/>
<text x="30" y="263.0" font-family="Helvetica,Arial,sans-serif" font-size="13" font-weight="normal" fill="#64748b">1.26V</text>
<line x1="110" y1="314.00" x2="1290" y2="314.00" stroke="#e2e8f0" stroke-width="1"/>
<text x="30" y="319.0" font-family="Helvetica,Arial,sans-serif" font-size="13" font-weight="normal" fill="#64748b">1.08V</text>
<line x1="110" y1="370.00" x2="1290" y2="370.00" stroke="#e2e8f0" stroke-width="1"/>
<text x="30" y="375.0" font-family="Helvetica,Arial,sans-serif" font-size="13" font-weight="normal" fill="#64748b">0.90V</text>
<line x1="110" y1="426.00" x2="1290" y2="426.00" stroke="#e2e8f0" stroke-width="1"/>
<text x="30" y="431.0" font-family="Helvetica,Arial,sans-serif" font-size="13" font-weight="normal" fill="#64748b">0.72V</text>
<line x1="110" y1="482.00" x2="1290" y2="482.00" stroke="#e2e8f0" stroke-width="1"/>
<text x="30" y="487.0" font-family="Helvetica,Arial,sans-serif" font-size="13" font-weight="normal" fill="#64748b">0.54V</text>
<line x1="110" y1="538.00" x2="1290" y2="538.00" stroke="#e2e8f0" stroke-width="1"/>
<text x="30" y="543.0" font-family="Helvetica,Arial,sans-serif" font-size="13" font-weight="normal" fill="#64748b">0.36V</text>
<line x1="110" y1="594.00" x2="1290" y2="594.00" stroke="#e2e8f0" stroke-width="1"/>
<text x="30" y="599.0" font-family="Helvetica,Arial,sans-serif" font-size="13" font-weight="normal" fill="#64748b">0.18V</text>
<line x1="110" y1="650.00" x2="1290" y2="650.00" stroke="#e2e8f0" stroke-width="1"/>
<text x="30" y="655.0" font-family="Helvetica,Arial,sans-serif" font-size="13" font-weight="normal" fill="#64748b">0.00V</text>
<line x1="110.00" y1="90" x2="110.00" y2="650" stroke="#e2e8f0" stroke-width="1"/>
<text x="92.0" y="676" font-family="Helvetica,Arial,sans-serif" font-size="13" font-weight="normal" fill="#64748b">0ns</text>
<line x1="228.00" y1="90" x2="228.00" y2="650" stroke="#e2e8f0" stroke-width="1"/>
<text x="210.0" y="676" font-family="Helvetica,Arial,sans-serif" font-size="13" font-weight="normal" fill="#64748b">12ns</text>
<line x1="346.00" y1="90" x2="346.00" y2="650" stroke="#e2e8f0" stroke-width="1"/>
<text x="328.0" y="676" font-family="Helvetica,Arial,sans-serif" font-size="13" font-weight="normal" fill="#64748b">24ns</text>
<line x1="464.00" y1="90" x2="464.00" y2="650" stroke="#e2e8f0" stroke-width="1"/>
<text x="446.0" y="676" font-family="Helvetica,Arial,sans-serif" font-size="13" font-weight="normal" fill="#64748b">36ns</text>
<line x1="582.00" y1="90" x2="582.00" y2="650" stroke="#e2e8f0" stroke-width="1"/>
<text x="564.0" y="676" font-family="Helvetica,Arial,sans-serif" font-size="13" font-weight="normal" fill="#64748b">48ns</text>
<line x1="700.00" y1="90" x2="700.00" y2="650" stroke="#e2e8f0" stroke-width="1"/>
<text x="682.0" y="676" font-family="Helvetica,Arial,sans-serif" font-size="13" font-weight="normal" fill="#64748b">60ns</text>
<line x1="818.00" y1="90" x2="818.00" y2="650" stroke="#e2e8f0" stroke-width="1"/>
<text x="800.0" y="676" font-family="Helvetica,Arial,sans-serif" font-size="13" font-weight="normal" fill="#64748b">72ns</text>
<line x1="936.00" y1="90" x2="936.00" y2="650" stroke="#e2e8f0" stroke-width="1"/>
<text x="918.0" y="676" font-family="Helvetica,Arial,sans-serif" font-size="13" font-weight="normal" fill="#64748b">84ns</text>
<line x1="1054.00" y1="90" x2="1054.00" y2="650" stroke="#e2e8f0" stroke-width="1"/>
<text x="1036.0" y="676" font-family="Helvetica,Arial,sans-serif" font-size="13" font-weight="normal" fill="#64748b">96ns</text>
<line x1="1172.00" y1="90" x2="1172.00" y2="650" stroke="#e2e8f0" stroke-width="1"/>
<text x="1154.0" y="676" font-family="Helvetica,Arial,sans-serif" font-size="13" font-weight="normal" fill="#64748b">108ns</text>
<line x1="1290.00" y1="90" x2="1290.00" y2="650" stroke="#e2e8f0" stroke-width="1"/>
<text x="1272.0" y="676" font-family="Helvetica,Arial,sans-serif" font-size="13" font-weight="normal" fill="#64748b">120ns</text>
<polyline points="110.00,623.57 114.92,623.57 119.83,623.57 124.75,623.57 129.67,623.57 134.58,623.57 139.50,623.57 144.42,623.57 149.33,623.57 154.25,623.57 159.17,623.57 164.08,606.12 169.00,573.49 173.92,541.24 178.83,512.51 183.75,491.00 188.67,480.75 193.58,478.33 198.50,480.85 203.42,486.45 208.33,493.97 213.25,502.27 218.17,511.04 223.08,519.87 228.00,528.41 232.92,536.74 237.83,544.37 242.75,551.55 247.67,558.73 252.58,564.89 257.50,570.16 262.42,574.67 267.33,578.56 272.25,581.92 277.17,584.73 282.08,587.37 287.00,589.67 291.92,591.66 296.83,593.56 301.75,595.24 306.67,596.78 311.58,598.20 316.50,599.53 321.42,600.77 326.33,601.94 331.25,603.04 336.17,604.09 341.08,605.07 346.00,606.02 350.92,606.89 355.83,607.77 360.75,591.73 365.67,560.85 370.58,530.56 375.50,503.61 380.42,483.81 385.33,474.64 390.25,473.25 395.17,476.39 400.08,482.42 405.00,490.36 409.92,499.12 414.83,508.13 419.75,517.22 424.67,525.99 429.58,534.43 434.50,542.71 439.42,550.31 444.33,557.28 449.25,563.61 454.17,569.13 459.08,573.84 464.00,577.88 468.92,581.40 473.83,584.39 478.75,587.04 483.67,589.34 488.58,591.50 493.50,593.36 498.42,595.13 503.33,596.70 508.25,598.14 513.17,599.48 518.08,600.74 523.00,601.92 527.92,603.03 532.83,604.07 537.75,605.08 542.67,606.01 547.58,606.91 552.50,607.77 557.42,591.74 562.33,560.88 567.25,530.57 572.17,503.62 577.08,483.74 582.00,474.93 586.92,473.44 591.83,476.52 596.75,482.53 601.67,490.24 606.58,499.10 611.50,508.11 616.42,517.25 621.33,525.94 626.25,534.54 631.17,542.54 636.08,550.17 641.00,557.29 645.92,563.62 650.83,569.12 655.75,573.82 660.67,577.91 665.58,581.32 670.50,584.40 675.42,587.01 680.33,589.35 685.25,591.51 690.17,593.42 695.08,595.16 700.00,596.73 704.92,598.18 709.83,599.52 714.75,600.77 719.67,601.95 724.58,603.06 729.50,604.09 734.42,605.11 739.33,606.04 744.25,606.94 749.17,607.79 754.08,591.76 759.00,560.89 763.92,530.58 768.83,503.63 773.75,483.81 778.67,474.65 783.58,473.26 788.50,476.39 793.42,482.42 798.33,490.33 803.25,499.10 808.17,508.10 813.08,517.20 818.00,525.96 822.92,534.42 827.83,542.69 832.75,550.30 837.67,557.27 842.58,563.61 847.50,569.13 852.42,573.85 857.33,577.90 862.25,581.39 867.17,584.42 872.08,587.07 877.00,589.37 881.92,591.48 886.83,593.41 891.75,595.13 896.67,596.69 901.58,598.14 906.50,599.48 911.42,600.74 916.33,601.92 921.25,603.03 926.17,604.08 931.08,605.06 936.00,606.02 940.92,606.90 945.83,607.77 950.75,591.74 955.67,560.87 960.58,530.57 965.50,503.62 970.42,483.78 975.33,474.76 980.25,473.33 985.17,476.44 990.08,482.46 995.00,490.29 999.92,499.09 1004.83,508.10 1009.75,517.21 1014.67,525.94 1019.58,534.46 1024.50,542.64 1029.42,550.29 1034.33,557.26 1039.25,563.60 1044.17,569.13 1049.08,573.83 1054.00,577.82 1058.92,581.37 1063.83,584.34 1068.75,587.05 1073.67,589.39 1078.58,591.53 1083.50,593.44 1088.42,595.15 1093.33,596.72 1098.25,598.16 1103.17,599.51 1108.08,600.76 1113.00,601.94 1117.92,603.05 1122.83,604.10 1127.75,605.09 1132.67,606.04 1137.58,606.92 1142.50,607.79 1147.42,591.82 1152.33,560.90 1157.25,530.60 1162.17,503.65 1167.08,483.82 1172.00,474.81 1176.92,473.39 1181.83,476.49 1186.75,482.51 1191.67,490.34 1196.58,499.14 1201.50,508.15 1206.42,517.26 1211.33,525.98 1216.25,534.50 1221.17,542.68 1226.08,550.32 1231.00,557.29 1235.92,563.63 1240.83,569.16 1245.75,573.85 1250.67,577.83 1255.58,581.38 1260.50,584.36 1265.42,587.06 1270.33,589.40 1275.25,591.55 1280.17,593.45 1285.08,595.16 1290.00,596.73" fill="none" stroke="#1565c0" stroke-width="2.4"/>
<polyline points="110.00,622.08 114.92,622.08 119.83,622.08 124.75,622.08 129.67,622.08 134.58,622.08 139.50,622.08 144.42,622.08 149.33,622.08 154.25,622.08 159.17,622.08 164.08,621.49 169.00,615.76 173.92,591.56 178.83,557.52 183.75,523.28 188.67,491.03 193.58,461.96 198.50,436.50 203.42,414.79 208.33,397.09 213.25,382.28 218.17,370.70 223.08,362.35 228.00,356.50 232.92,352.63 237.83,352.36 242.75,354.36 247.67,356.36 252.58,365.64 257.50,384.29 262.42,407.60 267.33,432.52 272.25,457.20 277.17,479.64 282.08,500.95 287.00,519.95 291.92,535.69 296.83,550.46 301.75,562.47 306.67,572.28 311.58,580.18 316.50,586.47 321.42,591.50 326.33,595.60 331.25,598.88 336.17,601.62 341.08,603.74 346.00,605.61 350.92,607.02 355.83,608.42 360.75,608.48 365.67,599.50 370.58,569.70 375.50,536.96 380.42,505.04 385.33,475.49 390.25,449.29 395.17,426.33 400.08,406.56 405.00,390.37 409.92,377.39 414.83,366.59 419.75,358.69 424.67,353.15 429.58,349.88 434.50,347.32 439.42,347.77 444.33,350.93 449.25,358.85 454.17,375.72 459.08,398.44 464.00,423.41 468.92,448.56 473.83,472.25 478.75,494.04 483.67,513.04 488.58,530.87 493.50,545.28 498.42,558.62 503.33,569.19 508.25,577.72 513.17,584.50 518.08,589.97 523.00,594.37 527.92,597.95 532.83,600.69 537.75,603.21 542.67,605.09 547.58,606.74 552.50,608.10 557.42,608.23 562.33,599.07 567.25,569.69 572.17,536.97 577.08,505.07 582.00,475.71 586.92,449.52 591.83,426.58 596.75,406.93 601.67,390.17 606.58,377.30 611.50,366.89 616.42,358.25 621.33,353.39 626.25,349.29 631.17,347.92 636.08,348.26 641.00,350.71 645.92,358.45 650.83,375.61 655.75,398.35 660.67,423.20 665.58,448.05 670.50,471.87 675.42,493.28 680.33,512.68 685.25,530.30 690.17,545.43 695.08,558.50 700.00,569.09 704.92,577.63 709.83,584.48 714.75,589.90 719.67,594.40 724.58,597.96 729.50,600.69 734.42,603.27 739.33,605.10 744.25,606.73 749.17,608.12 754.08,608.25 759.00,599.09 763.92,569.73 768.83,537.02 773.75,505.13 778.67,475.62 783.58,449.44 788.50,426.48 793.42,406.73 798.33,390.46 803.25,377.47 808.17,366.69 813.08,358.68 818.00,353.18 822.92,349.80 827.83,347.30 832.75,347.66 837.67,350.80 842.58,358.67 847.50,375.54 852.42,398.23 857.33,423.21 862.25,448.33 867.17,472.24 872.08,494.11 877.00,513.22 881.92,530.39 886.83,545.78 891.75,558.53 896.67,569.11 901.58,577.60 906.50,584.49 911.42,589.93 916.33,594.32 921.25,597.95 926.17,600.79 931.08,603.07 936.00,605.15 940.92,606.64 945.83,608.10 950.75,608.23 955.67,599.15 960.58,569.72 965.50,537.01 970.42,505.12 975.33,475.67 980.25,449.49 985.17,426.54 990.08,406.83 995.00,390.34 999.92,377.43 1004.83,366.80 1009.75,358.54 1014.67,353.30 1019.58,349.64 1024.50,347.47 1029.42,347.71 1034.33,350.82 1039.25,358.70 1044.17,375.52 1049.08,398.29 1054.00,423.16 1058.92,448.09 1063.83,471.50 1068.75,493.65 1073.67,512.99 1078.58,530.50 1083.50,545.73 1088.42,558.46 1093.33,569.06 1098.25,577.53 1103.17,584.48 1108.08,589.96 1113.00,594.31 1117.92,597.93 1122.83,600.79 1127.75,603.11 1132.67,605.11 1137.58,606.68 1142.50,608.12 1147.42,608.28 1152.33,599.20 1157.25,569.53 1162.17,536.85 1167.08,504.97 1172.00,475.56 1176.92,449.39 1181.83,426.46 1186.75,406.78 1191.67,390.29 1196.58,377.40 1201.50,366.78 1206.42,358.52 1211.33,353.30 1216.25,349.63 1221.17,347.49 1226.08,347.73 1231.00,350.85 1235.92,358.76 1240.83,375.61 1245.75,398.42 1250.67,423.27 1255.58,448.18 1260.50,471.61 1265.42,493.66 1270.33,513.04 1275.25,530.67 1280.17,545.77 1285.08,558.51 1290.00,569.10" fill="none" stroke="#2e7d32" stroke-width="2.4"/>
<polyline points="110.00,621.40 114.92,621.40 119.83,621.40 124.75,621.40 129.67,621.40 134.58,621.40 139.50,621.40 144.42,621.40 149.33,621.40 154.25,621.40 159.17,621.40 164.08,621.39 169.00,621.14 173.92,619.24 178.83,607.07 183.75,574.65 188.67,539.63 193.58,505.31 198.50,473.01 203.42,443.30 208.33,416.75 213.25,392.58 218.17,371.18 223.08,352.62 228.00,336.24 232.92,321.60 237.83,309.44 242.75,298.85 247.67,288.27 252.58,280.13 257.50,273.39 262.42,267.81 267.33,263.29 272.25,259.78 277.17,257.66 282.08,256.08 287.00,255.63 291.92,257.12 296.83,259.33 301.75,265.16 306.67,282.69 311.58,310.08 316.50,342.16 321.42,375.28 326.33,407.37 331.25,437.01 336.17,464.36 341.08,487.77 346.00,509.21 350.92,526.39 355.83,543.58 360.75,556.76 365.67,566.99 370.58,569.09 375.50,548.19 380.42,520.03 385.33,491.95 390.25,465.35 395.17,440.59 400.08,417.81 405.00,397.35 409.92,379.08 414.83,362.30 419.75,347.50 424.67,334.30 429.58,322.61 434.50,311.37 439.42,301.97 444.33,293.78 449.25,286.50 454.17,280.16 459.08,274.77 464.00,270.28 468.92,266.59 473.83,263.93 478.75,262.14 483.67,261.65 488.58,261.72 493.50,264.26 498.42,267.89 503.33,280.54 508.25,305.23 513.17,336.18 518.08,368.95 523.00,401.27 527.92,431.64 532.83,458.30 537.75,483.83 542.67,504.90 547.58,524.04 552.50,540.55 557.42,554.21 562.33,564.86 567.25,567.43 572.17,546.94 577.08,519.05 582.00,491.31 586.92,464.97 591.83,440.45 596.75,417.94 601.67,397.28 606.58,379.21 611.50,362.81 616.42,347.61 621.33,334.95 626.25,322.80 631.17,312.27 636.08,302.78 641.00,294.28 645.92,287.02 650.83,280.70 655.75,275.31 660.67,270.71 665.58,267.21 670.50,264.38 675.42,262.78 680.33,262.07 685.25,262.39 690.17,264.14 695.08,267.95 700.00,280.47 704.92,305.14 709.83,335.92 714.75,368.68 719.67,401.13 724.58,431.53 729.50,458.14 734.42,484.02 739.33,504.83 744.25,523.77 749.17,540.47 754.08,554.15 759.00,564.81 763.92,567.41 768.83,546.87 773.75,519.00 778.67,491.21 783.58,464.87 788.50,440.34 793.42,417.78 798.33,397.45 803.25,379.32 808.17,362.68 813.08,347.92 818.00,334.82 822.92,323.12 827.83,311.96 832.75,302.55 837.67,294.36 842.58,287.08 847.50,280.72 852.42,275.31 857.33,270.77 862.25,267.10 867.17,264.31 872.08,262.47 877.00,261.86 881.92,262.32 886.83,263.83 891.75,267.86 896.67,280.48 901.58,305.29 906.50,335.91 911.42,368.76 916.33,401.02 921.25,431.59 926.17,459.03 931.08,482.92 936.00,505.59 940.92,523.15 945.83,540.56 950.75,554.21 955.67,564.86 960.58,567.43 965.50,546.86 970.42,518.99 975.33,491.22 980.25,464.89 985.17,440.36 990.08,417.82 995.00,397.35 999.92,379.26 1004.83,362.72 1009.75,347.79 1014.67,334.86 1019.58,322.99 1024.50,312.03 1029.42,302.54 1034.33,294.34 1039.25,287.05 1044.17,280.69 1049.08,275.29 1054.00,270.87 1058.92,267.14 1063.83,264.55 1068.75,262.58 1073.67,261.89 1078.58,262.15 1083.50,263.75 1088.42,267.80 1093.33,280.35 1098.25,305.23 1103.17,335.68 1108.08,368.56 1113.00,400.78 1117.92,431.33 1122.83,458.72 1127.75,482.93 1132.67,505.03 1137.58,523.30 1142.50,540.45 1147.42,554.14 1152.33,564.82 1157.25,567.24 1162.17,546.56 1167.08,518.70 1172.00,490.97 1176.92,464.67 1181.83,440.18 1186.75,417.67 1191.67,397.22 1196.58,379.16 1201.50,362.64 1206.42,347.72 1211.33,334.82 1216.25,322.95 1221.17,312.01 1226.08,302.52 1231.00,294.33 1235.92,287.05 1240.83,280.69 1245.75,275.30 1250.67,270.88 1255.58,267.15 1260.50,264.56 1265.42,262.64 1270.33,261.93 1275.25,262.11 1280.17,263.78 1285.08,267.83 1290.00,280.44" fill="none" stroke="#ef6c00" stroke-width="2.4"/>
<polyline points="110.00,620.64 114.92,620.64 119.83,620.64 124.75,620.64 129.67,620.64 134.58,620.64 139.50,620.64 144.42,620.64 149.33,620.64 154.25,620.64 159.17,620.64 164.08,620.64 169.00,620.63 173.92,620.55 178.83,619.91 183.75,614.87 188.67,590.70 193.58,559.13 198.50,534.78 203.42,512.81 208.33,493.70 213.25,476.68 218.17,462.00 223.08,449.62 228.00,438.89 232.92,429.47 237.83,421.79 242.75,415.22 247.67,408.66 252.58,403.70 257.50,399.58 262.42,396.09 267.33,393.10 272.25,390.55 277.17,388.49 282.08,386.59 287.00,385.01 291.92,383.76 296.83,382.60 301.75,381.70 306.67,380.99 311.58,380.52 316.50,380.35 321.42,380.52 326.33,381.03 331.25,382.03 336.17,383.42 341.08,385.61 346.00,388.38 350.92,392.72 355.83,397.06 360.75,404.15 365.67,419.08 370.58,442.71 375.50,451.61 380.42,447.14 385.33,440.89 390.25,434.22 395.17,427.70 400.08,421.56 405.00,415.99 409.92,411.04 414.83,406.52 419.75,402.59 424.67,399.12 429.58,396.11 434.50,393.23 439.42,390.89 444.33,388.90 449.25,387.15 454.17,385.65 459.08,384.35 464.00,383.23 468.92,382.25 473.83,381.42 478.75,380.71 483.67,380.12 488.58,379.58 493.50,379.16 498.42,378.79 503.33,378.53 508.25,378.42 513.17,378.52 518.08,378.89 523.00,379.57 527.92,380.61 532.83,382.31 537.75,384.19 542.67,387.09 547.58,390.65 552.50,395.23 557.42,401.82 562.33,414.13 567.25,435.98 572.17,444.46 577.08,440.96 582.00,435.58 586.92,429.71 591.83,423.88 596.75,418.35 601.67,413.20 606.58,408.69 611.50,404.61 616.42,400.85 621.33,397.78 626.25,394.84 631.17,392.35 636.08,390.14 641.00,388.20 645.92,386.57 650.83,385.16 655.75,383.94 660.67,382.88 665.58,381.98 670.50,381.18 675.42,380.52 680.33,379.95 685.25,379.44 690.17,379.03 695.08,378.69 700.00,378.45 704.92,378.35 709.83,378.45 714.75,378.85 719.67,379.50 724.58,380.56 729.50,382.26 734.42,384.08 739.33,387.02 744.25,390.68 749.17,395.19 754.08,401.77 759.00,413.97 763.92,435.77 768.83,444.13 773.75,440.67 778.67,435.36 783.58,429.50 788.50,423.69 793.42,418.17 798.33,413.12 803.25,408.61 808.17,404.48 813.08,400.85 818.00,397.67 822.92,394.87 827.83,392.22 832.75,390.04 837.67,388.18 842.58,386.55 847.50,385.14 852.42,383.92 857.33,382.87 862.25,381.95 867.17,381.16 872.08,380.49 877.00,379.93 881.92,379.44 886.83,379.02 891.75,378.69 896.67,378.44 901.58,378.35 906.50,378.45 911.42,378.83 916.33,379.53 921.25,380.56 926.17,382.09 931.08,384.34 936.00,386.82 940.92,391.03 945.83,395.30 950.75,401.88 955.67,414.20 960.58,436.04 965.50,444.36 970.42,440.87 975.33,435.52 980.25,429.64 985.17,423.82 990.08,418.29 995.00,413.18 999.92,408.67 1004.83,404.56 1009.75,400.87 1014.67,397.73 1019.58,394.88 1024.50,392.28 1029.42,390.07 1034.33,388.20 1039.25,386.57 1044.17,385.15 1049.08,383.94 1054.00,382.90 1058.92,381.97 1063.83,381.20 1068.75,380.51 1073.67,379.94 1078.58,379.44 1083.50,379.02 1088.42,378.69 1093.33,378.44 1098.25,378.36 1103.17,378.45 1108.08,378.82 1113.00,379.53 1117.92,380.56 1122.83,382.11 1127.75,384.29 1132.67,386.92 1137.58,390.87 1142.50,395.22 1147.42,401.78 1152.33,413.98 1157.25,435.72 1162.17,443.81 1167.08,440.37 1172.00,435.07 1176.92,429.26 1181.83,423.48 1186.75,418.00 1191.67,412.94 1196.58,408.46 1201.50,404.38 1206.42,400.72 1211.33,397.61 1216.25,394.77 1221.17,392.19 1226.08,389.99 1231.00,388.14 1235.92,386.51 1240.83,385.11 1245.75,383.90 1250.67,382.86 1255.58,381.94 1260.50,381.18 1265.42,380.49 1270.33,379.92 1275.25,379.42 1280.17,379.01 1285.08,378.68 1290.00,378.44" fill="none" stroke="#6a1b9a" stroke-width="2.4"/>
<line x1="130" y1="705" x2="160" y2="705" stroke="#1565c0" stroke-width="4"/>
<text x="170" y="710" font-family="Helvetica,Arial,sans-serif" font-size="18" font-weight="normal" fill="#1f2937">mem0</text>
<line x1="130" y1="733" x2="160" y2="733" stroke="#2e7d32" stroke-width="4"/>
<text x="170" y="738" font-family="Helvetica,Arial,sans-serif" font-size="18" font-weight="normal" fill="#1f2937">mem1</text>
<line x1="130" y1="761" x2="160" y2="761" stroke="#ef6c00" stroke-width="4"/>
<text x="170" y="766" font-family="Helvetica,Arial,sans-serif" font-size="18" font-weight="normal" fill="#1f2937">mem2</text>
<line x1="130" y1="789" x2="160" y2="789" stroke="#6a1b9a" stroke-width="4"/>
<text x="170" y="794" font-family="Helvetica,Arial,sans-serif" font-size="18" font-weight="normal" fill="#1f2937">mem3</text>
</svg>
