<svg xmlns="http://www.w3.org/2000/svg" width="1400" height="820" viewBox="0 0 1400 820">
<rect x="0" y="0" width="100%" height="100%" fill="#f8fbff"/>
<text x="30" y="44" font-family="Helvetica,Arial,sans-serif" font-size="30" font-weight="bold" fill="#1f2937">Synapse Waveforms (pre/post/out)</text>
<rect x="110" y="90" width="1180" height="560" fill="#ffffff" stroke="#cbd5e1" stroke-width="2"/>
<line x1="110" y1="90.00" x2="1290" y2="90.00" stroke="#e2e8f0" stroke-width="1"/>
<text x="30" y="95.0" font-family="Helvetica,Arial,sans-serif" font-size="13" font-weight="normal" fill="#64748b">1.80V</text>
<line x1="110" y1="146.00" x2="1290" y2="146.00" stroke="#e2e8f0" stroke-width="1"/>
<text x="30" y="151.0" font-family="Helvetica,Arial,sans-serif" font-size="13" font-weight="normal" fill="#64748b">1.62V</text>
<line x1="110" y1="202.00" x2="1290" y2="202.00" stroke="#e2e8f0" stroke-width="1"/>
<text x="30" y="207.0" font-family="Helvetica,Arial,sans-serif" font-size="13" font-weight="normal" fill="#64748b">1.44V</text>
<line x1="110" y1="258.00" x2="1290" y2="258.00" stroke="#e2e8f0" stroke-width="1"/>
<text x="30" y="263.0" font-family="Helvetica,Arial,sans-serif" font-size="13" font-weight="normal" fill="#64748b">1.26V</text>
<line x1="110" y1="314.00" x2="1290" y2="314.00" stroke="#e2e8f0" stroke-width="1"/>
<text x="30" y="319.0" font-family="Helvetica,Arial,sans-serif" font-size="13" font-weight="normal" fill="#64748b">1.08V</text>
<line x1="110" y1="370.00" x2="1290" y2="370.00" stroke="#e2e8f0" stroke-width="1"/>
<text x="30" y="375.0" font-family="Helvetica,Arial,sans-serif" font-size="13" font-weight="normal" fill="#64748b">0.90V</text>
<line x1="110" y1="426.00" x2="1290" y2="426.00" stroke="#e2e8f0" stroke-width="1"/>
<text x="30" y="431.0" font-family="Helvetica,Arial,sans-serif" font-size="13" font-weight="normal" fill="#64748b">0.72V</text>
<line x1="110" y1="482.00" x2="1290" y2="482.00" stroke="#e2e8f0" stroke-width="1"/>
<text x="30" y="487.0" font-family="Helvetica,Arial,sans-serif" font-size="13" font-weight="normal" fill="#64748b">0.54V</text>
<line x1="110" y1="538.00" x2="1290" y2="538.00" stroke="#e2e8f0" stroke-width="1"/>
<text x="30" y="543.0" font-family="Helvetica,Arial,sans-serif" font-size="13" font-weight="normal" fill="#64748b">0.36V</text>
<line x1="110" y1="594.00" x2="1290" y2="594.00" stroke="#e2e8f0" stroke-width="1"/>
<text x="30" y="599.0" font-family="Helvetica,Arial,sans-serif" font-size="13" font-weight="normal" fill="#64748b">0.18V</text>
<line x1="110" y1="650.00" x2="1290" y2="650.00" stroke="#e2e8f0" stroke-width="1"/>
<text x="30" y="655.0" font-family="Helvetica,Arial,sans-serif" font-size="13" font-weight="normal" fill="#64748b">0.00V</text>
<line x1="110.00" y1="90" x2="110.00" y2="650" stroke="#e2e8f0" stroke-width="1"/>
<text x="92.0" y="676" font-family="Helvetica,Arial,sans-serif" font-size="13" font-weight="normal" fill="#64748b">0ns</text>
<line x1="228.00" y1="90" x2="228.00" y2="650" stroke="#e2e8f0" stroke-width="1"/>
<text x="210.0" y="676" font-family="Helvetica,Arial,sans-serif" font-size="13" font-weight="normal" fill="#64748b">12ns</text>
<line x1="346.00" y1="90" x2="346.00" y2="650" stroke="#e2e8f0" stroke-width="1"/>
<text x="328.0" y="676" font-family="Helvetica,Arial,sans-serif" font-size="13" font-weight="normal" fill="#64748b">24ns</text>
<line x1="464.00" y1="90" x2="464.00" y2="650" stroke="#e2e8f0" stroke-width="1"/>
<text x="446.0" y="676" font-family="Helvetica,Arial,sans-serif" font-size="13" font-weight="normal" fill="#64748b">36ns</text>
<line x1="582.00" y1="90" x2="582.00" y2="650" stroke="#e2e8f0" stroke-width="1"/>
<text x="564.0" y="676" font-family="Helvetica,Arial,sans-serif" font-size="13" font-weight="normal" fill="#64748b">48ns</text>
<line x1="700.00" y1="90" x2="700.00" y2="650" stroke="#e2e8f0" stroke-width="1"/>
<text x="682.0" y="676" font-family="Helvetica,Arial,sans-serif" font-size="13" font-weight="normal" fill="#64748b">60ns</text>
<line x1="818.00" y1="90" x2="818.00" y2="650" stroke="#e2e8f0" stroke-width="1"/>
<text x="800.0" y="676" font-family="Helvetica,Arial,sans-serif" font-size="13" font-weight="normal" fill="#64748b">72ns</text>
<line x1="936.00" y1="90" x2="936.00" y2="650" stroke="#e2e8f0" stroke-width="1"/>
<text x="918.0" y="676" font-family="Helvetica,Arial,sans-serif" font-size="13" font-weight="normal" fill="#64748b">84ns</text>
<line x1="1054.00" y1="90" x2="1054.00" y2="650" stroke="#e2e8f0" stroke-width="1"/>
<text x="1036.0" y="676" font-family="Helvetica,Arial,sans-serif" font-size="13" font-weight="normal" fill="#64748b">96ns</text>
<line x1="1172.00" y1="90" x2="1172.00" y2="650" stroke="#e2e8f0" stroke-width="1"/>
<text x="1154.0" y="676" font-family="Helvetica,Arial,sans-serif" font-size="13" font-weight="normal" fill="#64748b">108ns</text>
<line x1="1290.00" y1="90" x2="1290.00" y2="650" stroke="#e2e8f0" stroke-width="1"/>
<text x="1272.0" y="676" font-family="Helvetica,Arial,sans-serif" font-size="13" font-weight="normal" fill="#64748b">120ns</text>
<polyline points="110.00,650.00 114.92,650.00 119.83,650.00 124.75,650.00 129.67,650.00 134.58,650.00 139.50,650.00 144.42,650.00 149.33,650.00 154.25,650.00 159.17,650.00 164.08,90.00 169.00,90.00 173.92,90.00 178.83,90.00 183.75,650.00 188.67,650.00 193.58,650.00 198.50,650.00 203.42,650.00 208.33,650.00 213.25,650.00 218.17,650.00 223.08,650.00 228.00,650.00 232.92,650.00 237.83,650.00 242.75,650.00 247.67,650.00 252.58,650.00 257.50,650.00 262.42,650.00 267.33,650.00 272.25,650.00 277.17,650.00 282.08,650.00 287.00,650.00 291.92,650.00 296.83,650.00 301.75,650.00 306.67,650.00 311.58,650.00 316.50,650.00 321.42,650.00 326.33,650.00 331.25,650.00 336.17,650.00 341.08,650.00 346.00,650.00 350.92,650.00 355.83,650.00 360.75,90.00 365.67,90.00 370.58,90.00 375.50,90.00 380.42,650.00 385.33,650.00 390.25,650.00 395.17,650.00 400.08,650.00 405.00,650.00 409.92,650.00 414.83,650.00 419.75,650.00 424.67,650.00 429.58,650.00 434.50,650.00 439.42,650.00 444.33,650.00 449.25,650.00 454.17,650.00 459.08,650.00 464.00,650.00 468.92,650.00 473.83,650.00 478.75,650.00 483.67,650.00 488.58,650.00 493.50,650.00 498.42,650.00 503.33,650.00 508.25,650.00 513.17,650.00 518.08,650.00 523.00,650.00 527.92,650.00 532.83,650.00 537.75,650.00 542.67,650.00 547.58,650.00 552.50,650.00 557.42,90.00 562.33,90.00 567.25,90.00 572.17,90.00 577.08,650.00 582.00,650.00 586.92,650.00 591.83,650.00 596.75,650.00 601.67,650.00 606.58,650.00 611.50,650.00 616.42,650.00 621.33,650.00 626.25,650.00 631.17,650.00 636.08,650.00 641.00,650.00 645.92,650.00 650.83,650.00 655.75,650.00 660.67,650.00 665.58,650.00 670.50,650.00 675.42,650.00 680.33,650.00 685.25,650.00 690.17,650.00 695.08,650.00 700.00,650.00 704.92,650.00 709.83,650.00 714.75,650.00 719.67,650.00 724.58,650.00 729.50,650.00 734.42,650.00 739.33,650.00 744.25,650.00 749.17,650.00 754.08,90.00 759.00,90.00 763.92,90.00 768.83,90.00 773.75,650.00 778.67,650.00 783.58,650.00 788.50,650.00 793.42,650.00 798.33,650.00 803.25,650.00 808.17,650.00 813.08,650.00 818.00,650.00 822.92,650.00 827.83,650.00 832.75,650.00 837.67,650.00 842.58,650.00 847.50,650.00 852.42,650.00 857.33,650.00 862.25,650.00 867.17,650.00 872.08,650.00 877.00,650.00 881.92,650.00 886.83,650.00 891.75,650.00 896.67,650.00 901.58,650.00 906.50,650.00 911.42,650.00 916.33,650.00 921.25,650.00 926.17,650.00 931.08,650.00 936.00,650.00 940.92,650.00 945.83,650.00 950.75,90.00 955.67,90.00 960.58,90.00 965.50,90.00 970.42,650.00 975.33,650.00 980.25,650.00 985.17,650.00 990.08,650.00 995.00,650.00 999.92,650.00 1004.83,650.00 1009.75,650.00 1014.67,650.00 1019.58,650.00 1024.50,650.00 1029.42,650.00 1034.33,650.00 1039.25,650.00 1044.17,650.00 1049.08,650.00 1054.00,650.00 1058.92,650.00 1063.83,650.00 1068.75,650.00 1073.67,650.00 1078.58,650.00 1083.50,650.00 1088.42,650.00 1093.33,650.00 1098.25,650.00 1103.17,650.00 1108.08,650.00 1113.00,650.00 1117.92,650.00 1122.83,650.00 1127.75,650.00 1132.67,650.00 1137.58,650.00 1142.50,650.00 1147.42,90.00 1152.33,90.00 1157.25,90.00 1162.17,90.00 1167.08,650.00 1172.00,650.00 1176.92,650.00 1181.83,650.00 1186.75,650.00 1191.67,650.00 1196.58,650.00 1201.50,650.00 1206.42,650.00 1211.33,650.00 1216.25,650.00 1221.17,650.00 1226.08,650.00 1231.00,650.00 1235.92,650.00 1240.83,650.00 1245.75,650.00 1250.67,650.00 1255.58,650.00 1260.50,650.00 1265.42,650.00 1270.33,650.00 1275.25,650.00 1280.17,650.00 1285.08,650.00 1290.00,650.00" fill="none" stroke="#1565c0" stroke-width="2.4"/>
<polyline points="110.00,609.57 114.92,609.57 119.83,609.57 124.75,609.57 129.67,609.57 134.58,609.57 139.50,609.57 144.42,609.57 149.33,609.57 154.25,609.57 159.17,609.57 164.08,327.28 169.00,229.48 173.92,187.23 178.83,166.13 183.75,174.91 188.67,189.44 193.58,203.51 198.50,217.12 203.42,230.55 208.33,242.83 213.25,255.10 218.17,267.38 223.08,279.65 228.00,290.84 232.92,301.46 237.83,312.09 242.75,322.71 247.67,333.33 252.58,342.88 257.50,352.26 262.42,361.64 267.33,370.48 272.25,379.13 277.17,387.45 282.08,395.50 287.00,403.31 291.92,410.87 296.83,418.19 301.75,425.30 306.67,432.18 311.58,438.85 316.50,445.32 321.42,451.61 326.33,457.64 331.25,463.61 336.17,469.23 341.08,474.83 346.00,480.17 350.92,485.35 355.83,490.53 360.75,297.16 365.67,217.73 370.58,181.98 375.50,162.90 380.42,172.17 385.33,186.84 390.25,200.93 395.17,214.74 400.08,227.71 405.00,240.69 409.92,253.66 414.83,265.37 419.75,276.80 424.67,288.23 429.58,299.66 434.50,311.07 439.42,320.91 444.33,330.74 449.25,340.58 454.17,350.41 459.08,360.04 464.00,368.87 468.92,377.57 473.83,385.95 478.75,394.04 483.67,401.89 488.58,409.51 493.50,416.87 498.42,424.01 503.33,430.94 508.25,437.65 513.17,444.17 518.08,450.45 523.00,456.60 527.92,462.53 532.83,468.22 537.75,473.81 542.67,479.27 547.58,484.52 552.50,489.62 557.42,296.74 562.33,217.40 567.25,181.76 572.17,163.04 577.08,172.14 582.00,186.76 586.92,200.88 591.83,214.64 596.75,227.93 601.67,240.42 606.58,252.90 611.50,265.39 616.42,277.63 621.33,288.48 626.25,299.33 631.17,310.18 636.08,321.03 641.00,331.36 645.92,340.69 650.83,350.03 655.75,359.37 660.67,368.70 665.58,377.59 670.50,385.93 675.42,394.05 680.33,401.91 685.25,409.51 690.17,416.88 695.08,424.02 700.00,430.95 704.92,437.65 709.83,444.16 714.75,450.47 719.67,456.55 724.58,462.46 729.50,468.29 734.42,473.80 739.33,479.30 744.25,484.47 749.17,489.63 754.08,296.90 759.00,217.62 763.92,181.92 768.83,162.87 773.75,172.15 778.67,186.82 783.58,200.90 788.50,214.72 793.42,227.69 798.33,240.66 803.25,253.64 808.17,265.36 813.08,276.79 818.00,288.22 822.92,299.65 827.83,311.06 832.75,320.89 837.67,330.73 842.58,340.56 847.50,350.40 852.42,360.02 857.33,368.86 862.25,377.56 867.17,385.94 872.08,394.02 877.00,401.88 881.92,409.50 886.83,416.86 891.75,424.00 896.67,430.93 901.58,437.64 906.50,444.16 911.42,450.44 916.33,456.59 921.25,462.52 926.17,468.21 931.08,473.81 936.00,479.26 940.92,484.51 945.83,489.61 950.75,296.73 955.67,217.40 960.58,181.75 965.50,163.04 970.42,172.14 975.33,186.76 980.25,200.88 985.17,214.64 990.08,227.93 995.00,240.42 999.92,252.90 1004.83,265.39 1009.75,277.64 1014.67,288.48 1019.58,299.33 1024.50,310.18 1029.42,321.03 1034.33,331.36 1039.25,340.69 1044.17,350.03 1049.08,359.36 1054.00,368.70 1058.92,377.59 1063.83,385.93 1068.75,394.05 1073.67,401.91 1078.58,409.51 1083.50,416.88 1088.42,424.02 1093.33,430.95 1098.25,437.65 1103.17,444.16 1108.08,450.47 1113.00,456.55 1117.92,462.46 1122.83,468.29 1127.75,473.80 1132.67,479.30 1137.58,484.47 1142.50,489.63 1147.42,296.90 1152.33,217.62 1157.25,181.92 1162.17,162.87 1167.08,172.15 1172.00,186.82 1176.92,200.90 1181.83,214.72 1186.75,227.69 1191.67,240.66 1196.58,253.64 1201.50,265.36 1206.42,276.79 1211.33,288.22 1216.25,299.65 1221.17,311.06 1226.08,320.89 1231.00,330.73 1235.92,340.56 1240.83,350.40 1245.75,360.02 1250.67,368.86 1255.58,377.56 1260.50,385.94 1265.42,394.02 1270.33,401.88 1275.25,409.50 1280.17,416.86 1285.08,424.00 1290.00,430.94" fill="none" stroke="#2e7d32" stroke-width="2.4"/>
<polyline points="110.00,646.44 114.92,646.44 119.83,646.44 124.75,646.44 129.67,646.44 134.58,646.44 139.50,646.44 144.42,646.44 149.33,646.44 154.25,646.44 159.17,646.44 164.08,126.02 169.00,101.82 173.92,98.71 178.83,97.62 183.75,97.94 188.67,98.70 193.58,99.61 198.50,100.68 203.42,101.85 208.33,103.68 213.25,105.50 218.17,107.33 223.08,109.16 228.00,112.40 232.92,116.37 237.83,120.34 242.75,124.31 247.67,128.28 252.58,136.45 257.50,145.32 262.42,154.19 267.33,169.25 272.25,187.62 277.17,219.37 282.08,275.76 287.00,390.68 291.92,497.53 296.83,551.34 301.75,578.52 306.67,593.61 311.58,603.63 316.50,610.97 321.42,616.58 326.33,620.63 331.25,624.39 336.17,626.90 341.08,629.35 346.00,631.28 350.92,632.90 355.83,634.52 360.75,113.74 365.67,100.75 370.58,98.33 375.50,97.44 380.42,97.81 385.33,98.54 390.25,99.44 395.17,100.44 400.08,101.81 405.00,103.18 409.92,104.55 414.83,106.97 419.75,109.62 424.67,112.27 429.58,114.92 434.50,117.63 439.42,124.15 444.33,130.68 449.25,137.20 454.17,143.73 459.08,151.95 464.00,166.42 468.92,184.34 473.83,212.26 478.75,266.25 483.67,364.07 488.58,483.28 493.50,543.71 498.42,574.14 503.33,591.28 508.25,602.19 513.17,609.77 518.08,615.47 523.00,620.33 527.92,623.55 532.83,626.39 537.75,629.05 542.67,631.13 547.58,632.62 552.50,634.51 557.42,113.65 562.33,100.75 567.25,98.37 572.17,97.51 577.08,97.81 582.00,98.55 586.92,99.44 591.83,100.45 596.75,101.71 601.67,103.38 606.58,105.05 611.50,106.73 616.42,108.67 621.33,112.19 626.25,115.71 631.17,119.23 636.08,122.75 641.00,128.45 645.92,138.22 650.83,148.00 655.75,157.78 660.67,167.56 665.58,183.64 670.50,214.24 675.42,262.67 680.33,364.62 685.25,483.51 690.17,544.90 695.08,574.30 700.00,591.57 704.92,601.97 709.83,609.78 714.75,615.56 719.67,619.89 724.58,623.43 729.50,626.74 734.42,628.88 739.33,631.01 744.25,632.69 749.17,634.36 754.08,113.67 759.00,100.75 763.92,98.33 768.83,97.44 773.75,97.81 778.67,98.54 783.58,99.44 788.50,100.44 793.42,101.81 798.33,103.18 803.25,104.55 808.17,106.96 813.08,109.61 818.00,112.26 822.92,114.92 827.83,117.62 832.75,124.14 837.67,130.67 842.58,137.19 847.50,143.72 852.42,151.93 857.33,166.39 862.25,184.29 867.17,212.18 872.08,266.12 877.00,363.84 881.92,483.13 886.83,543.63 891.75,574.11 896.67,591.25 901.58,602.17 906.50,609.75 911.42,615.46 916.33,620.33 921.25,623.55 926.17,626.39 931.08,629.05 936.00,631.13 940.92,632.62 945.83,634.51 950.75,113.65 955.67,100.75 960.58,98.37 965.50,97.51 970.42,97.81 975.33,98.55 980.25,99.44 985.17,100.45 990.08,101.71 995.00,103.38 999.92,105.05 1004.83,106.73 1009.75,108.67 1014.67,112.19 1019.58,115.71 1024.50,119.23 1029.42,122.75 1034.33,128.44 1039.25,138.22 1044.17,148.01 1049.08,157.79 1054.00,167.58 1058.92,183.64 1063.83,214.24 1068.75,262.68 1073.67,364.66 1078.58,483.52 1083.50,544.87 1088.42,574.30 1093.33,591.57 1098.25,601.98 1103.17,609.78 1108.08,615.56 1113.00,619.89 1117.92,623.43 1122.83,626.74 1127.75,628.88 1132.67,631.01 1137.58,632.69 1142.50,634.36 1147.42,113.67 1152.33,100.75 1157.25,98.33 1162.17,97.44 1167.08,97.81 1172.00,98.54 1176.92,99.44 1181.83,100.44 1186.75,101.81 1191.67,103.18 1196.58,104.55 1201.50,106.96 1206.42,109.61 1211.33,112.26 1216.25,114.92 1221.17,117.62 1226.08,124.14 1231.00,130.67 1235.92,137.19 1240.83,143.72 1245.75,151.93 1250.67,166.39 1255.58,184.29 1260.50,212.18 1265.42,266.12 1270.33,363.84 1275.25,483.13 1280.17,543.63 1285.08,574.45 1290.00,591.85" fill="none" stroke="#ef6c00" stroke-width="2.4"/>
<line x1="130" y1="705" x2="160" y2="705" stroke="#1565c0" stroke-width="4"/>
<text x="170" y="710" font-family="Helvetica,Arial,sans-serif" font-size="18" font-weight="normal" fill="#1f2937">pre</text>
<line x1="130" y1="733" x2="160" y2="733" stroke="#2e7d32" stroke-width="4"/>
<text x="170" y="738" font-family="Helvetica,Arial,sans-serif" font-size="18" font-weight="normal" fill="#1f2937">post</text>
<line x1="130" y1="761" x2="160" y2="761" stroke="#ef6c00" stroke-width="4"/>
<text x="170" y="766" font-family="Helvetica,Arial,sans-serif" font-size="18" font-weight="normal" fill="#1f2937">out</text>
</svg>
