<svg xmlns="http://www.w3.org/2000/svg" width="1100" height="620" viewBox="0 0 1100 620">
<rect x="0" y="0" width="100%" height="100%" fill="#f7fafc"/>
<text x="24" y="42" font-family="Helvetica,Arial,sans-serif" font-size="30" font-weight="bold" fill="#102033">Temporal Gradient Training Loss</text>
<rect x="90" y="80" width="920" height="420" fill="#ffffff" stroke="#d1d9e6" stroke-width="2"/>
<line x1="90" y1="500.00" x2="1010" y2="500.00" stroke="#e6ecf2" stroke-width="1"/>
<text x="16" y="504.00" font-family="Helvetica,Arial,sans-serif" font-size="12" fill="#4a5d73">0.00</text>
<line x1="90" y1="416.00" x2="1010" y2="416.00" stroke="#e6ecf2" stroke-width="1"/>
<text x="16" y="420.00" font-family="Helvetica,Arial,sans-serif" font-size="12" fill="#4a5d73">0.66</text>
<line x1="90" y1="332.00" x2="1010" y2="332.00" stroke="#e6ecf2" stroke-width="1"/>
<text x="16" y="336.00" font-family="Helvetica,Arial,sans-serif" font-size="12" fill="#4a5d73">1.32</text>
<line x1="90" y1="248.00" x2="1010" y2="248.00" stroke="#e6ecf2" stroke-width="1"/>
<text x="16" y="252.00" font-family="Helvetica,Arial,sans-serif" font-size="12" fill="#4a5d73">1.99</text>
<line x1="90" y1="164.00" x2="1010" y2="164.00" stroke="#e6ecf2" stroke-width="1"/>
<text x="16" y="168.00" font-family="Helvetica,Arial,sans-serif" font-size="12" fill="#4a5d73">2.65</text>
<line x1="90" y1="80.00" x2="1010" y2="80.00" stroke="#e6ecf2" stroke-width="1"/>
<text x="16" y="84.00" font-family="Helvetica,Arial,sans-serif" font-size="12" fill="#4a5d73">3.31</text>
<circle cx="90.00" cy="118.18" r="4" fill="#d62728"/>
<text x="78.00" y="524" font-family="Helvetica,Arial,sans-serif" font-size="12" fill="#4a5d73">0</text>
<circle cx="274.00" cy="131.38" r="4" fill="#d62728"/>
<text x="262.00" y="524" font-family="Helvetica,Arial,sans-serif" font-size="12" fill="#4a5d73">1</text>
<circle cx="458.00" cy="147.02" r="4" fill="#d62728"/>
<text x="446.00" y="524" font-family="Helvetica,Arial,sans-serif" font-size="12" fill="#4a5d73">2</text>
<circle cx="642.00" cy="162.07" r="4" fill="#d62728"/>
<text x="630.00" y="524" font-family="Helvetica,Arial,sans-serif" font-size="12" fill="#4a5d73">3</text>
<circle cx="826.00" cy="177.10" r="4" fill="#d62728"/>
<text x="814.00" y="524" font-family="Helvetica,Arial,sans-serif" font-size="12" fill="#4a5d73">4</text>
<circle cx="1010.00" cy="193.29" r="4" fill="#d62728"/>
<text x="998.00" y="524" font-family="Helvetica,Arial,sans-serif" font-size="12" fill="#4a5d73">5</text>
<polyline points="90.00,118.18 274.00,131.38 458.00,147.02 642.00,162.07 826.00,177.10 1010.00,193.29" fill="none" stroke="#d62728" stroke-width="3"/>
<text x="1020" y="524" font-family="Helvetica,Arial,sans-serif" font-size="12" font-weight="bold" fill="#2c3e50">step</text>
<text x="20" y="518" font-family="Helvetica,Arial,sans-serif" font-size="12" font-weight="bold" fill="#2c3e50">loss</text>
</svg>
