<svg xmlns="http://www.w3.org/2000/svg" width="1280" height="760" viewBox="0 0 1280 760">
<rect x="0" y="0" width="100%" height="100%" fill="#f7fafc"/>
<text x="28" y="46" font-family="Helvetica,Arial,sans-serif" font-size="30" font-weight="bold" fill="#102033">Binary Matmul Scaling: Energy Estimate vs Matrix Size</text>
<rect x="100" y="90" width="1080" height="520" fill="#ffffff" stroke="#d1d9e6" stroke-width="2"/>
<line x1="100" y1="90.00" x2="1180" y2="90.00" stroke="#e6ecf2" stroke-width="1"/>
<text x="20" y="94.0" font-family="Helvetica,Arial,sans-serif" font-size="12" font-weight="normal" fill="#4a5d73">6680.3</text>
<line x1="100" y1="194.00" x2="1180" y2="194.00" stroke="#e6ecf2" stroke-width="1"/>
<text x="20" y="198.0" font-family="Helvetica,Arial,sans-serif" font-size="12" font-weight="normal" fill="#4a5d73">5344.2</text>
<line x1="100" y1="298.00" x2="1180" y2="298.00" stroke="#e6ecf2" stroke-width="1"/>
<text x="20" y="302.0" font-family="Helvetica,Arial,sans-serif" font-size="12" font-weight="normal" fill="#4a5d73">4008.2</text>
<line x1="100" y1="402.00" x2="1180" y2="402.00" stroke="#e6ecf2" stroke-width="1"/>
<text x="20" y="406.0" font-family="Helvetica,Arial,sans-serif" font-size="12" font-weight="normal" fill="#4a5d73">2672.1</text>
<line x1="100" y1="506.00" x2="1180" y2="506.00" stroke="#e6ecf2" stroke-width="1"/>
<text x="20" y="510.0" font-family="Helvetica,Arial,sans-serif" font-size="12" font-weight="normal" fill="#4a5d73">1336.1</text>
<line x1="100" y1="610.00" x2="1180" y2="610.00" stroke="#e6ecf2" stroke-width="1"/>
<text x="20" y="614.0" font-family="Helvetica,Arial,sans-serif" font-size="12" font-weight="normal" fill="#4a5d73">0.0</text>
<text x="20" y="80" font-family="Helvetica,Arial,sans-serif" font-size="12" font-weight="bold" fill="#2c3e50">pJ</text>
<line x1="100.00" y1="90" x2="100.00" y2="610" stroke="#eef2f7" stroke-width="1"/>
<text x="90.0" y="634" font-family="Helvetica,Arial,sans-serif" font-size="12" font-weight="normal" fill="#4a5d73">2</text>
<line x1="254.29" y1="90" x2="254.29" y2="610" stroke="#eef2f7" stroke-width="1"/>
<text x="244.28571428571428" y="634" font-family="Helvetica,Arial,sans-serif" font-size="12" font-weight="normal" fill="#4a5d73">4</text>
<line x1="562.86" y1="90" x2="562.86" y2="610" stroke="#eef2f7" stroke-width="1"/>
<text x="552.8571428571429" y="634" font-family="Helvetica,Arial,sans-serif" font-size="12" font-weight="normal" fill="#4a5d73">8</text>
<line x1="871.43" y1="90" x2="871.43" y2="610" stroke="#eef2f7" stroke-width="1"/>
<text x="861.4285714285714" y="634" font-family="Helvetica,Arial,sans-serif" font-size="12" font-weight="normal" fill="#4a5d73">12</text>
<line x1="1180.00" y1="90" x2="1180.00" y2="610" stroke="#eef2f7" stroke-width="1"/>
<text x="1170.0" y="634" font-family="Helvetica,Arial,sans-serif" font-size="12" font-weight="normal" fill="#4a5d73">16</text>
<text x="1194" y="634" font-family="Helvetica,Arial,sans-serif" font-size="12" font-weight="bold" fill="#2c3e50">N</text>
<polyline points="100.00,610.00 254.29,609.96 562.86,609.63 871.43,608.72 1180.00,606.93" fill="none" stroke="#1f77b4" stroke-width="3.0"/>
<polyline points="100.00,610.00 254.29,609.86 562.86,608.92 871.43,606.83 1180.00,601.00" fill="none" stroke="#d62728" stroke-width="2.2"/>
<polyline points="100.00,609.86 254.29,609.20 562.86,601.84 871.43,579.31 1180.00,540.94" fill="none" stroke="#2ca02c" stroke-width="2.2"/>
<polyline points="100.00,609.41 254.29,606.69 562.86,587.29 871.43,539.47 1180.00,442.65" fill="none" stroke="#ff7f0e" stroke-width="2.2"/>
<polyline points="100.00,608.81 254.29,602.64 562.86,553.98 871.43,416.32 1180.00,157.83" fill="none" stroke="#9467bd" stroke-width="2.2"/>
<line x1="120" y1="668" x2="154" y2="668" stroke="#1f77b4" stroke-width="3"/>
<text x="164" y="673" font-family="Helvetica,Arial,sans-serif" font-size="15" font-weight="normal" fill="#102033">digital model</text>
<line x1="120" y1="696" x2="154" y2="696" stroke="#d62728" stroke-width="3"/>
<text x="164" y="701" font-family="Helvetica,Arial,sans-serif" font-size="15" font-weight="normal" fill="#102033">neuro model (density=0.10)</text>
<line x1="120" y1="724" x2="154" y2="724" stroke="#2ca02c" stroke-width="3"/>
<text x="164" y="729" font-family="Helvetica,Arial,sans-serif" font-size="15" font-weight="normal" fill="#102033">neuro model (density=0.30)</text>
<line x1="120" y1="752" x2="154" y2="752" stroke="#ff7f0e" stroke-width="3"/>
<text x="164" y="757" font-family="Helvetica,Arial,sans-serif" font-size="15" font-weight="normal" fill="#102033">neuro model (density=0.50)</text>
<line x1="120" y1="780" x2="154" y2="780" stroke="#9467bd" stroke-width="3"/>
<text x="164" y="785" font-family="Helvetica,Arial,sans-serif" font-size="15" font-weight="normal" fill="#102033">neuro model (density=0.80)</text>
</svg>
