<svg xmlns="http://www.w3.org/2000/svg" width="1240" height="720" viewBox="0 0 1240 720">
<rect x="0" y="0" width="100%" height="100%" fill="#f7fafc"/>
<text x="24" y="44" font-family="Helvetica,Arial,sans-serif" font-size="30" font-weight="bold" fill="#102033">Sparse Temporal Benchmark: Energy per Correct Event</text>
<rect x="110" y="90" width="1020" height="500" fill="#ffffff" stroke="#d1d9e6" stroke-width="2"/>
<line x1="110" y1="590.00" x2="1130" y2="590.00" stroke="#e6ecf2" stroke-width="1"/>
<text x="16" y="594.0" font-family="Helvetica,Arial,sans-serif" font-size="12" font-weight="normal" fill="#4a5d73">0.033</text>
<line x1="110" y1="490.00" x2="1130" y2="490.00" stroke="#e6ecf2" stroke-width="1"/>
<text x="16" y="494.0" font-family="Helvetica,Arial,sans-serif" font-size="12" font-weight="normal" fill="#4a5d73">0.131</text>
<line x1="110" y1="390.00" x2="1130" y2="390.00" stroke="#e6ecf2" stroke-width="1"/>
<text x="16" y="394.0" font-family="Helvetica,Arial,sans-serif" font-size="12" font-weight="normal" fill="#4a5d73">0.523</text>
<line x1="110" y1="290.00" x2="1130" y2="290.00" stroke="#e6ecf2" stroke-width="1"/>
<text x="16" y="294.0" font-family="Helvetica,Arial,sans-serif" font-size="12" font-weight="normal" fill="#4a5d73">2.086</text>
<line x1="110" y1="190.00" x2="1130" y2="190.00" stroke="#e6ecf2" stroke-width="1"/>
<text x="16" y="194.0" font-family="Helvetica,Arial,sans-serif" font-size="12" font-weight="normal" fill="#4a5d73">8.326</text>
<line x1="110" y1="90.00" x2="1130" y2="90.00" stroke="#e6ecf2" stroke-width="1"/>
<text x="16" y="94.00000000000006" font-family="Helvetica,Arial,sans-serif" font-size="12" font-weight="normal" fill="#4a5d73">33.232</text>
<line x1="110.00" y1="90" x2="110.00" y2="590" stroke="#eef2f7" stroke-width="1"/>
<text x="92.0" y="614" font-family="Helvetica,Arial,sans-serif" font-size="12" font-weight="normal" fill="#4a5d73">0.001%</text>
<line x1="231.67" y1="90" x2="231.67" y2="590" stroke="#eef2f7" stroke-width="1"/>
<text x="213.66591995351396" y="614" font-family="Helvetica,Arial,sans-serif" font-size="12" font-weight="normal" fill="#4a5d73">0.003%</text>
<line x1="365.00" y1="90" x2="365.00" y2="590" stroke="#eef2f7" stroke-width="1"/>
<text x="347.0" y="614" font-family="Helvetica,Arial,sans-serif" font-size="12" font-weight="normal" fill="#4a5d73">0.010%</text>
<line x1="486.67" y1="90" x2="486.67" y2="590" stroke="#eef2f7" stroke-width="1"/>
<text x="468.66591995351394" y="614" font-family="Helvetica,Arial,sans-serif" font-size="12" font-weight="normal" fill="#4a5d73">0.030%</text>
<line x1="620.00" y1="90" x2="620.00" y2="590" stroke="#eef2f7" stroke-width="1"/>
<text x="602.0" y="614" font-family="Helvetica,Arial,sans-serif" font-size="12" font-weight="normal" fill="#4a5d73">0.100%</text>
<line x1="741.67" y1="90" x2="741.67" y2="590" stroke="#eef2f7" stroke-width="1"/>
<text x="723.6659199535139" y="614" font-family="Helvetica,Arial,sans-serif" font-size="12" font-weight="normal" fill="#4a5d73">0.300%</text>
<line x1="875.00" y1="90" x2="875.00" y2="590" stroke="#eef2f7" stroke-width="1"/>
<text x="857.0" y="614" font-family="Helvetica,Arial,sans-serif" font-size="12" font-weight="normal" fill="#4a5d73">1.000%</text>
<line x1="996.67" y1="90" x2="996.67" y2="590" stroke="#eef2f7" stroke-width="1"/>
<text x="978.6659199535139" y="614" font-family="Helvetica,Arial,sans-serif" font-size="12" font-weight="normal" fill="#4a5d73">3.000%</text>
<line x1="1130.00" y1="90" x2="1130.00" y2="590" stroke="#eef2f7" stroke-width="1"/>
<text x="1112.0" y="614" font-family="Helvetica,Arial,sans-serif" font-size="12" font-weight="normal" fill="#4a5d73">10.000%</text>
<polyline points="110.00,90.00 231.67,169.24 365.00,255.78 486.67,333.89 620.00,416.63 741.67,485.08 875.00,543.21 996.67,574.68 1130.00,590.00" fill="none" stroke="#1f77b4" stroke-width="3"/>
<polyline points="110.00,189.84 231.67,226.73 365.00,245.91 486.67,252.48 620.00,254.92 741.67,255.64 875.00,255.89 996.67,255.96 1130.00,255.99" fill="none" stroke="#d62728" stroke-width="3"/>
<line x1="130" y1="646" x2="162" y2="646" stroke="#1f77b4" stroke-width="3"/>
<text x="172" y="651" font-family="Helvetica,Arial,sans-serif" font-size="14" font-weight="normal" fill="#102033">digital</text>
<line x1="130" y1="674" x2="162" y2="674" stroke="#d62728" stroke-width="3"/>
<text x="172" y="679" font-family="Helvetica,Arial,sans-serif" font-size="14" font-weight="normal" fill="#102033">neuro</text>
<text x="8" y="608" font-family="Helvetica,Arial,sans-serif" font-size="12" font-weight="bold" fill="#2c3e50">pJ per true positive (log scale)</text>
<text x="1140" y="614" font-family="Helvetica,Arial,sans-serif" font-size="12" font-weight="bold" fill="#2c3e50">active fraction</text>
</svg>
