<svg xmlns="http://www.w3.org/2000/svg" width="1240" height="720" viewBox="0 0 1240 720">
<rect x="0" y="0" width="100%" height="100%" fill="#f7fafc"/>
<text x="24" y="44" font-family="Helvetica,Arial,sans-serif" font-size="30" font-weight="bold" fill="#102033">Sparse Temporal Benchmark: Neuro/Digital Energy Ratio</text>
<rect x="110" y="90" width="1020" height="500" fill="#ffffff" stroke="#d1d9e6" stroke-width="2"/>
<line x1="110" y1="590.00" x2="1130" y2="590.00" stroke="#e6ecf2" stroke-width="1"/>
<text x="26" y="594.0" font-family="Helvetica,Arial,sans-serif" font-size="12" font-weight="normal" fill="#4a5d73">0.0</text>
<line x1="110" y1="490.00" x2="1130" y2="490.00" stroke="#e6ecf2" stroke-width="1"/>
<text x="26" y="494.0" font-family="Helvetica,Arial,sans-serif" font-size="12" font-weight="normal" fill="#4a5d73">22.4</text>
<line x1="110" y1="390.00" x2="1130" y2="390.00" stroke="#e6ecf2" stroke-width="1"/>
<text x="26" y="394.0" font-family="Helvetica,Arial,sans-serif" font-size="12" font-weight="normal" fill="#4a5d73">44.8</text>
<line x1="110" y1="290.00" x2="1130" y2="290.00" stroke="#e6ecf2" stroke-width="1"/>
<text x="26" y="293.99999999999994" font-family="Helvetica,Arial,sans-serif" font-size="12" font-weight="normal" fill="#4a5d73">67.2</text>
<line x1="110" y1="190.00" x2="1130" y2="190.00" stroke="#e6ecf2" stroke-width="1"/>
<text x="26" y="194.00000000000006" font-family="Helvetica,Arial,sans-serif" font-size="12" font-weight="normal" fill="#4a5d73">89.6</text>
<line x1="110" y1="90.00" x2="1130" y2="90.00" stroke="#e6ecf2" stroke-width="1"/>
<text x="26" y="93.99999999999989" font-family="Helvetica,Arial,sans-serif" font-size="12" font-weight="normal" fill="#4a5d73">112.0</text>
<line x1="110.00" y1="90" x2="110.00" y2="590" stroke="#eef2f7" stroke-width="1"/>
<text x="92.0" y="614" font-family="Helvetica,Arial,sans-serif" font-size="12" font-weight="normal" fill="#4a5d73">0.001%</text>
<line x1="231.67" y1="90" x2="231.67" y2="590" stroke="#eef2f7" stroke-width="1"/>
<text x="213.66591995351396" y="614" font-family="Helvetica,Arial,sans-serif" font-size="12" font-weight="normal" fill="#4a5d73">0.003%</text>
<line x1="365.00" y1="90" x2="365.00" y2="590" stroke="#eef2f7" stroke-width="1"/>
<text x="347.0" y="614" font-family="Helvetica,Arial,sans-serif" font-size="12" font-weight="normal" fill="#4a5d73">0.010%</text>
<line x1="486.67" y1="90" x2="486.67" y2="590" stroke="#eef2f7" stroke-width="1"/>
<text x="468.66591995351394" y="614" font-family="Helvetica,Arial,sans-serif" font-size="12" font-weight="normal" fill="#4a5d73">0.030%</text>
<line x1="620.00" y1="90" x2="620.00" y2="590" stroke="#eef2f7" stroke-width="1"/>
<text x="602.0" y="614" font-family="Helvetica,Arial,sans-serif" font-size="12" font-weight="normal" fill="#4a5d73">0.100%</text>
<line x1="741.67" y1="90" x2="741.67" y2="590" stroke="#eef2f7" stroke-width="1"/>
<text x="723.6659199535139" y="614" font-family="Helvetica,Arial,sans-serif" font-size="12" font-weight="normal" fill="#4a5d73">0.300%</text>
<line x1="875.00" y1="90" x2="875.00" y2="590" stroke="#eef2f7" stroke-width="1"/>
<text x="857.0" y="614" font-family="Helvetica,Arial,sans-serif" font-size="12" font-weight="normal" fill="#4a5d73">1.000%</text>
<line x1="996.67" y1="90" x2="996.67" y2="590" stroke="#eef2f7" stroke-width="1"/>
<text x="978.6659199535139" y="614" font-family="Helvetica,Arial,sans-serif" font-size="12" font-weight="normal" fill="#4a5d73">3.000%</text>
<line x1="1130.00" y1="90" x2="1130.00" y2="590" stroke="#eef2f7" stroke-width="1"/>
<text x="1112.0" y="614" font-family="Helvetica,Arial,sans-serif" font-size="12" font-weight="normal" fill="#4a5d73">10.000%</text>
<line x1="110" y1="585.54" x2="1130" y2="585.54" stroke="#111827" stroke-width="2" stroke-dasharray="8,6"/>
<text x="1010" y="575.5357718755972" font-family="Helvetica,Arial,sans-serif" font-size="12" font-weight="bold" fill="#111827">ratio=1</text>
<polyline points="110.00,588.88 231.67,587.99 365.00,584.88 486.67,576.22 620.00,548.14 741.67,483.10 875.00,351.81 996.67,222.16 1130.00,135.45" fill="none" stroke="#d62728" stroke-width="3"/>
<line x1="347.34" y1="90" x2="347.34" y2="590" stroke="#0f766e" stroke-width="2" stroke-dasharray="5,5"/>
<text x="355.3385139949494" y="110" font-family="Helvetica,Arial,sans-serif" font-size="12" font-weight="bold" fill="#0f766e">crossover ~ 0.0085%</text>
<text x="24" y="608" font-family="Helvetica,Arial,sans-serif" font-size="12" font-weight="bold" fill="#2c3e50">Neuro/Digital</text>
<text x="1140" y="614" font-family="Helvetica,Arial,sans-serif" font-size="12" font-weight="bold" fill="#2c3e50">active fraction</text>
</svg>
