<svg xmlns="http://www.w3.org/2000/svg" width="1400" height="820" viewBox="0 0 1400 820">
<rect x="0" y="0" width="100%" height="100%" fill="#f8fbff"/>
<text x="30" y="44" font-family="Helvetica,Arial,sans-serif" font-size="30" font-weight="bold" fill="#1f2937">LIF Neuron Waveforms (mem/spike/out)</text>
<rect x="110" y="90" width="1180" height="560" fill="#ffffff" stroke="#cbd5e1" stroke-width="2"/>
<line x1="110" y1="90.00" x2="1290" y2="90.00" stroke="#e2e8f0" stroke-width="1"/>
<text x="30" y="95.0" font-family="Helvetica,Arial,sans-serif" font-size="13" font-weight="normal" fill="#64748b">1.80V</text>
<line x1="110" y1="146.00" x2="1290" y2="146.00" stroke="#e2e8f0" stroke-width="1"/>
<text x="30" y="151.0" font-family="Helvetica,Arial,sans-serif" font-size="13" font-weight="normal" fill="#64748b">1.62V</text>
<line x1="110" y1="202.00" x2="1290" y2="202.00" stroke="#e2e8f0" stroke-width="1"/>
<text x="30" y="207.0" font-family="Helvetica,Arial,sans-serif" font-size="13" font-weight="normal" fill="#64748b">1.44V</text>
<line x1="110" y1="258.00" x2="1290" y2="258.00" stroke="#e2e8f0" stroke-width="1"/>
<text x="30" y="263.0" font-family="Helvetica,Arial,sans-serif" font-size="13" font-weight="normal" fill="#64748b">1.26V</text>
<line x1="110" y1="314.00" x2="1290" y2="314.00" stroke="#e2e8f0" stroke-width="1"/>
<text x="30" y="319.0" font-family="Helvetica,Arial,sans-serif" font-size="13" font-weight="normal" fill="#64748b">1.08V</text>
<line x1="110" y1="370.00" x2="1290" y2="370.00" stroke="#e2e8f0" stroke-width="1"/>
<text x="30" y="375.0" font-family="Helvetica,Arial,sans-serif" font-size="13" font-weight="normal" fill="#64748b">0.90V</text>
<line x1="110" y1="426.00" x2="1290" y2="426.00" stroke="#e2e8f0" stroke-width="1"/>
<text x="30" y="431.0" font-family="Helvetica,Arial,sans-serif" font-size="13" font-weight="normal" fill="#64748b">0.72V</text>
<line x1="110" y1="482.00" x2="1290" y2="482.00" stroke="#e2e8f0" stroke-width="1"/>
<text x="30" y="487.0" font-family="Helvetica,Arial,sans-serif" font-size="13" font-weight="normal" fill="#64748b">0.54V</text>
<line x1="110" y1="538.00" x2="1290" y2="538.00" stroke="#e2e8f0" stroke-width="1"/>
<text x="30" y="543.0" font-family="Helvetica,Arial,sans-serif" font-size="13" font-weight="normal" fill="#64748b">0.36V</text>
<line x1="110" y1="594.00" x2="1290" y2="594.00" stroke="#e2e8f0" stroke-width="1"/>
<text x="30" y="599.0" font-family="Helvetica,Arial,sans-serif" font-size="13" font-weight="normal" fill="#64748b">0.18V</text>
<line x1="110" y1="650.00" x2="1290" y2="650.00" stroke="#e2e8f0" stroke-width="1"/>
<text x="30" y="655.0" font-family="Helvetica,Arial,sans-serif" font-size="13" font-weight="normal" fill="#64748b">0.00V</text>
<line x1="110.00" y1="90" x2="110.00" y2="650" stroke="#e2e8f0" stroke-width="1"/>
<text x="92.0" y="676" font-family="Helvetica,Arial,sans-serif" font-size="13" font-weight="normal" fill="#64748b">0ns</text>
<line x1="228.00" y1="90" x2="228.00" y2="650" stroke="#e2e8f0" stroke-width="1"/>
<text x="210.0" y="676" font-family="Helvetica,Arial,sans-serif" font-size="13" font-weight="normal" fill="#64748b">20ns</text>
<line x1="346.00" y1="90" x2="346.00" y2="650" stroke="#e2e8f0" stroke-width="1"/>
<text x="328.0" y="676" font-family="Helvetica,Arial,sans-serif" font-size="13" font-weight="normal" fill="#64748b">40ns</text>
<line x1="464.00" y1="90" x2="464.00" y2="650" stroke="#e2e8f0" stroke-width="1"/>
<text x="446.0" y="676" font-family="Helvetica,Arial,sans-serif" font-size="13" font-weight="normal" fill="#64748b">60ns</text>
<line x1="582.00" y1="90" x2="582.00" y2="650" stroke="#e2e8f0" stroke-width="1"/>
<text x="564.0" y="676" font-family="Helvetica,Arial,sans-serif" font-size="13" font-weight="normal" fill="#64748b">80ns</text>
<line x1="700.00" y1="90" x2="700.00" y2="650" stroke="#e2e8f0" stroke-width="1"/>
<text x="682.0" y="676" font-family="Helvetica,Arial,sans-serif" font-size="13" font-weight="normal" fill="#64748b">100ns</text>
<line x1="818.00" y1="90" x2="818.00" y2="650" stroke="#e2e8f0" stroke-width="1"/>
<text x="800.0" y="676" font-family="Helvetica,Arial,sans-serif" font-size="13" font-weight="normal" fill="#64748b">120ns</text>
<line x1="936.00" y1="90" x2="936.00" y2="650" stroke="#e2e8f0" stroke-width="1"/>
<text x="918.0" y="676" font-family="Helvetica,Arial,sans-serif" font-size="13" font-weight="normal" fill="#64748b">140ns</text>
<line x1="1054.00" y1="90" x2="1054.00" y2="650" stroke="#e2e8f0" stroke-width="1"/>
<text x="1036.0" y="676" font-family="Helvetica,Arial,sans-serif" font-size="13" font-weight="normal" fill="#64748b">160ns</text>
<line x1="1172.00" y1="90" x2="1172.00" y2="650" stroke="#e2e8f0" stroke-width="1"/>
<text x="1154.0" y="676" font-family="Helvetica,Arial,sans-serif" font-size="13" font-weight="normal" fill="#64748b">180ns</text>
<line x1="1290.00" y1="90" x2="1290.00" y2="650" stroke="#e2e8f0" stroke-width="1"/>
<text x="1272.0" y="676" font-family="Helvetica,Arial,sans-serif" font-size="13" font-weight="normal" fill="#64748b">200ns</text>
<polyline points="110.00,650.00 112.96,650.00 115.91,650.00 118.87,650.00 121.83,650.00 124.79,650.00 127.74,650.00 130.70,650.00 133.66,650.00 136.62,650.00 139.57,650.00 142.53,572.44 145.49,494.96 148.45,417.78 151.40,348.27 154.36,339.48 157.32,352.03 160.28,363.81 163.23,374.88 166.19,385.05 169.15,393.95 172.11,401.05 175.06,405.77 178.02,408.94 180.98,411.35 183.93,413.35 186.89,415.08 189.85,416.58 192.81,417.95 195.76,419.22 198.72,420.41 201.68,421.49 204.64,422.58 207.59,423.57 210.55,424.55 213.51,425.45 216.47,426.34 219.42,427.23 222.38,428.08 225.34,428.88 228.30,429.68 231.25,430.48 234.21,431.21 237.17,431.94 240.13,432.67 243.08,433.40 246.04,434.11 249.00,434.78 251.95,435.45 254.91,436.12 257.87,436.79 260.83,364.60 263.78,299.94 266.74,237.58 269.70,176.65 272.66,178.54 275.61,195.75 278.57,212.57 281.53,229.14 284.49,245.13 287.44,260.43 290.40,275.72 293.36,291.02 296.32,305.54 299.27,318.55 302.23,331.57 305.19,344.58 308.15,357.60 311.10,369.47 314.06,379.76 317.02,389.56 319.97,397.67 322.93,403.63 325.89,407.47 328.85,410.21 331.80,412.39 334.76,414.24 337.72,415.84 340.68,417.28 343.63,418.60 346.59,419.81 349.55,420.95 352.51,422.03 355.46,423.06 358.42,424.05 361.38,425.00 364.34,425.90 367.29,426.78 370.25,427.64 373.21,428.46 376.17,429.29 379.12,363.13 382.08,298.54 385.04,236.21 387.99,175.32 390.95,177.23 393.91,194.46 396.87,211.31 399.82,227.94 402.78,243.86 405.74,259.28 408.70,274.70 411.65,290.13 414.61,304.18 417.57,317.37 420.53,330.56 423.48,343.76 426.44,356.95 429.40,368.69 432.36,379.02 435.31,388.86 438.27,397.13 441.23,403.27 444.19,407.24 447.14,410.03 450.10,412.24 453.06,414.10 456.02,415.73 458.97,417.17 461.93,418.49 464.89,419.71 467.84,420.86 470.80,421.95 473.76,422.99 476.72,423.97 479.67,424.92 482.63,425.83 485.59,426.71 488.55,427.57 491.50,428.40 494.46,429.22 497.42,362.84 500.38,298.25 503.33,235.93 506.29,175.04 509.25,171.21 512.21,188.55 515.16,205.52 518.12,222.31 521.08,238.33 524.04,254.11 526.99,269.90 529.95,284.86 532.91,298.58 535.86,312.30 538.82,326.02 541.78,339.74 544.74,352.98 547.69,364.62 550.65,375.53 553.61,385.70 556.57,394.32 559.52,401.47 562.48,406.04 565.44,409.14 568.40,411.52 571.35,413.49 574.31,415.19 577.27,416.69 580.23,418.05 583.18,419.31 586.14,420.48 589.10,421.58 592.06,422.63 595.01,423.64 597.97,424.59 600.93,425.53 603.88,426.41 606.84,427.28 609.80,428.12 612.76,428.94 615.71,362.29 618.67,297.74 621.63,235.44 624.59,174.55 627.54,176.47 630.50,193.71 633.46,210.58 636.42,227.19 639.37,243.25 642.33,258.58 645.29,273.90 648.25,289.23 651.20,303.92 654.16,316.96 657.12,329.99 660.08,343.03 663.03,356.06 665.99,368.12 668.95,378.55 671.90,388.54 674.86,396.81 677.82,403.05 680.78,407.09 683.73,409.92 686.69,412.16 689.65,414.02 692.61,415.67 695.56,417.12 698.52,418.45 701.48,419.67 704.44,420.82 707.39,421.91 710.35,422.94 713.31,423.93 716.27,424.88 719.22,425.79 722.18,426.68 725.14,427.54 728.10,428.37 731.05,429.19 734.01,363.05 736.97,298.46 739.92,236.14 742.88,175.24 745.84,177.15 748.80,194.39 751.75,211.24 754.71,227.87 757.67,243.80 760.63,259.21 763.58,274.62 766.54,290.02 769.50,304.17 772.46,317.34 775.41,330.51 778.37,343.67 781.33,356.84 784.29,368.63 787.24,378.97 790.20,388.83 793.16,397.10 796.12,403.25 799.07,407.22 802.03,410.02 804.99,412.23 807.94,414.10 810.90,415.72 813.86,417.17 816.82,418.49 819.77,419.72 822.73,420.87 825.69,421.95 828.65,422.97 831.60,423.96 834.56,424.91 837.52,425.82 840.48,426.71 843.43,427.57 846.39,428.40 849.35,429.21 852.31,362.94 855.26,298.34 858.22,236.02 861.18,175.13 864.14,171.30 867.09,188.64 870.05,205.61 873.01,222.39 875.96,238.41 878.92,254.19 881.88,269.98 884.84,284.94 887.79,298.65 890.75,312.37 893.71,326.09 896.67,339.81 899.62,353.05 902.58,364.67 905.54,375.58 908.50,385.75 911.45,394.36 914.41,401.49 917.37,406.06 920.33,409.16 923.28,411.53 926.24,413.50 929.20,415.19 932.16,416.70 935.11,418.06 938.07,419.32 941.03,420.48 943.98,421.59 946.94,422.64 949.90,423.64 952.86,424.60 955.81,425.53 958.77,426.41 961.73,427.29 964.69,428.12 967.64,428.95 970.60,362.31 973.56,297.75 976.52,235.45 979.47,174.57 982.43,176.49 985.39,193.73 988.35,210.60 991.30,227.20 994.26,243.26 997.22,258.59 1000.18,273.92 1003.13,289.25 1006.09,303.92 1009.05,316.96 1012.01,330.00 1014.96,343.04 1017.92,356.08 1020.88,368.13 1023.83,378.56 1026.79,388.54 1029.75,396.81 1032.71,403.05 1035.66,407.09 1038.62,409.92 1041.58,412.15 1044.54,414.03 1047.49,415.66 1050.45,417.11 1053.41,418.44 1056.37,419.66 1059.32,420.81 1062.28,421.91 1065.24,422.93 1068.20,423.93 1071.15,424.87 1074.11,425.80 1077.07,426.67 1080.03,427.54 1082.98,428.37 1085.94,429.19 1088.90,362.47 1091.85,297.91 1094.81,235.60 1097.77,174.71 1100.73,176.63 1103.68,193.87 1106.64,210.74 1109.60,227.35 1112.56,243.37 1115.51,258.72 1118.47,274.07 1121.43,289.42 1124.39,303.96 1127.34,317.04 1130.30,330.11 1133.26,343.18 1136.22,356.25 1139.17,368.24 1142.13,378.64 1145.09,388.60 1148.05,396.87 1151.00,403.10 1153.96,407.12 1156.92,409.93 1159.87,412.15 1162.83,414.05 1165.79,415.67 1168.75,417.13 1171.70,418.43 1174.66,419.68 1177.62,420.84 1180.58,421.94 1183.53,422.94 1186.49,423.94 1189.45,424.91 1192.41,425.81 1195.36,426.71 1198.32,427.56 1201.28,428.39 1204.24,429.22 1207.19,363.07 1210.15,298.48 1213.11,236.16 1216.07,175.26 1219.02,177.17 1221.98,194.41 1224.94,211.26 1227.89,227.88 1230.85,243.82 1233.81,259.23 1236.77,274.63 1239.72,290.04 1242.68,304.19 1245.64,317.35 1248.60,330.52 1251.55,343.69 1254.51,356.85 1257.47,368.65 1260.43,378.98 1263.38,388.84 1266.34,397.11 1269.30,403.25 1272.26,407.23 1275.21,410.02 1278.17,412.23 1281.13,414.10 1284.09,415.72 1287.04,417.17 1290.00,418.49" fill="none" stroke="#1565c0" stroke-width="2.4"/>
<polyline points="110.00,647.27 112.96,647.27 115.91,647.27 118.87,647.27 121.83,647.27 124.79,647.27 127.74,647.27 130.70,647.27 133.66,647.27 136.62,647.27 139.57,647.27 142.53,644.70 145.49,634.46 148.45,556.82 151.40,140.22 154.36,131.87 157.32,142.06 160.28,156.92 163.23,177.44 166.19,208.76 169.15,259.62 172.11,346.10 175.06,433.73 178.02,479.16 180.98,504.07 183.93,521.16 186.89,534.32 189.85,544.05 192.81,551.65 195.76,557.82 198.72,562.89 201.68,566.90 204.64,570.90 207.59,573.93 210.55,576.92 213.51,579.29 216.47,581.55 219.42,583.82 222.38,585.82 225.34,587.51 228.30,589.21 231.25,590.87 234.21,592.17 237.17,593.47 240.13,594.77 243.08,596.08 246.04,597.30 249.00,598.30 251.95,599.30 254.91,600.30 257.87,601.31 260.83,160.05 263.78,114.46 266.74,102.84 269.70,98.19 272.66,98.11 275.61,99.08 278.57,100.32 281.53,101.77 284.49,103.85 287.44,106.69 290.40,109.53 293.36,112.37 296.32,117.10 299.27,125.51 302.23,133.91 305.19,142.31 308.15,150.71 311.10,165.56 314.06,194.80 317.02,231.46 319.97,297.97 322.93,396.80 325.89,460.08 328.85,493.12 331.80,513.38 334.76,528.11 337.72,539.55 340.68,548.25 343.63,555.06 346.59,560.45 349.55,565.02 352.51,568.97 355.46,572.37 358.42,575.40 361.38,578.19 364.34,580.55 367.29,582.76 370.25,584.81 373.21,586.66 376.17,588.52 379.12,157.80 382.08,113.98 385.04,102.63 387.99,98.10 390.95,98.05 393.91,99.00 396.87,100.23 399.82,101.62 402.78,103.76 405.74,106.43 408.70,109.10 411.65,111.76 414.61,117.55 417.57,125.29 420.53,133.03 423.48,140.77 426.44,148.51 429.40,163.75 432.36,192.22 435.31,228.58 438.27,292.11 441.23,390.26 444.19,456.88 447.14,491.32 450.10,512.10 453.06,527.11 456.02,538.84 458.97,547.66 461.93,554.53 464.89,560.04 467.84,564.70 470.80,568.73 473.76,572.14 476.72,575.21 479.67,577.98 482.63,580.34 485.59,582.57 488.55,584.71 491.50,586.61 494.46,588.25 497.42,157.36 500.38,113.86 503.33,102.58 506.29,98.09 509.25,97.77 512.21,98.65 515.16,99.78 518.12,101.06 521.08,103.04 524.04,105.26 526.99,107.48 529.95,111.23 532.91,117.31 535.86,123.39 538.82,129.47 541.78,135.55 544.74,143.55 547.69,159.64 550.65,181.48 553.61,213.45 556.57,270.10 559.52,354.61 562.48,438.25 565.44,481.62 568.40,505.71 571.35,522.35 574.31,535.05 577.27,545.01 580.23,552.35 583.18,558.41 586.14,563.18 589.10,567.37 592.06,571.02 595.01,574.17 597.97,576.99 600.93,579.69 603.88,581.85 606.84,583.97 609.80,585.92 612.76,587.82 615.71,156.49 618.67,113.82 621.63,102.58 624.59,98.08 627.54,98.01 630.50,98.95 633.46,100.17 636.42,101.58 639.37,103.59 642.33,106.38 645.29,109.18 648.25,111.98 651.20,116.31 654.16,124.63 657.12,132.95 660.08,141.28 663.03,149.60 665.99,163.40 668.95,191.12 671.90,224.52 674.86,287.98 677.82,386.12 680.78,454.69 683.73,490.19 686.69,511.38 689.65,526.46 692.61,538.47 695.56,547.41 698.52,554.42 701.48,559.81 704.44,564.50 707.39,568.57 710.35,571.97 713.31,575.06 716.27,577.86 719.22,580.28 722.18,582.50 725.14,584.59 728.10,586.45 731.05,588.32 734.01,157.67 736.97,113.97 739.92,102.63 742.88,98.10 745.84,98.04 748.80,98.99 751.75,100.22 754.71,101.62 757.67,103.74 760.63,106.43 763.58,109.12 766.54,111.81 769.50,117.39 772.46,125.22 775.41,133.05 778.37,140.88 781.33,148.71 784.29,163.70 787.24,192.17 790.20,228.19 793.16,291.68 796.12,389.82 799.07,456.73 802.03,491.17 804.99,512.02 807.94,527.13 810.90,538.73 813.86,547.63 816.82,554.62 819.77,560.04 822.73,564.86 825.69,568.64 828.65,572.13 831.60,575.25 834.56,577.87 837.52,580.33 840.48,582.71 843.43,584.67 846.39,586.53 849.35,588.43 852.31,157.51 855.26,113.86 858.22,102.57 861.18,98.09 864.14,97.77 867.09,98.65 870.05,99.79 873.01,101.06 875.96,103.05 878.92,105.27 881.88,107.49 884.84,111.25 887.79,117.33 890.75,123.42 893.71,129.50 896.67,135.59 899.62,143.62 902.58,159.75 905.54,181.59 908.50,213.67 911.45,270.47 914.41,355.18 917.37,438.57 920.33,481.79 923.28,505.81 926.24,522.42 929.20,535.11 932.16,545.05 935.11,552.39 938.07,558.43 941.03,563.20 943.98,567.39 946.94,571.04 949.90,574.19 952.86,577.00 955.81,579.70 958.77,581.86 961.73,583.98 964.69,585.93 967.64,587.83 970.60,156.51 973.56,113.82 976.52,102.58 979.47,98.08 982.43,98.01 985.39,98.95 988.35,100.17 991.30,101.58 994.26,103.59 997.22,106.38 1000.18,109.18 1003.13,111.97 1006.09,116.36 1009.05,124.66 1012.01,132.95 1014.96,141.25 1017.92,149.55 1020.88,163.40 1023.83,191.15 1026.79,224.64 1029.75,288.07 1032.71,386.26 1035.66,454.68 1038.62,490.13 1041.58,511.30 1044.54,526.57 1047.49,538.30 1050.45,547.26 1053.41,554.28 1056.37,559.76 1059.32,564.49 1062.28,568.66 1065.24,571.93 1068.20,575.08 1071.15,577.79 1074.11,580.36 1077.07,582.46 1080.03,584.57 1082.98,586.48 1085.94,588.33 1088.90,156.77 1091.85,113.85 1094.81,102.59 1097.77,98.08 1100.73,98.02 1103.68,98.96 1106.64,100.18 1109.60,101.59 1112.56,103.63 1115.51,106.39 1118.47,109.16 1121.43,111.93 1124.39,116.61 1127.34,124.80 1130.30,132.98 1133.26,141.17 1136.22,149.35 1139.17,163.50 1142.13,191.41 1145.09,225.47 1148.05,288.91 1151.00,387.01 1153.96,455.04 1156.92,490.23 1159.87,511.20 1162.83,526.67 1165.79,538.39 1168.75,547.37 1171.70,553.86 1174.66,559.77 1177.62,564.56 1180.58,568.74 1183.53,571.87 1186.49,575.01 1189.45,577.90 1192.41,580.24 1195.36,582.58 1198.32,584.65 1201.28,586.49 1204.24,588.33 1207.19,157.71 1210.15,113.97 1213.11,102.63 1216.07,98.10 1219.02,98.04 1221.98,98.99 1224.94,100.22 1227.89,101.62 1230.85,103.75 1233.81,106.43 1236.77,109.12 1239.72,111.81 1242.68,117.39 1245.64,125.23 1248.60,133.06 1251.55,140.90 1254.51,148.73 1257.47,163.72 1260.43,192.20 1263.38,228.24 1266.34,291.77 1269.30,389.92 1272.26,456.78 1275.21,491.20 1278.17,512.04 1281.13,527.15 1284.09,538.74 1287.04,547.64 1290.00,554.62" fill="none" stroke="#2e7d32" stroke-width="2.4"/>
<polyline points="110.00,95.72 112.96,95.72 115.91,95.72 118.87,95.72 121.83,95.72 124.79,95.72 127.74,95.72 130.70,95.72 133.66,95.72 136.62,95.72 139.57,95.72 142.53,96.17 145.49,98.30 148.45,126.83 151.40,642.02 154.36,643.33 157.32,641.85 160.28,639.32 163.23,635.05 166.19,626.67 169.15,607.41 172.11,540.13 175.06,281.34 178.02,195.01 180.98,166.47 183.93,151.39 186.89,140.96 189.85,134.82 192.81,129.82 195.76,126.43 198.72,123.96 201.68,121.69 204.64,119.41 207.59,118.27 210.55,117.16 213.51,116.02 216.47,114.87 219.42,113.72 222.38,112.89 225.34,112.40 228.30,111.92 231.25,111.43 234.21,110.81 237.17,110.19 240.13,109.57 243.08,108.96 246.04,108.45 249.00,108.26 251.95,108.07 254.91,107.89 257.87,107.70 260.83,638.62 263.78,645.50 266.74,646.66 269.70,647.06 272.66,647.03 275.61,646.95 278.57,646.84 281.53,646.71 284.49,646.51 287.44,646.23 290.40,645.95 293.36,645.66 296.32,645.08 299.27,643.90 302.23,642.72 305.19,641.55 308.15,640.37 311.10,637.72 314.06,630.21 317.02,618.65 319.97,583.76 322.93,428.98 325.89,223.77 328.85,177.76 331.80,157.59 334.76,145.35 337.72,137.84 340.68,131.69 343.63,128.31 346.59,124.70 349.55,122.68 352.51,120.88 355.46,118.74 358.42,117.45 361.38,116.69 364.34,115.48 367.29,114.13 370.25,113.24 373.21,112.86 376.17,112.49 379.12,639.06 382.08,645.52 385.04,646.65 387.99,647.04 390.95,647.03 393.91,646.95 396.87,646.84 399.82,646.72 402.78,646.52 405.74,646.25 408.70,645.99 411.65,645.73 414.61,644.99 417.57,643.94 420.53,642.89 423.48,641.84 426.44,640.79 429.40,638.12 432.36,631.03 435.31,619.53 438.27,587.68 441.23,448.93 444.19,229.52 447.14,180.11 450.10,158.41 453.06,146.22 456.02,137.49 458.97,132.44 461.93,128.37 464.89,125.14 467.84,122.75 470.80,120.97 473.76,118.65 476.72,117.80 479.67,116.70 482.63,115.16 485.59,114.23 488.55,113.80 491.50,112.96 494.46,111.67 497.42,639.14 500.38,645.53 503.33,646.66 506.29,647.04 509.25,647.06 512.21,646.98 515.16,646.88 518.12,646.77 521.08,646.59 524.04,646.38 526.99,646.17 529.95,645.74 532.91,644.99 535.86,644.23 538.82,643.48 541.78,642.73 544.74,641.61 547.69,638.62 550.65,633.99 553.61,624.98 556.57,597.88 559.52,529.10 562.48,269.02 565.44,191.16 568.40,164.78 571.35,149.97 574.31,140.37 577.27,134.40 580.23,129.14 583.18,126.52 586.14,123.25 589.10,121.50 592.06,119.88 595.01,117.83 597.97,116.80 600.93,116.12 603.88,114.83 606.84,113.50 609.80,113.01 612.76,112.78 615.71,639.31 618.67,645.51 621.63,646.64 624.59,647.04 627.54,647.04 630.50,646.96 633.46,646.85 636.42,646.72 639.37,646.53 642.33,646.26 645.29,645.98 648.25,645.70 651.20,645.18 654.16,644.02 657.12,642.86 660.08,641.70 663.03,640.54 665.99,638.13 668.95,631.18 671.90,621.60 674.86,590.47 677.82,462.75 680.78,233.23 683.73,180.63 686.69,159.12 689.65,146.78 692.61,138.65 695.56,132.09 698.52,128.75 701.48,125.12 704.44,122.87 707.39,121.14 710.35,118.99 713.31,117.54 716.27,116.78 719.22,115.63 722.18,114.28 725.14,113.29 728.10,112.93 731.05,112.57 734.01,639.08 736.97,645.51 739.92,646.65 742.88,647.04 745.84,647.03 748.80,646.95 751.75,646.84 754.71,646.72 757.67,646.52 760.63,646.25 763.58,645.99 766.54,645.73 769.50,645.01 772.46,643.95 775.41,642.88 778.37,641.81 781.33,640.75 784.29,638.13 787.24,631.01 790.20,619.70 793.16,587.94 796.12,450.38 799.07,229.84 802.03,180.15 804.99,158.83 807.94,146.63 810.90,138.06 813.86,131.95 816.82,128.59 819.77,124.85 822.73,123.12 825.69,120.49 828.65,119.16 831.60,117.95 834.56,116.21 837.52,115.27 840.48,114.75 843.43,113.53 846.39,112.62 849.35,112.53 852.31,639.11 855.26,645.54 858.22,646.67 861.18,647.04 864.14,647.06 867.09,646.98 870.05,646.88 873.01,646.77 875.96,646.58 878.92,646.37 881.88,646.16 884.84,645.74 887.79,644.98 890.75,644.23 893.71,643.48 896.67,642.72 899.62,641.60 902.58,638.60 905.54,633.96 908.50,624.92 911.45,597.66 914.41,528.06 917.37,268.16 920.33,190.92 923.28,164.69 926.24,149.92 929.20,140.32 932.16,134.37 935.11,129.12 938.07,126.50 941.03,123.24 943.98,121.49 946.94,119.88 949.90,117.83 952.86,116.79 955.81,116.11 958.77,114.83 961.73,113.50 964.69,113.00 967.64,112.77 970.60,639.30 973.56,645.51 976.52,646.64 979.47,647.04 982.43,647.04 985.39,646.96 988.35,646.85 991.30,646.72 994.26,646.53 997.22,646.26 1000.18,645.98 1003.13,645.71 1006.09,645.17 1009.05,644.02 1012.01,642.86 1014.96,641.70 1017.92,640.55 1020.88,638.13 1023.83,631.18 1026.79,621.52 1029.75,590.40 1032.71,462.75 1035.66,232.35 1038.62,181.26 1041.58,159.77 1044.54,147.12 1047.49,138.50 1050.45,132.38 1053.41,128.65 1056.37,125.33 1059.32,122.73 1062.28,121.17 1065.24,119.17 1068.20,117.41 1071.15,116.62 1074.11,115.73 1077.07,114.50 1080.03,113.28 1082.98,112.80 1085.94,112.53 1088.90,639.26 1091.85,645.51 1094.81,646.64 1097.77,647.04 1100.73,647.04 1103.68,646.96 1106.64,646.85 1109.60,646.72 1112.56,646.53 1115.51,646.26 1118.47,645.98 1121.43,645.71 1124.39,645.13 1127.34,644.00 1130.30,642.86 1133.26,641.73 1136.22,640.60 1139.17,638.12 1142.13,631.13 1145.09,621.07 1148.05,589.78 1151.00,459.96 1153.96,232.47 1156.92,181.06 1159.87,159.82 1162.83,146.94 1165.79,138.19 1168.75,132.70 1171.70,128.83 1174.66,125.26 1177.62,122.82 1180.58,120.98 1183.53,119.34 1186.49,117.70 1189.45,116.30 1192.41,115.46 1195.36,114.61 1198.32,113.72 1201.28,112.80 1204.24,111.88 1207.19,639.08 1210.15,645.51 1213.11,646.65 1216.07,647.04 1219.02,647.03 1221.98,646.95 1224.94,646.84 1227.89,646.72 1230.85,646.52 1233.81,646.25 1236.77,645.99 1239.72,645.73 1242.68,645.01 1245.64,643.94 1248.60,642.88 1251.55,641.81 1254.51,640.75 1257.47,638.13 1260.43,631.00 1263.38,619.68 1266.34,587.89 1269.30,450.07 1272.26,229.75 1275.21,180.11 1278.17,158.83 1281.13,146.63 1284.09,138.07 1287.04,131.91 1290.00,128.47" fill="none" stroke="#ef6c00" stroke-width="2.4"/>
<line x1="130" y1="705" x2="160" y2="705" stroke="#1565c0" stroke-width="4"/>
<text x="170" y="710" font-family="Helvetica,Arial,sans-serif" font-size="18" font-weight="normal" fill="#1f2937">mem</text>
<line x1="130" y1="733" x2="160" y2="733" stroke="#2e7d32" stroke-width="4"/>
<text x="170" y="738" font-family="Helvetica,Arial,sans-serif" font-size="18" font-weight="normal" fill="#1f2937">spike</text>
<line x1="130" y1="761" x2="160" y2="761" stroke="#ef6c00" stroke-width="4"/>
<text x="170" y="766" font-family="Helvetica,Arial,sans-serif" font-size="18" font-weight="normal" fill="#1f2937">out</text>
</svg>
