<svg xmlns="http://www.w3.org/2000/svg" width="1400" height="820" viewBox="0 0 1400 820">
<rect x="0" y="0" width="100%" height="100%" fill="#f8fbff"/>
<text x="30" y="44" font-family="Helvetica,Arial,sans-serif" font-size="30" font-weight="bold" fill="#1f2937">Neuro Tile4 Membrane Channels</text>
<rect x="110" y="90" width="1180" height="560" fill="#ffffff" stroke="#cbd5e1" stroke-width="2"/>
<line x1="110" y1="90.00" x2="1290" y2="90.00" stroke="#e2e8f0" stroke-width="1"/>
<text x="30" y="95.0" font-family="Helvetica,Arial,sans-serif" font-size="13" font-weight="normal" fill="#64748b">1.80V</text>
<line x1="110" y1="146.00" x2="1290" y2="146.00" stroke="#e2e8f0" stroke-width="1"/>
<text x="30" y="151.0" font-family="Helvetica,Arial,sans-serif" font-size="13" font-weight="normal" fill="#64748b">1.62V</text>
<line x1="110" y1="202.00" x2="1290" y2="202.00" stroke="#e2e8f0" stroke-width="1"/>
<text x="30" y="207.0" font-family="Helvetica,Arial,sans-serif" font-size="13" font-weight="normal" fill="#64748b">1.44V</text>
<line x1="110" y1="258.00" x2="1290" y2="258.00" stroke="#e2e8f0" stroke-width="1"/>
<text x="30" y="263.0" font-family="Helvetica,Arial,sans-serif" font-size="13" font-weight="normal" fill="#64748b">1.26V</text>
<line x1="110" y1="314.00" x2="1290" y2="314.00" stroke="#e2e8f0" stroke-width="1"/>
<text x="30" y="319.0" font-family="Helvetica,Arial,sans-serif" font-size="13" font-weight="normal" fill="#64748b">1.08V</text>
<line x1="110" y1="370.00" x2="1290" y2="370.00" stroke="#e2e8f0" stroke-width="1"/>
<text x="30" y="375.0" font-family="Helvetica,Arial,sans-serif" font-size="13" font-weight="normal" fill="#64748b">0.90V</text>
<line x1="110" y1="426.00" x2="1290" y2="426.00" stroke="#e2e8f0" stroke-width="1"/>
<text x="30" y="431.0" font-family="Helvetica,Arial,sans-serif" font-size="13" font-weight="normal" fill="#64748b">0.72V</text>
<line x1="110" y1="482.00" x2="1290" y2="482.00" stroke="#e2e8f0" stroke-width="1"/>
<text x="30" y="487.0" font-family="Helvetica,Arial,sans-serif" font-size="13" font-weight="normal" fill="#64748b">0.54V</text>
<line x1="110" y1="538.00" x2="1290" y2="538.00" stroke="#e2e8f0" stroke-width="1"/>
<text x="30" y="543.0" font-family="Helvetica,Arial,sans-serif" font-size="13" font-weight="normal" fill="#64748b">0.36V</text>
<line x1="110" y1="594.00" x2="1290" y2="594.00" stroke="#e2e8f0" stroke-width="1"/>
<text x="30" y="599.0" font-family="Helvetica,Arial,sans-serif" font-size="13" font-weight="normal" fill="#64748b">0.18V</text>
<line x1="110" y1="650.00" x2="1290" y2="650.00" stroke="#e2e8f0" stroke-width="1"/>
<text x="30" y="655.0" font-family="Helvetica,Arial,sans-serif" font-size="13" font-weight="normal" fill="#64748b">0.00V</text>
<line x1="110.00" y1="90" x2="110.00" y2="650" stroke="#e2e8f0" stroke-width="1"/>
<text x="92.0" y="676" font-family="Helvetica,Arial,sans-serif" font-size="13" font-weight="normal" fill="#64748b">0ns</text>
<line x1="228.00" y1="90" x2="228.00" y2="650" stroke="#e2e8f0" stroke-width="1"/>
<text x="210.0" y="676" font-family="Helvetica,Arial,sans-serif" font-size="13" font-weight="normal" fill="#64748b">12ns</text>
<line x1="346.00" y1="90" x2="346.00" y2="650" stroke="#e2e8f0" stroke-width="1"/>
<text x="328.0" y="676" font-family="Helvetica,Arial,sans-serif" font-size="13" font-weight="normal" fill="#64748b">24ns</text>
<line x1="464.00" y1="90" x2="464.00" y2="650" stroke="#e2e8f0" stroke-width="1"/>
<text x="446.0" y="676" font-family="Helvetica,Arial,sans-serif" font-size="13" font-weight="normal" fill="#64748b">36ns</text>
<line x1="582.00" y1="90" x2="582.00" y2="650" stroke="#e2e8f0" stroke-width="1"/>
<text x="564.0" y="676" font-family="Helvetica,Arial,sans-serif" font-size="13" font-weight="normal" fill="#64748b">48ns</text>
<line x1="700.00" y1="90" x2="700.00" y2="650" stroke="#e2e8f0" stroke-width="1"/>
<text x="682.0" y="676" font-family="Helvetica,Arial,sans-serif" font-size="13" font-weight="normal" fill="#64748b">60ns</text>
<line x1="818.00" y1="90" x2="818.00" y2="650" stroke="#e2e8f0" stroke-width="1"/>
<text x="800.0" y="676" font-family="Helvetica,Arial,sans-serif" font-size="13" font-weight="normal" fill="#64748b">72ns</text>
<line x1="936.00" y1="90" x2="936.00" y2="650" stroke="#e2e8f0" stroke-width="1"/>
<text x="918.0" y="676" font-family="Helvetica,Arial,sans-serif" font-size="13" font-weight="normal" fill="#64748b">84ns</text>
<line x1="1054.00" y1="90" x2="1054.00" y2="650" stroke="#e2e8f0" stroke-width="1"/>
<text x="1036.0" y="676" font-family="Helvetica,Arial,sans-serif" font-size="13" font-weight="normal" fill="#64748b">96ns</text>
<line x1="1172.00" y1="90" x2="1172.00" y2="650" stroke="#e2e8f0" stroke-width="1"/>
<text x="1154.0" y="676" font-family="Helvetica,Arial,sans-serif" font-size="13" font-weight="normal" fill="#64748b">108ns</text>
<line x1="1290.00" y1="90" x2="1290.00" y2="650" stroke="#e2e8f0" stroke-width="1"/>
<text x="1272.0" y="676" font-family="Helvetica,Arial,sans-serif" font-size="13" font-weight="normal" fill="#64748b">120ns</text>
<polyline points="110.00,620.62 114.92,620.62 119.83,620.62 124.75,620.62 129.67,620.62 134.58,620.62 139.50,620.62 144.42,620.62 149.33,620.62 154.25,620.62 159.17,620.62 164.08,603.20 169.00,570.33 173.92,537.00 178.83,505.68 183.75,480.25 188.67,465.08 193.58,456.49 198.50,452.13 203.42,450.49 208.33,450.47 213.25,451.43 218.17,453.01 223.08,454.95 228.00,457.09 232.92,459.35 237.83,461.66 242.75,463.99 247.67,466.32 252.58,468.63 257.50,470.93 262.42,473.19 267.33,475.43 272.25,477.64 277.17,479.83 282.08,481.97 287.00,484.11 291.92,486.19 296.83,488.27 301.75,490.31 306.67,492.31 311.58,494.32 316.50,496.29 321.42,498.21 326.33,500.13 331.25,502.05 336.17,503.95 341.08,505.78 346.00,507.61 350.92,509.44 355.83,511.27 360.75,500.30 365.67,476.57 370.58,451.87 375.50,428.96 380.42,412.13 385.33,407.00 390.25,407.82 395.17,410.22 400.08,413.06 405.00,416.02 409.92,419.02 414.83,422.09 419.75,425.19 424.67,428.28 429.58,431.34 434.50,434.36 439.42,437.33 444.33,440.23 449.25,443.08 454.17,445.87 459.08,448.59 464.00,451.27 468.92,453.89 473.83,456.45 478.75,458.97 483.67,461.45 488.58,463.89 493.50,466.29 498.42,468.63 503.33,470.94 508.25,473.26 513.17,475.48 518.08,477.70 523.00,479.90 527.92,482.03 532.83,484.17 537.75,486.29 542.67,488.33 547.58,490.38 552.50,492.43 557.42,482.62 562.33,460.46 567.25,437.51 572.17,416.63 577.08,404.57 582.00,404.14 586.92,406.64 591.83,409.50 596.75,412.45 601.67,415.45 606.58,418.48 611.50,421.55 616.42,424.65 621.33,427.75 626.25,430.82 631.17,433.85 636.08,436.83 641.00,439.75 645.92,442.60 650.83,445.40 655.75,448.13 660.67,450.82 665.58,453.44 670.50,456.02 675.42,458.55 680.33,461.05 685.25,463.48 690.17,465.89 695.08,468.24 700.00,470.58 704.92,472.84 709.83,475.07 714.75,477.31 719.67,479.54 724.58,481.67 729.50,483.80 734.42,485.93 739.33,487.99 744.25,490.04 749.17,492.09 754.08,482.30 759.00,460.17 763.92,437.25 768.83,416.41 773.75,404.48 778.67,404.11 783.58,406.63 788.50,409.49 793.42,412.44 798.33,415.45 803.25,418.47 808.17,421.54 813.08,424.64 818.00,427.74 822.92,430.82 827.83,433.84 832.75,436.82 837.67,439.74 842.58,442.60 847.50,445.39 852.42,448.13 857.33,450.81 862.25,453.43 867.17,456.01 872.08,458.55 877.00,461.04 881.92,463.47 886.83,465.89 891.75,468.23 896.67,470.58 901.58,472.83 906.50,475.07 911.42,477.32 916.33,479.53 921.25,481.67 926.17,483.81 931.08,485.93 936.00,487.98 940.92,490.03 945.83,492.08 950.75,482.30 955.67,460.17 960.58,437.25 965.50,416.41 970.42,404.48 975.33,404.10 980.25,406.63 985.17,409.49 990.08,412.44 995.00,415.45 999.92,418.47 1004.83,421.54 1009.75,424.64 1014.67,427.74 1019.58,430.82 1024.50,433.84 1029.42,436.82 1034.33,439.74 1039.25,442.60 1044.17,445.39 1049.08,448.13 1054.00,450.81 1058.92,453.43 1063.83,456.01 1068.75,458.55 1073.67,461.04 1078.58,463.47 1083.50,465.89 1088.42,468.23 1093.33,470.58 1098.25,472.82 1103.17,475.07 1108.08,477.32 1113.00,479.52 1117.92,481.67 1122.83,483.81 1127.75,485.93 1132.67,487.98 1137.58,490.03 1142.50,492.08 1147.42,482.30 1152.33,460.17 1157.25,437.25 1162.17,416.41 1167.08,404.48 1172.00,404.10 1176.92,406.63 1181.83,409.49 1186.75,412.44 1191.67,415.45 1196.58,418.47 1201.50,421.54 1206.42,424.64 1211.33,427.74 1216.25,430.82 1221.17,433.84 1226.08,436.82 1231.00,439.74 1235.92,442.60 1240.83,445.39 1245.75,448.13 1250.67,450.81 1255.58,453.43 1260.50,456.01 1265.42,458.55 1270.33,461.04 1275.25,463.47 1280.17,465.89 1285.08,468.23 1290.00,470.58" fill="none" stroke="#1565c0" stroke-width="2.4"/>
<polyline points="110.00,620.62 114.92,620.62 119.83,620.62 124.75,620.62 129.67,620.62 134.58,620.62 139.50,620.62 144.42,620.62 149.33,620.62 154.25,620.62 159.17,620.62 164.08,620.62 169.00,620.62 173.92,620.62 178.83,620.62 183.75,603.29 188.67,570.39 193.58,537.00 198.50,505.74 203.42,480.31 208.33,465.13 213.25,456.52 218.17,452.18 223.08,450.53 228.00,450.52 232.92,451.48 237.83,453.06 242.75,454.99 247.67,457.14 252.58,459.39 257.50,461.70 262.42,464.03 267.33,466.35 272.25,468.67 277.17,470.96 282.08,473.22 287.00,475.47 291.92,477.67 296.83,479.85 301.75,482.01 306.67,484.12 311.58,486.23 316.50,488.30 321.42,490.31 326.33,492.33 331.25,494.34 336.17,496.34 341.08,498.25 346.00,500.17 350.92,502.08 355.83,504.00 360.75,505.85 365.67,507.69 370.58,509.50 375.50,511.30 380.42,500.46 385.33,476.71 390.25,452.05 395.17,429.07 400.08,412.19 405.00,407.06 409.92,407.85 414.83,410.23 419.75,413.07 424.67,416.02 429.58,419.03 434.50,422.10 439.42,425.19 444.33,428.29 449.25,431.35 454.17,434.37 459.08,437.33 464.00,440.24 468.92,443.09 473.83,445.87 478.75,448.59 483.67,451.27 488.58,453.89 493.50,456.47 498.42,458.97 503.33,461.44 508.25,463.92 513.17,466.29 518.08,468.65 523.00,470.98 527.92,473.24 532.83,475.49 537.75,477.74 542.67,479.90 547.58,482.06 552.50,484.21 557.42,486.31 562.33,488.38 567.25,490.42 572.17,492.44 577.08,482.62 582.00,460.49 586.92,437.50 591.83,416.61 596.75,404.56 601.67,404.16 606.58,406.64 611.50,409.51 616.42,412.46 621.33,415.46 626.25,418.49 631.17,421.56 636.08,424.66 641.00,427.76 645.92,430.83 650.83,433.86 655.75,436.83 660.67,439.75 665.58,442.60 670.50,445.39 675.42,448.14 680.33,450.83 685.25,453.45 690.17,456.05 695.08,458.56 700.00,461.06 704.92,463.47 709.83,465.85 714.75,468.23 719.67,470.60 724.58,472.86 729.50,475.11 734.42,477.37 739.33,479.54 744.25,481.70 749.17,483.86 754.08,485.96 759.00,488.03 763.92,490.08 768.83,492.10 773.75,482.30 778.67,460.20 783.58,437.24 788.50,416.40 793.42,404.46 798.33,404.13 803.25,406.63 808.17,409.50 813.08,412.45 818.00,415.46 822.92,418.48 827.83,421.55 832.75,424.65 837.67,427.75 842.58,430.82 847.50,433.85 852.42,436.82 857.33,439.74 862.25,442.59 867.17,445.39 872.08,448.13 877.00,450.83 881.92,453.44 886.83,456.04 891.75,458.55 896.67,461.06 901.58,463.46 906.50,465.85 911.42,468.24 916.33,470.59 921.25,472.85 926.17,475.12 931.08,477.36 936.00,479.53 940.92,481.69 945.83,483.85 950.75,485.96 955.67,488.03 960.58,490.08 965.50,492.10 970.42,482.29 975.33,460.20 980.25,437.24 985.17,416.40 990.08,404.46 995.00,404.13 999.92,406.63 1004.83,409.50 1009.75,412.45 1014.67,415.46 1019.58,418.48 1024.50,421.55 1029.42,424.65 1034.33,427.75 1039.25,430.82 1044.17,433.85 1049.08,436.82 1054.00,439.74 1058.92,442.59 1063.83,445.39 1068.75,448.13 1073.67,450.83 1078.58,453.44 1083.50,456.04 1088.42,458.55 1093.33,461.06 1098.25,463.46 1103.17,465.85 1108.08,468.24 1113.00,470.59 1117.92,472.85 1122.83,475.12 1127.75,477.36 1132.67,479.53 1137.58,481.69 1142.50,483.85 1147.42,485.96 1152.33,488.03 1157.25,490.08 1162.17,492.10 1167.08,482.29 1172.00,460.20 1176.92,437.24 1181.83,416.40 1186.75,404.46 1191.67,404.13 1196.58,406.63 1201.50,409.50 1206.42,412.45 1211.33,415.46 1216.25,418.48 1221.17,421.55 1226.08,424.65 1231.00,427.75 1235.92,430.82 1240.83,433.85 1245.75,436.82 1250.67,439.74 1255.58,442.59 1260.50,445.39 1265.42,448.13 1270.33,450.83 1275.25,453.44 1280.17,456.04 1285.08,458.55 1290.00,461.06" fill="none" stroke="#2e7d32" stroke-width="2.4"/>
<polyline points="110.00,620.62 114.92,620.62 119.83,620.62 124.75,620.62 129.67,620.62 134.58,620.62 139.50,620.62 144.42,620.62 149.33,620.62 154.25,620.62 159.17,620.62 164.08,620.62 169.00,620.62 173.92,620.62 178.83,620.62 183.75,620.62 188.67,620.62 193.58,620.62 198.50,620.62 203.42,603.29 208.33,570.40 213.25,537.00 218.17,505.75 223.08,480.32 228.00,465.13 232.92,456.53 237.83,452.26 242.75,450.54 247.67,450.57 252.58,451.51 257.50,453.07 262.42,455.00 267.33,457.13 272.25,459.38 277.17,461.69 282.08,464.02 287.00,466.35 291.92,468.66 296.83,470.96 301.75,473.22 306.67,475.45 311.58,477.67 316.50,479.85 321.42,481.98 326.33,484.10 331.25,486.22 336.17,488.32 341.08,490.33 346.00,492.34 350.92,494.35 355.83,496.36 360.75,498.30 365.67,500.23 370.58,502.13 375.50,504.00 380.42,505.86 385.33,507.69 390.25,509.51 395.17,511.30 400.08,500.46 405.00,476.69 409.92,452.04 414.83,429.06 419.75,412.18 424.67,407.05 429.58,407.84 434.50,410.23 439.42,413.07 444.33,416.02 449.25,419.03 454.17,422.10 459.08,425.19 464.00,428.29 468.92,431.36 473.83,434.37 478.75,437.33 483.67,440.24 488.58,443.09 493.50,445.89 498.42,448.59 503.33,451.26 508.25,453.93 513.17,456.47 518.08,459.00 523.00,461.51 527.92,463.91 532.83,466.31 537.75,468.70 542.67,470.99 547.58,473.27 552.50,475.56 557.42,477.77 562.33,479.96 567.25,482.11 572.17,484.24 577.08,486.34 582.00,488.40 586.92,490.45 591.83,492.47 596.75,482.65 601.67,460.50 606.58,437.47 611.50,416.63 616.42,404.57 621.33,404.16 626.25,406.64 631.17,409.51 636.08,412.46 641.00,415.47 645.92,418.49 650.83,421.56 655.75,424.66 660.67,427.76 665.58,430.83 670.50,433.86 675.42,436.84 680.33,439.77 685.25,442.62 690.17,445.44 695.08,448.16 700.00,450.86 704.92,453.45 709.83,456.01 714.75,458.56 719.67,461.11 724.58,463.51 729.50,465.91 734.42,468.31 739.33,470.62 744.25,472.90 749.17,475.19 754.08,477.41 759.00,479.60 763.92,481.76 768.83,483.89 773.75,485.99 778.67,488.07 783.58,490.11 788.50,492.13 793.42,482.34 798.33,460.22 803.25,437.22 808.17,416.42 813.08,404.47 818.00,404.13 822.92,406.63 827.83,409.50 832.75,412.45 837.67,415.46 842.58,418.49 847.50,421.56 852.42,424.66 857.33,427.75 862.25,430.82 867.17,433.85 872.08,436.83 877.00,439.77 881.92,442.61 886.83,445.43 891.75,448.15 896.67,450.86 901.58,453.43 906.50,456.00 911.42,458.57 916.33,461.08 921.25,463.50 926.17,465.91 931.08,468.30 936.00,470.60 940.92,472.89 945.83,475.19 950.75,477.41 955.67,479.60 960.58,481.75 965.50,483.89 970.42,485.99 975.33,488.06 980.25,490.11 985.17,492.13 990.08,482.33 995.00,460.21 999.92,437.21 1004.83,416.42 1009.75,404.47 1014.67,404.13 1019.58,406.63 1024.50,409.50 1029.42,412.45 1034.33,415.46 1039.25,418.49 1044.17,421.56 1049.08,424.66 1054.00,427.75 1058.92,430.82 1063.83,433.85 1068.75,436.83 1073.67,439.77 1078.58,442.61 1083.50,445.43 1088.42,448.15 1093.33,450.86 1098.25,453.43 1103.17,456.00 1108.08,458.57 1113.00,461.08 1117.92,463.50 1122.83,465.91 1127.75,468.30 1132.67,470.60 1137.58,472.89 1142.50,475.19 1147.42,477.41 1152.33,479.60 1157.25,481.75 1162.17,483.89 1167.08,485.99 1172.00,488.06 1176.92,490.11 1181.83,492.13 1186.75,482.33 1191.67,460.21 1196.58,437.21 1201.50,416.42 1206.42,404.47 1211.33,404.13 1216.25,406.63 1221.17,409.50 1226.08,412.45 1231.00,415.46 1235.92,418.49 1240.83,421.56 1245.75,424.66 1250.67,427.75 1255.58,430.82 1260.50,433.85 1265.42,436.83 1270.33,439.77 1275.25,442.61 1280.17,445.43 1285.08,448.15 1290.00,450.86" fill="none" stroke="#ef6c00" stroke-width="2.4"/>
<polyline points="110.00,620.62 114.92,620.62 119.83,620.62 124.75,620.62 129.67,620.62 134.58,620.62 139.50,620.62 144.42,620.62 149.33,620.62 154.25,620.62 159.17,620.62 164.08,620.62 169.00,620.62 173.92,620.62 178.83,620.62 183.75,620.62 188.67,620.62 193.58,620.62 198.50,620.62 203.42,620.62 208.33,620.62 213.25,620.62 218.17,620.62 223.08,603.29 228.00,570.40 232.92,537.00 237.83,505.84 242.75,480.41 247.67,465.60 252.58,456.82 257.50,452.40 262.42,450.70 267.33,450.63 272.25,451.50 277.17,453.10 282.08,455.06 287.00,457.17 291.92,459.44 296.83,461.76 301.75,464.08 306.67,466.40 311.58,468.73 316.50,471.02 321.42,473.26 326.33,475.50 331.25,477.74 336.17,479.95 341.08,482.07 346.00,484.18 350.92,486.30 355.83,488.41 360.75,490.46 365.67,492.47 370.58,494.47 375.50,496.43 380.42,498.38 385.33,500.30 390.25,502.20 395.17,504.08 400.08,505.93 405.00,507.77 409.92,509.58 414.83,511.38 419.75,500.53 424.67,476.75 429.58,452.09 434.50,429.18 439.42,412.49 444.33,407.08 449.25,407.81 454.17,410.23 459.08,413.09 464.00,416.04 468.92,419.06 473.83,422.15 478.75,425.24 483.67,428.34 488.58,431.41 493.50,434.45 498.42,437.39 503.33,440.29 508.25,443.20 513.17,445.95 518.08,448.69 523.00,451.40 527.92,453.98 532.83,456.56 537.75,459.13 542.67,461.57 547.58,464.01 552.50,466.44 557.42,468.80 562.33,471.11 567.25,473.39 572.17,475.64 577.08,477.86 582.00,480.04 586.92,482.19 591.83,484.32 596.75,486.41 601.67,488.48 606.58,490.52 611.50,492.54 616.42,482.72 621.33,460.56 626.25,437.52 631.17,416.96 636.08,404.67 641.00,404.16 645.92,406.67 650.83,409.53 655.75,412.49 660.67,415.49 665.58,418.55 670.50,421.64 675.42,424.74 680.33,427.85 685.25,430.92 690.17,433.98 695.08,436.93 700.00,439.88 704.92,442.69 709.83,445.46 714.75,448.24 719.67,451.00 724.58,453.58 729.50,456.16 734.42,458.74 739.33,461.20 744.25,463.64 749.17,466.08 754.08,468.44 759.00,470.76 763.92,473.05 768.83,475.30 773.75,477.52 778.67,479.71 783.58,481.86 788.50,483.99 793.42,486.09 798.33,488.17 803.25,490.21 808.17,492.23 813.08,482.43 818.00,460.30 822.92,437.29 827.83,416.77 832.75,404.58 837.67,404.14 842.58,406.65 847.50,409.52 852.42,412.48 857.33,415.49 862.25,418.54 867.17,421.63 872.08,424.73 877.00,427.85 881.92,430.91 886.83,433.97 891.75,436.93 896.67,439.88 901.58,442.67 906.50,445.46 911.42,448.25 916.33,450.97 921.25,453.57 926.17,456.17 931.08,458.73 936.00,461.18 940.92,463.63 945.83,466.08 950.75,468.43 955.67,470.76 960.58,473.04 965.50,475.30 970.42,477.51 975.33,479.70 980.25,481.86 985.17,483.99 990.08,486.09 995.00,488.16 999.92,490.21 1004.83,492.23 1009.75,482.42 1014.67,460.30 1019.58,437.29 1024.50,416.77 1029.42,404.58 1034.33,404.14 1039.25,406.65 1044.17,409.52 1049.08,412.48 1054.00,415.49 1058.92,418.54 1063.83,421.63 1068.75,424.73 1073.67,427.84 1078.58,430.91 1083.50,433.97 1088.42,436.93 1093.33,439.88 1098.25,442.67 1103.17,445.46 1108.08,448.25 1113.00,450.97 1117.92,453.57 1122.83,456.17 1127.75,458.73 1132.67,461.18 1137.58,463.63 1142.50,466.08 1147.42,468.43 1152.33,470.76 1157.25,473.04 1162.17,475.30 1167.08,477.51 1172.00,479.70 1176.92,481.86 1181.83,483.99 1186.75,486.09 1191.67,488.16 1196.58,490.21 1201.50,492.23 1206.42,482.42 1211.33,460.30 1216.25,437.29 1221.17,416.77 1226.08,404.58 1231.00,404.14 1235.92,406.65 1240.83,409.52 1245.75,412.48 1250.67,415.49 1255.58,418.54 1260.50,421.63 1265.42,424.73 1270.33,427.84 1275.25,430.91 1280.17,433.97 1285.08,436.93 1290.00,439.88" fill="none" stroke="#6a1b9a" stroke-width="2.4"/>
<line x1="130" y1="705" x2="160" y2="705" stroke="#1565c0" stroke-width="4"/>
<text x="170" y="710" font-family="Helvetica,Arial,sans-serif" font-size="18" font-weight="normal" fill="#1f2937">mem0</text>
<line x1="130" y1="733" x2="160" y2="733" stroke="#2e7d32" stroke-width="4"/>
<text x="170" y="738" font-family="Helvetica,Arial,sans-serif" font-size="18" font-weight="normal" fill="#1f2937">mem1</text>
<line x1="130" y1="761" x2="160" y2="761" stroke="#ef6c00" stroke-width="4"/>
<text x="170" y="766" font-family="Helvetica,Arial,sans-serif" font-size="18" font-weight="normal" fill="#1f2937">mem2</text>
<line x1="130" y1="789" x2="160" y2="789" stroke="#6a1b9a" stroke-width="4"/>
<text x="170" y="794" font-family="Helvetica,Arial,sans-serif" font-size="18" font-weight="normal" fill="#1f2937">mem3</text>
</svg>
