<svg xmlns="http://www.w3.org/2000/svg" width="1200" height="540" viewBox="0 0 1200 540">
<rect x="0" y="0" width="100%" height="100%" fill="#f8fbff"/>
<defs><marker id="arrowhead" markerWidth="10" markerHeight="7" refX="9" refY="3.5" orient="auto"><polygon points="0 0, 10 3.5, 0 7" fill="#345f99" /></marker></defs>
<text x="36" y="48" font-family="Helvetica,Arial,sans-serif" font-size="30" font-weight="bold" fill="#152238">Neuro Tile4 First-Spike Timing (from PASS artifact)</text>
<line x1="120" y1="120" x2="1120" y2="120" stroke="#263238" stroke-width="2"/>
<line x1="120.0" y1="112" x2="120.0" y2="420" stroke="#cfd8dc" stroke-width="1"/>
<text x="112.0" y="102" font-family="Helvetica,Arial,sans-serif" font-size="14" font-weight="normal" fill="#546e7a">0</text>
<line x1="220.0" y1="112" x2="220.0" y2="420" stroke="#cfd8dc" stroke-width="1"/>
<text x="212.0" y="102" font-family="Helvetica,Arial,sans-serif" font-size="14" font-weight="normal" fill="#546e7a">5</text>
<line x1="320.0" y1="112" x2="320.0" y2="420" stroke="#cfd8dc" stroke-width="1"/>
<text x="312.0" y="102" font-family="Helvetica,Arial,sans-serif" font-size="14" font-weight="normal" fill="#546e7a">10</text>
<line x1="420.0" y1="112" x2="420.0" y2="420" stroke="#cfd8dc" stroke-width="1"/>
<text x="412.0" y="102" font-family="Helvetica,Arial,sans-serif" font-size="14" font-weight="normal" fill="#546e7a">15</text>
<line x1="520.0" y1="112" x2="520.0" y2="420" stroke="#cfd8dc" stroke-width="1"/>
<text x="512.0" y="102" font-family="Helvetica,Arial,sans-serif" font-size="14" font-weight="normal" fill="#546e7a">20</text>
<line x1="620.0" y1="112" x2="620.0" y2="420" stroke="#cfd8dc" stroke-width="1"/>
<text x="612.0" y="102" font-family="Helvetica,Arial,sans-serif" font-size="14" font-weight="normal" fill="#546e7a">25</text>
<line x1="720.0" y1="112" x2="720.0" y2="420" stroke="#cfd8dc" stroke-width="1"/>
<text x="712.0" y="102" font-family="Helvetica,Arial,sans-serif" font-size="14" font-weight="normal" fill="#546e7a">30</text>
<line x1="820.0" y1="112" x2="820.0" y2="420" stroke="#cfd8dc" stroke-width="1"/>
<text x="812.0" y="102" font-family="Helvetica,Arial,sans-serif" font-size="14" font-weight="normal" fill="#546e7a">35</text>
<line x1="920.0" y1="112" x2="920.0" y2="420" stroke="#cfd8dc" stroke-width="1"/>
<text x="912.0" y="102" font-family="Helvetica,Arial,sans-serif" font-size="14" font-weight="normal" fill="#546e7a">40</text>
<line x1="1020.0" y1="112" x2="1020.0" y2="420" stroke="#cfd8dc" stroke-width="1"/>
<text x="1012.0" y="102" font-family="Helvetica,Arial,sans-serif" font-size="14" font-weight="normal" fill="#546e7a">45</text>
<line x1="1120.0" y1="112" x2="1120.0" y2="420" stroke="#cfd8dc" stroke-width="1"/>
<text x="1112.0" y="102" font-family="Helvetica,Arial,sans-serif" font-size="14" font-weight="normal" fill="#546e7a">50</text>
<text x="1138" y="126" font-family="Helvetica,Arial,sans-serif" font-size="16" font-weight="bold" fill="#37474f">ns</text>
<text x="36" y="166" font-family="Helvetica,Arial,sans-serif" font-size="24" font-weight="bold" fill="#1e88e5">spike0</text>
<line x1="120" y1="160" x2="1120" y2="160" stroke="#90a4ae" stroke-width="2"/>
<circle cx="670.0" cy="160" r="9" fill="#1e88e5" stroke="#263238" stroke-width="1"/>
<text x="684.0" y="166" font-family="Helvetica,Arial,sans-serif" font-size="18" font-weight="bold" fill="#1e88e5">27.5 ns</text>
<text x="36" y="250" font-family="Helvetica,Arial,sans-serif" font-size="24" font-weight="bold" fill="#43a047">spike1</text>
<line x1="120" y1="244" x2="1120" y2="244" stroke="#90a4ae" stroke-width="2"/>
<circle cx="710.0" cy="244" r="9" fill="#43a047" stroke="#263238" stroke-width="1"/>
<text x="724.0" y="250" font-family="Helvetica,Arial,sans-serif" font-size="18" font-weight="bold" fill="#43a047">29.5 ns</text>
<text x="36" y="334" font-family="Helvetica,Arial,sans-serif" font-size="24" font-weight="bold" fill="#fb8c00">spike2</text>
<line x1="120" y1="328" x2="1120" y2="328" stroke="#90a4ae" stroke-width="2"/>
<circle cx="750.0" cy="328" r="9" fill="#fb8c00" stroke="#263238" stroke-width="1"/>
<text x="764.0" y="334" font-family="Helvetica,Arial,sans-serif" font-size="18" font-weight="bold" fill="#fb8c00">31.5 ns</text>
<text x="36" y="418" font-family="Helvetica,Arial,sans-serif" font-size="24" font-weight="bold" fill="#8e24aa">spike3</text>
<line x1="120" y1="412" x2="1120" y2="412" stroke="#90a4ae" stroke-width="2"/>
<circle cx="790.0" cy="412" r="9" fill="#8e24aa" stroke="#263238" stroke-width="1"/>
<text x="804.0" y="418" font-family="Helvetica,Arial,sans-serif" font-size="18" font-weight="bold" fill="#8e24aa">33.5 ns</text>
<rect x="120" y="430" width="980" height="70" rx="10" ry="10" fill="#fffde7" stroke="#f9a825" stroke-width="2"/>
<text x="142" y="472" font-family="Helvetica,Arial,sans-serif" font-size="22" font-weight="bold" fill="#795548">Observed ordering: spike0 &lt; spike1 &lt; spike2 &lt; spike3 (staggered input behavior preserved)</text>
</svg>
