<svg xmlns="http://www.w3.org/2000/svg" width="1320" height="520" viewBox="0 0 1320 520">
<rect x="0" y="0" width="100%" height="100%" fill="#f8fbff"/>
<defs><marker id="arrowhead" markerWidth="10" markerHeight="7" refX="9" refY="3.5" orient="auto"><polygon points="0 0, 10 3.5, 0 7" fill="#345f99" /></marker></defs>
<text x="36" y="48" font-family="Helvetica,Arial,sans-serif" font-size="30" font-weight="bold" fill="#152238">NeuroCore Signal Flow (Synapse -&gt; Tile4)</text>
<rect x="40" y="120" width="230" height="180" rx="14" ry="14" fill="#f3e5f5" stroke="#6a1b9a" stroke-width="3"/>
<text x="68" y="188" font-family="Helvetica,Arial,sans-serif" font-size="28" font-weight="bold" fill="#152238">Presynaptic</text>
<text x="68" y="222" font-family="Helvetica,Arial,sans-serif" font-size="28" font-weight="bold" fill="#152238">Spike Inputs</text>
<line x1="276" y1="210.0" x2="288" y2="210.0" stroke="#345f99" stroke-width="2" marker-end="url(#arrowhead)"/>
<rect x="292" y="120" width="230" height="180" rx="14" ry="14" fill="#e3f2fd" stroke="#1565c0" stroke-width="3"/>
<text x="320" y="188" font-family="Helvetica,Arial,sans-serif" font-size="28" font-weight="bold" fill="#152238">Synapse</text>
<text x="320" y="222" font-family="Helvetica,Arial,sans-serif" font-size="28" font-weight="bold" fill="#152238">Integrate + Decay</text>
<line x1="528" y1="210.0" x2="540" y2="210.0" stroke="#345f99" stroke-width="2" marker-end="url(#arrowhead)"/>
<rect x="544" y="120" width="230" height="180" rx="14" ry="14" fill="#e8f5e9" stroke="#2e7d32" stroke-width="3"/>
<text x="572" y="188" font-family="Helvetica,Arial,sans-serif" font-size="28" font-weight="bold" fill="#152238">Membrane</text>
<text x="572" y="222" font-family="Helvetica,Arial,sans-serif" font-size="28" font-weight="bold" fill="#152238">Integration</text>
<line x1="780" y1="210.0" x2="792" y2="210.0" stroke="#345f99" stroke-width="2" marker-end="url(#arrowhead)"/>
<rect x="796" y="120" width="230" height="180" rx="14" ry="14" fill="#fff3e0" stroke="#ef6c00" stroke-width="3"/>
<text x="824" y="188" font-family="Helvetica,Arial,sans-serif" font-size="28" font-weight="bold" fill="#152238">Threshold +</text>
<text x="824" y="222" font-family="Helvetica,Arial,sans-serif" font-size="28" font-weight="bold" fill="#152238">Spike Gen</text>
<line x1="1032" y1="210.0" x2="1044" y2="210.0" stroke="#345f99" stroke-width="2" marker-end="url(#arrowhead)"/>
<rect x="1048" y="120" width="230" height="180" rx="14" ry="14" fill="#e1f5fe" stroke="#00838f" stroke-width="3"/>
<text x="1076" y="188" font-family="Helvetica,Arial,sans-serif" font-size="28" font-weight="bold" fill="#152238">4-Channel</text>
<text x="1076" y="222" font-family="Helvetica,Arial,sans-serif" font-size="28" font-weight="bold" fill="#152238">Tile Output</text>
<rect x="40" y="340" width="1240" height="130" rx="10" ry="10" fill="#f8f9fa" stroke="#455a64" stroke-width="2"/>
<text x="62" y="382" font-family="Helvetica,Arial,sans-serif" font-size="24" font-weight="bold" fill="#263238">Evidence Hooks:</text>
<text x="250" y="382" font-family="Helvetica,Arial,sans-serif" font-size="22" font-weight="normal" fill="#37474f">synapse_test.txt</text>
<text x="470" y="382" font-family="Helvetica,Arial,sans-serif" font-size="22" font-weight="normal" fill="#37474f">lif_neuron_test.txt</text>
<text x="720" y="382" font-family="Helvetica,Arial,sans-serif" font-size="22" font-weight="normal" fill="#37474f">neuron_tile_test.txt</text>
<text x="960" y="382" font-family="Helvetica,Arial,sans-serif" font-size="22" font-weight="normal" fill="#37474f">neuro_tile4_test.txt</text>
<text x="62" y="425" font-family="Helvetica,Arial,sans-serif" font-size="24" font-weight="normal" fill="#263238">All integrated in build flow: ./build.sh all</text>
</svg>
