<svg xmlns="http://www.w3.org/2000/svg" width="1280" height="900" viewBox="0 0 1280 900">
<rect x="0" y="0" width="100%" height="100%" fill="#f8fbff"/>
<defs><marker id="arrowhead" markerWidth="10" markerHeight="7" refX="9" refY="3.5" orient="auto"><polygon points="0 0, 10 3.5, 0 7" fill="#345f99" /></marker></defs>
<text x="36" y="48" font-family="Helvetica,Arial,sans-serif" font-size="30" font-weight="bold" fill="#152238">NeuroCore Vision Stack (Verified to Date)</text>
<rect x="60" y="90" width="560" height="70" rx="10" ry="10" fill="#e6f4ea" stroke="#2e7d32" stroke-width="2"/>
<text x="78" y="132" font-family="Helvetica,Arial,sans-serif" font-size="20" font-weight="bold" fill="#1b5e20">Level 5: CMOS Primitives - VERIFIED</text>
<line x1="340.0" y1="160" x2="340.0" y2="173" stroke="#2e7d32" stroke-width="2" marker-end="url(#arrowhead)"/>
<rect x="60" y="176" width="560" height="70" rx="10" ry="10" fill="#e6f4ea" stroke="#2e7d32" stroke-width="2"/>
<text x="78" y="218" font-family="Helvetica,Arial,sans-serif" font-size="20" font-weight="bold" fill="#1b5e20">Level 4: Logic Gates - VERIFIED</text>
<line x1="340.0" y1="246" x2="340.0" y2="259" stroke="#2e7d32" stroke-width="2" marker-end="url(#arrowhead)"/>
<rect x="60" y="262" width="560" height="70" rx="10" ry="10" fill="#e6f4ea" stroke="#2e7d32" stroke-width="2"/>
<text x="78" y="304" font-family="Helvetica,Arial,sans-serif" font-size="20" font-weight="bold" fill="#1b5e20">Level 3: Blocks (Adder/Mux) - VERIFIED</text>
<line x1="340.0" y1="332" x2="340.0" y2="345" stroke="#2e7d32" stroke-width="2" marker-end="url(#arrowhead)"/>
<rect x="60" y="348" width="560" height="70" rx="10" ry="10" fill="#e6f4ea" stroke="#2e7d32" stroke-width="2"/>
<text x="78" y="390" font-family="Helvetica,Arial,sans-serif" font-size="20" font-weight="bold" fill="#1b5e20">Level 2: RTL Components (ALU) - VERIFIED</text>
<line x1="340.0" y1="418" x2="340.0" y2="431" stroke="#2e7d32" stroke-width="2" marker-end="url(#arrowhead)"/>
<rect x="60" y="434" width="560" height="70" rx="10" ry="10" fill="#e6f4ea" stroke="#2e7d32" stroke-width="2"/>
<text x="78" y="476" font-family="Helvetica,Arial,sans-serif" font-size="20" font-weight="bold" fill="#1b5e20">Level 1: Functional Blocks (PE) - VERIFIED</text>
<line x1="340.0" y1="504" x2="340.0" y2="517" stroke="#2e7d32" stroke-width="2" marker-end="url(#arrowhead)"/>
<rect x="60" y="520" width="560" height="70" rx="10" ry="10" fill="#e6f4ea" stroke="#2e7d32" stroke-width="2"/>
<text x="78" y="562" font-family="Helvetica,Arial,sans-serif" font-size="20" font-weight="bold" fill="#1b5e20">Level 0: GPU Core - VERIFIED</text>
<text x="690" y="120" font-family="Helvetica,Arial,sans-serif" font-size="24" font-weight="bold" fill="#152238">Competition Analog Path</text>
<rect x="690" y="150" width="520" height="88" rx="10" ry="10" fill="#eef2ff" stroke="#304ffe" stroke-width="2"/>
<text x="708" y="200" font-family="Helvetica,Arial,sans-serif" font-size="22" font-weight="bold" fill="#1a237e">Synapse Primitive - PASS</text>
<line x1="950.0" y1="238" x2="950.0" y2="252" stroke="#304ffe" stroke-width="2" marker-end="url(#arrowhead)"/>
<rect x="690" y="256" width="520" height="88" rx="10" ry="10" fill="#eef2ff" stroke="#304ffe" stroke-width="2"/>
<text x="708" y="306" font-family="Helvetica,Arial,sans-serif" font-size="22" font-weight="bold" fill="#1a237e">LIF Neuron Primitive - PASS</text>
<line x1="950.0" y1="344" x2="950.0" y2="358" stroke="#304ffe" stroke-width="2" marker-end="url(#arrowhead)"/>
<rect x="690" y="362" width="520" height="88" rx="10" ry="10" fill="#eef2ff" stroke="#304ffe" stroke-width="2"/>
<text x="708" y="412" font-family="Helvetica,Arial,sans-serif" font-size="22" font-weight="bold" fill="#1a237e">Neuron Tile (1 channel) - PASS</text>
<line x1="950.0" y1="450" x2="950.0" y2="464" stroke="#304ffe" stroke-width="2" marker-end="url(#arrowhead)"/>
<rect x="690" y="468" width="520" height="88" rx="10" ry="10" fill="#eef2ff" stroke="#304ffe" stroke-width="2"/>
<text x="708" y="518" font-family="Helvetica,Arial,sans-serif" font-size="22" font-weight="bold" fill="#1a237e">Neuro Tile4 (4 channels) - PASS</text>
<rect x="690" y="610" width="520" height="180" rx="10" ry="10" fill="#fff7e6" stroke="#ef6c00" stroke-width="2"/>
<text x="708" y="652" font-family="Helvetica,Arial,sans-serif" font-size="24" font-weight="bold" fill="#e65100">Submission Package In Progress</text>
<text x="708" y="692" font-family="Helvetica,Arial,sans-serif" font-size="20" font-weight="normal" fill="#bf360c">- Concept paper draft + evidence files</text>
<text x="708" y="725" font-family="Helvetica,Arial,sans-serif" font-size="20" font-weight="normal" fill="#bf360c">- Metrics rollup + waveform capture checklist</text>
<text x="708" y="758" font-family="Helvetica,Arial,sans-serif" font-size="20" font-weight="normal" fill="#bf360c">- Next: final visuals and pitch video</text>
</svg>
